AbhayaLibre_1.ufo
<glyph name="parenleft" format="1">
  <advance width="336"/>
  <unicode hex="0028"/>
  <outline>
    <contour>
      <point x="312" y="650" type="line"/>
      <point x="138" y="603"/>
      <point x="50" y="424"/>
      <point x="50" y="246" type="curve" smooth="yes"/>
      <point x="50" y="71"/>
      <point x="135" y="-103"/>
      <point x="309" y="-150" type="curve"/>
      <point x="319" y="-122" type="line"/>
      <point x="196" y="-77"/>
      <point x="181" y="84"/>
      <point x="181" y="248" type="curve" smooth="yes"/>
      <point x="181" y="413"/>
      <point x="198" y="576"/>
      <point x="321" y="622" type="curve"/>
    </contour>
  </outline>
</glyph>
<glyph name="one" format="1">
  <advance width="442"/>
  <unicode hex="0031"/>
  <outline>
    <contour>
      <point x="233" y="540" type="line"/>
      <point x="20" y="405" type="line"/>
      <point x="38" y="377" type="line"/>
      <point x="182" y="464" type="line"/>
      <point x="182" y="35" type="line"/>
      <point x="55" y="26" type="line"/>
      <point x="55" y="0" type="line"/>
      <point x="427" y="0" type="line"/>
      <point x="427" y="19"/>
      <point x="416" y="24"/>
      <point x="396" y="26" type="curve" smooth="yes"/>
      <point x="316" y="35" type="line"/>
      <point x="316" y="540" type="line"/>
    </contour>
  </outline>
</glyph>
<glyph name="A" format="1">
  <advance width="657"/>
  <unicode hex="0041"/>
  <outline>
    <contour>
      <point x="189" y="0" type="line"/>
      <point x="189" y="23"/>
      <point x="184" y="27"/>
      <point x="165" y="27" type="curve" smooth="yes"/>
      <point x="109" y="27" type="line"/>
      <point x="325" y="600" type="line"/>
      <point x="288" y="600" type="line"/>
      <point x="69" y="27" type="line"/>
      <point x="5" y="27" type="line"/>
      <point x="5" y="0" type="line"/>
    </contour>
    <contour>
      <point x="607" y="0" type="line"/>
      <point x="362" y="600" type="line"/>
      <point x="297" y="600" type="line"/>
      <point x="273" y="495" type="line"/>
      <point x="465" y="0" type="line"/>
    </contour>
    <contour>
      <point x="652" y="0" type="line"/>
      <point x="652" y="23"/>
      <point x="647" y="27"/>
      <point x="628" y="27" type="curve" smooth="yes"/>
      <point x="384" y="27" type="line"/>
      <point x="384" y="0" type="line"/>
    </contour>
    <contour>
      <point x="445" y="219" type="line"/>
      <point x="435" y="249" type="line"/>
      <point x="165" y="249" type="line"/>
      <point x="155" y="219" type="line"/>
    </contour>
    <contour>
      <point x="631" y="9" type="move" name="ogonek"/>
    </contour>
    <contour>
      <point x="326" y="630" type="move" name="top"/>
    </contour>
  </outline>
</glyph>
<glyph name="C" format="1">
  <advance width="618"/>
  <unicode hex="0043"/>
  <outline>
    <contour>
      <point x="579" y="-5" type="line"/>
      <point x="585" y="207" type="line"/>
      <point x="555" y="207" type="line"/>
      <point x="521" y="78"/>
      <point x="455" y="22"/>
      <point x="363" y="22" type="curve" smooth="yes"/>
      <point x="249" y="22"/>
      <point x="192" y="99"/>
      <point x="192" y="298" type="curve" smooth="yes"/>
      <point x="192" y="499"/>
      <point x="256" y="579"/>
      <point x="371" y="579" type="curve" smooth="yes"/>
      <point x="462" y="579"/>
      <point x="524" y="518"/>
      <point x="552" y="388" type="curve"/>
      <point x="583" y="388" type="line"/>
      <point x="579" y="600" type="line"/>
      <point x="485" y="581" type="line"/>
      <point x="440" y="600"/>
      <point x="390" y="610"/>
      <point x="340" y="610" type="curve" smooth="yes"/>
      <point x="188" y="610"/>
      <point x="35" y="518"/>
      <point x="35" y="302" type="curve" smooth="yes"/>
      <point x="35" y="83"/>
      <point x="191" y="-9"/>
      <point x="343" y="-9" type="curve" smooth="yes"/>
      <point x="394" y="-9"/>
      <point x="445" y="1"/>
      <point x="489" y="21" type="curve"/>
    </contour>
    <contour>
      <point x="309" y="700" type="move" name="top"/>
    </contour>
    <contour>
      <point x="346" y="0" type="move" name="bottom"/>
    </contour>
  </outline>
</glyph>
<glyph name="E" format="1">
  <advance width="547"/>
  <unicode hex="0045"/>
  <outline>
    <contour>
      <point x="522" y="403" type="line"/>
      <point x="518" y="600" type="line"/>
      <point x="20" y="600" type="line"/>
      <point x="20" y="573" type="line"/>
      <point x="351" y="573" type="line" smooth="yes"/>
      <point x="427" y="573"/>
      <point x="456" y="526"/>
      <point x="471" y="477" type="curve" smooth="yes"/>
      <point x="493" y="403" type="line"/>
    </contour>
    <contour>
      <point x="518" y="0" type="line"/>
      <point x="522" y="197" type="line"/>
      <point x="493" y="197" type="line"/>
      <point x="470" y="123" type="line" smooth="yes"/>
      <point x="455" y="76"/>
      <point x="427" y="27"/>
      <point x="351" y="27" type="curve" smooth="yes"/>
      <point x="20" y="27" type="line"/>
      <point x="20" y="0" type="line"/>
    </contour>
    <contour>
      <point x="430" y="294" type="line"/>
      <point x="430" y="324" type="line"/>
      <point x="160" y="324" type="line"/>
      <point x="160" y="294" type="line"/>
    </contour>
    <component base="vertical_stem_upper" xOffset="56"/>
    <contour>
      <point x="508" y="9" type="move" name="ogonek"/>
    </contour>
    <contour>
      <point x="274" y="0" type="move" name="bottom"/>
    </contour>
    <contour>
      <point x="296" y="630" type="move" name="top"/>
    </contour>
  </outline>
</glyph>
<glyph name="F" format="1">
  <advance width="537"/>
  <unicode hex="0046"/>
  <outline>
    <contour>
      <point x="522" y="403" type="line"/>
      <point x="518" y="600" type="line"/>
      <point x="20" y="600" type="line"/>
      <point x="20" y="573" type="line"/>
      <point x="351" y="573" type="line" smooth="yes"/>
      <point x="427" y="573"/>
      <point x="456" y="526"/>
      <point x="471" y="477" type="curve" smooth="yes"/>
      <point x="493" y="403" type="line"/>
    </contour>
    <contour>
      <point x="356" y="0" type="line"/>
      <point x="356" y="27" type="line"/>
      <point x="20" y="27" type="line"/>
      <point x="20" y="0" type="line"/>
    </contour>
    <contour>
      <point x="430" y="294" type="line"/>
      <point x="430" y="324" type="line"/>
      <point x="160" y="324" type="line"/>
      <point x="160" y="294" type="line"/>
    </contour>
    <component base="vertical_stem_upper" xOffset="56"/>
  </outline>
</glyph>
<glyph name="G" format="1">
  <advance width="698"/>
  <unicode hex="0047"/>
  <outline>
    <contour>
      <point x="610" y="0" type="line"/>
      <point x="585" y="207" type="line"/>
      <point x="555" y="207" type="line"/>
      <point x="521" y="78"/>
      <point x="455" y="22"/>
      <point x="363" y="22" type="curve" smooth="yes"/>
      <point x="249" y="22"/>
      <point x="192" y="99"/>
      <point x="192" y="298" type="curve" smooth="yes"/>
      <point x="192" y="499"/>
      <point x="256" y="579"/>
      <point x="371" y="579" type="curve" smooth="yes"/>
      <point x="465" y="579"/>
      <point x="527" y="518"/>
      <point x="552" y="388" type="curve"/>
      <point x="583" y="388" type="line"/>
      <point x="579" y="600" type="line"/>
      <point x="485" y="581" type="line"/>
      <point x="440" y="600"/>
      <point x="390" y="610"/>
      <point x="340" y="610" type="curve" smooth="yes"/>
      <point x="188" y="610"/>
      <point x="35" y="518"/>
      <point x="35" y="302" type="curve" smooth="yes"/>
      <point x="35" y="83"/>
      <point x="191" y="-9"/>
      <point x="343" y="-9" type="curve" smooth="yes"/>
      <point x="394" y="-9"/>
      <point x="445" y="1"/>
      <point x="489" y="21" type="curve"/>
    </contour>
    <contour>
      <point x="663" y="249" type="line"/>
      <point x="663" y="276" type="line"/>
      <point x="385" y="276" type="line"/>
      <point x="385" y="249" type="line"/>
    </contour>
    <contour>
      <point x="610" y="0" type="line"/>
      <point x="610" y="276" type="line"/>
      <point x="472" y="276" type="line"/>
      <point x="472" y="30" type="line"/>
    </contour>
    <contour>
      <point x="357" y="630" type="move" name="top"/>
    </contour>
    <contour>
      <point x="349" y="0" type="move" name="bottom"/>
    </contour>
  </outline>
</glyph>
<glyph name="H" format="1">
  <advance width="712"/>
  <unicode hex="0048"/>
  <outline>
    <contour>
      <point x="550" y="294" type="line"/>
      <point x="550" y="324" type="line"/>
      <point x="160" y="324" type="line"/>
      <point x="160" y="294" type="line"/>
    </contour>
    <contour>
      <point x="303" y="0" type="line"/>
      <point x="303" y="23"/>
      <point x="298" y="27"/>
      <point x="279" y="27" type="curve" smooth="yes"/>
      <point x="25" y="27" type="line"/>
      <point x="25" y="0" type="line"/>
    </contour>
    <contour>
      <point x="687" y="0" type="line"/>
      <point x="687" y="23"/>
      <point x="682" y="27"/>
      <point x="663" y="27" type="curve" smooth="yes"/>
      <point x="409" y="27" type="line"/>
      <point x="409" y="0" type="line"/>
    </contour>
    <contour>
      <point x="303" y="573" type="line"/>
      <point x="303" y="600" type="line"/>
      <point x="25" y="600" type="line"/>
      <point x="25" y="573" type="line"/>
    </contour>
    <contour>
      <point x="687" y="573" type="line"/>
      <point x="687" y="600" type="line"/>
      <point x="409" y="600" type="line"/>
      <point x="409" y="573" type="line"/>
    </contour>
    <component base="vertical_stem_upper" xOffset="51"/>
    <component base="vertical_stem_upper" xOffset="445"/>
  </outline>
</glyph>
<glyph name="J" format="1">
  <advance width="404"/>
  <unicode hex="004A"/>
  <outline>
    <contour>
      <point x="389" y="573" type="line"/>
      <point x="389" y="600" type="line"/>
      <point x="101" y="600" type="line"/>
      <point x="101" y="573" type="line"/>
    </contour>
    <contour>
      <point x="186" y="600" type="line"/>
      <point x="186" y="193" type="line" smooth="yes"/>
      <point x="186" y="55"/>
      <point x="175" y="6"/>
      <point x="128" y="6" type="curve" smooth="yes"/>
      <point x="58" y="6"/>
      <point x="110" y="114"/>
      <point x="28" y="114" type="curve" smooth="yes"/>
      <point x="-5" y="114"/>
      <point x="-25" y="89"/>
      <point x="-25" y="61" type="curve" smooth="yes"/>
      <point x="-25" y="10"/>
      <point x="36" y="-19"/>
      <point x="107" y="-19" type="curve" smooth="yes"/>
      <point x="230" y="-19"/>
      <point x="326" y="39"/>
      <point x="326" y="176" type="curve" smooth="yes"/>
      <point x="326" y="600" type="line"/>
    </contour>
  </outline>
</glyph>
<glyph name="R" format="1">
  <advance width="617"/>
  <unicode hex="0052"/>
  <outline>
    <contour>
      <point x="554" y="443" type="curve" smooth="yes"/>
      <point x="554" y="523"/>
      <point x="482" y="600"/>
      <point x="352" y="600" type="curve" smooth="yes"/>
      <point x="20" y="600" type="line"/>
      <point x="20" y="573" type="line"/>
      <point x="292" y="573" type="line" smooth="yes"/>
      <point x="374" y="573"/>
      <point x="404" y="505"/>
      <point x="404" y="438" type="curve" smooth="yes"/>
      <point x="404" y="371"/>
      <point x="375" y="304"/>
      <point x="300" y="304" type="curve"/>
      <point x="320" y="274" type="line"/>
      <point x="479" y="274"/>
      <point x="554" y="350"/>
    </contour>
    <contour>
      <point x="326" y="0" type="line"/>
      <point x="326" y="27" type="line"/>
      <point x="20" y="27" type="line"/>
      <point x="20" y="0" type="line"/>
    </contour>
    <contour>
      <point x="320" y="274" type="line"/>
      <point x="300" y="304" type="line"/>
      <point x="138" y="304" type="line"/>
      <point x="138" y="274" type="line"/>
    </contour>
    <contour>
      <point x="277" y="286" type="line"/>
      <point x="436" y="-1" type="line"/>
      <point x="612" y="0" type="line"/>
      <point x="612" y="23"/>
      <point x="607" y="26"/>
      <point x="588" y="26" type="curve" smooth="yes"/>
      <point x="573" y="26" type="line"/>
      <point x="405" y="309" type="line"/>
    </contour>
    <component base="vertical_stem_upper" xOffset="56"/>
    <contour>
      <point x="302" y="630" type="move" name="top"/>
    </contour>
    <contour>
      <point x="327" y="0" type="move" name="bottom"/>
    </contour>
  </outline>
</glyph>
<glyph name="V" format="1">
  <advance width="615"/>
  <unicode hex="0056"/>
  <outline>
    <contour>
      <point x="347" y="-5" type="line"/>
      <point x="556" y="573" type="line"/>
      <point x="516" y="573" type="line"/>
      <point x="355" y="122" type="line"/>
      <point x="376" y="122" type="line"/>
      <point x="183" y="600" type="line"/>
      <point x="43" y="600" type="line"/>
      <point x="252" y="77" type="line" smooth="yes"/>
      <point x="281" y="4"/>
      <point x="286" y="-5"/>
      <point x="326" y="-5" type="curve" smooth="yes"/>
    </contour>
    <contour>
      <point x="274" y="573" type="line"/>
      <point x="274" y="600" type="line"/>
      <point x="3" y="600" type="line"/>
      <point x="3" y="573" type="line"/>
    </contour>
    <contour>
      <point x="615" y="573" type="line"/>
      <point x="615" y="600" type="line"/>
      <point x="446" y="600" type="line"/>
      <point x="446" y="573" type="line"/>
    </contour>
  </outline>
</glyph>
<glyph name="Z" format="1">
  <advance width="572"/>
  <unicode hex="005A"/>
  <outline>
    <contour>
      <point x="176" y="27" type="line"/>
      <point x="526" y="578" type="line"/>
      <point x="383" y="574" type="line"/>
      <point x="25" y="22" type="line"/>
    </contour>
    <contour>
      <point x="530" y="0" type="line"/>
      <point x="530" y="27" type="line"/>
      <point x="175" y="27" type="line"/>
      <point x="25" y="22" type="line"/>
      <point x="25" y="0" type="line"/>
    </contour>
    <contour>
      <point x="532" y="207" type="line"/>
      <point x="501" y="207" type="line"/>
      <point x="472" y="111" type="line" smooth="yes"/>
      <point x="459" y="67"/>
      <point x="435" y="27"/>
      <point x="374" y="27" type="curve"/>
      <point x="530" y="0" type="line"/>
    </contour>
    <contour>
      <point x="96" y="419" type="line"/>
      <point x="138" y="509" type="line" smooth="yes"/>
      <point x="157" y="549"/>
      <point x="182" y="573"/>
      <point x="219" y="573" type="curve"/>
      <point x="75" y="600" type="line"/>
      <point x="66" y="419" type="line"/>
    </contour>
    <contour>
      <point x="383" y="574" type="line"/>
      <point x="526" y="578" type="line"/>
      <point x="526" y="600" type="line"/>
      <point x="73" y="600" type="line"/>
      <point x="73" y="573" type="line"/>
    </contour>
    <contour>
      <point x="316" y="630" type="move" name="top"/>
    </contour>
  </outline>
</glyph>
<glyph name="c" format="1">
  <advance width="455"/>
  <unicode hex="0063"/>
  <outline>
    <contour>
      <point x="28" y="216" type="curve" smooth="yes"/>
      <point x="28" y="60"/>
      <point x="132" y="-10"/>
      <point x="258" y="-10" type="curve" smooth="yes"/>
      <point x="341" y="-10"/>
      <point x="420" y="25"/>
      <point x="447" y="101" type="curve"/>
      <point x="422" y="108" type="line"/>
      <point x="399" y="61"/>
      <point x="343" y="18"/>
      <point x="274" y="18" type="curve" smooth="yes"/>
      <point x="206" y="18"/>
      <point x="165" y="56"/>
      <point x="165" y="211" type="curve" smooth="yes"/>
      <point x="165" y="367"/>
      <point x="194" y="420"/>
      <point x="256" y="420" type="curve" smooth="yes"/>
      <point x="357" y="420"/>
      <point x="272" y="283"/>
      <point x="377" y="283" type="curve" smooth="yes"/>
      <point x="420" y="283"/>
      <point x="442" y="308"/>
      <point x="442" y="337" type="curve" smooth="yes"/>
      <point x="442" y="384"/>
      <point x="382" y="445"/>
      <point x="259" y="445" type="curve" smooth="yes"/>
      <point x="147" y="445"/>
      <point x="28" y="375"/>
    </contour>
    <contour>
      <point x="248" y="500" type="move" name="top"/>
    </contour>
    <contour>
      <point x="246" y="0" type="move" name="bottom"/>
    </contour>
  </outline>
</glyph>
<glyph name="i" format="1">
  <advance width="283"/>
  <unicode hex="0069"/>
  <outline>
    <contour>
      <point x="244" y="26" type="curve" smooth="yes"/>
      <point x="207" y="26" type="line"/>
      <point x="207" y="430" type="line"/>
      <point x="22" y="430" type="line"/>
      <point x="22" y="404" type="line"/>
      <point x="80" y="404" type="line"/>
      <point x="80" y="78" type="line" smooth="yes"/>
      <point x="80" y="36"/>
      <point x="60" y="26"/>
      <point x="22" y="26" type="curve"/>
      <point x="22" y="0" type="line"/>
      <point x="268" y="0" type="line"/>
      <point x="268" y="22"/>
      <point x="263" y="26"/>
    </contour>
    <contour>
      <point x="216" y="561" type="curve" smooth="yes"/>
      <point x="216" y="602"/>
      <point x="182" y="636"/>
      <point x="141" y="636" type="curve" smooth="yes"/>
      <point x="100" y="636"/>
      <point x="67" y="602"/>
      <point x="67" y="561" type="curve" smooth="yes"/>
      <point x="67" y="520"/>
      <point x="100" y="488"/>
      <point x="141" y="488" type="curve" smooth="yes"/>
      <point x="182" y="488"/>
      <point x="216" y="520"/>
    </contour>
  </outline>
</glyph>
<glyph name="l" format="1">
  <advance width="314"/>
  <unicode hex="006C"/>
  <outline>
    <contour>
      <point x="275" y="26" type="curve" smooth="yes"/>
      <point x="225" y="26" type="line"/>
      <point x="225" y="650" type="line"/>
      <point x="20" y="650" type="line"/>
      <point x="20" y="624" type="line"/>
      <point x="98" y="624" type="line"/>
      <point x="98" y="80" type="line" smooth="yes"/>
      <point x="98" y="35"/>
      <point x="75" y="26"/>
      <point x="20" y="26" type="curve"/>
      <point x="20" y="0" type="line"/>
      <point x="299" y="0" type="line"/>
      <point x="299" y="22"/>
      <point x="294" y="26"/>
    </contour>
  </outline>
</glyph>
<glyph name="p" format="1">
  <advance width="562"/>
  <unicode hex="0070"/>
  <outline>
    <contour>
      <point x="206" y="-164" type="line"/>
      <point x="206" y="36" type="line"/>
      <point x="230" y="5"/>
      <point x="278" y="-10"/>
      <point x="325" y="-10" type="curve" smooth="yes"/>
      <point x="435" y="-10"/>
      <point x="534" y="74"/>
      <point x="534" y="230" type="curve" smooth="yes"/>
      <point x="534" y="363"/>
      <point x="462" y="445"/>
      <point x="364" y="445" type="curve" smooth="yes"/>
      <point x="295" y="445"/>
      <point x="228" y="404"/>
      <point x="204" y="334" type="curve"/>
      <point x="199" y="430" type="line"/>
      <point x="22" y="430" type="line"/>
      <point x="22" y="404" type="line"/>
      <point x="79" y="404" type="line"/>
      <point x="79" y="-112" type="line" smooth="yes"/>
      <point x="79" y="-152"/>
      <point x="62" y="-164"/>
      <point x="22" y="-164" type="curve"/>
      <point x="22" y="-190" type="line"/>
      <point x="282" y="-190" type="line"/>
      <point x="282" y="-168"/>
      <point x="277" y="-164"/>
      <point x="257" y="-164" type="curve"/>
    </contour>
    <contour>
      <point x="311" y="397" type="curve" smooth="yes"/>
      <point x="371" y="397"/>
      <point x="397" y="331"/>
      <point x="397" y="215" type="curve" smooth="yes"/>
      <point x="397" y="88"/>
      <point x="366" y="17"/>
      <point x="304" y="17" type="curve" smooth="yes"/>
      <point x="255" y="17"/>
      <point x="205" y="68"/>
      <point x="205" y="196" type="curve" smooth="yes"/>
      <point x="205" y="316"/>
      <point x="250" y="397"/>
    </contour>
  </outline>
</glyph>
<glyph name="s" format="1">
  <advance width="419"/>
  <unicode hex="0073"/>
  <outline>
    <contour>
      <point x="196" y="18" type="curve" smooth="yes"/>
      <point x="255" y="18"/>
      <point x="274" y="45"/>
      <point x="274" y="75" type="curve" smooth="yes"/>
      <point x="274" y="197"/>
      <point x="40" y="170"/>
      <point x="40" y="317" type="curve" smooth="yes"/>
      <point x="40" y="405"/>
      <point x="123" y="445"/>
      <point x="220" y="445" type="curve" smooth="yes"/>
      <point x="268" y="445"/>
      <point x="314" y="435"/>
      <point x="342" y="417" type="curve"/>
      <point x="342" y="442"/>
      <point x="348" y="451"/>
      <point x="368" y="451" type="curve"/>
      <point x="368" y="326" type="line"/>
      <point x="330" y="326" type="line"/>
      <point x="329" y="346" type="line"/>
      <point x="329" y="394"/>
      <point x="281" y="418"/>
      <point x="237" y="418" type="curve" smooth="yes"/>
      <point x="193" y="418"/>
      <point x="155" y="399"/>
      <point x="155" y="356" type="curve" smooth="yes"/>
      <point x="155" y="250"/>
      <point x="389" y="278"/>
      <point x="389" y="119" type="curve" smooth="yes"/>
      <point x="389" y="37"/>
      <point x="328" y="-10"/>
      <point x="216" y="-10" type="curve" smooth="yes"/>
      <point x="167" y="-10"/>
      <point x="111" y="-1"/>
      <point x="68" y="21" type="curve"/>
      <point x="68" y="-5"/>
      <point x="63" y="-10"/>
      <point x="41" y="-10" type="curve"/>
      <point x="41" y="142" type="line"/>
      <point x="81" y="142" type="line"/>
      <point x="81" y="128" type="line"/>
      <point x="81" y="35"/>
      <point x="149" y="18"/>
    </contour>
    <contour>
      <point x="210" y="500" type="move" name="top"/>
    </contour>
    <contour>
      <point x="210" y="0" type="move" name="bottom"/>
    </contour>
  </outline>
</glyph>
<glyph name="u" format="1">
  <advance width="562"/>
  <unicode hex="0075"/>
  <outline>
    <contour>
      <point x="15" y="404" type="line"/>
      <point x="73" y="404" type="line"/>
      <point x="73" y="153" type="line" smooth="yes"/>
      <point x="73" y="34"/>
      <point x="129" y="-10"/>
      <point x="216" y="-10" type="curve" smooth="yes"/>
      <point x="287" y="-10"/>
      <point x="337" y="32"/>
      <point x="362" y="89" type="curve"/>
      <point x="357" y="173" type="line"/>
      <point x="357" y="86"/>
      <point x="311" y="42"/>
      <point x="269" y="42" type="curve" smooth="yes"/>
      <point x="230" y="42"/>
      <point x="200" y="69"/>
      <point x="200" y="136" type="curve" smooth="yes"/>
      <point x="200" y="430" type="line"/>
      <point x="15" y="430" type="line"/>
    </contour>
    <contour>
      <point x="308" y="404" type="line"/>
      <point x="357" y="404" type="line"/>
      <point x="356" y="125" type="line"/>
      <point x="364" y="0" type="line"/>
      <point x="542" y="0" type="line"/>
      <point x="542" y="23"/>
      <point x="537" y="26"/>
      <point x="518" y="26" type="curve" smooth="yes"/>
      <point x="484" y="26" type="line"/>
      <point x="484" y="430" type="line"/>
      <point x="308" y="430" type="line"/>
    </contour>
    <contour>
      <point x="542" y="9" type="move" name="ogonek"/>
    </contour>
    <contour>
      <point x="284" y="500" type="move" name="top"/>
    </contour>
  </outline>
</glyph>
<glyph name="v" format="1">
  <advance width="475"/>
  <unicode hex="0076"/>
  <outline>
    <contour>
      <point x="233" y="405" type="line"/>
      <point x="233" y="430" type="line"/>
      <point x="2" y="430" type="line"/>
      <point x="2" y="405" type="line"/>
      <point x="41" y="405" type="line"/>
      <point x="167" y="68" type="line" smooth="yes"/>
      <point x="191" y="5"/>
      <point x="197" y="-5"/>
      <point x="234" y="-5" type="curve" smooth="yes"/>
      <point x="270" y="-5" type="line"/>
      <point x="415" y="376" type="line" smooth="yes"/>
      <point x="424" y="399"/>
      <point x="432" y="405"/>
      <point x="453" y="405" type="curve" smooth="yes"/>
      <point x="471" y="405"/>
      <point x="473" y="400"/>
      <point x="473" y="430" type="curve"/>
      <point x="311" y="430" type="line"/>
      <point x="311" y="405" type="line"/>
      <point x="393" y="405" type="line"/>
      <point x="265" y="77" type="line"/>
      <point x="283" y="77" type="line"/>
      <point x="163" y="405" type="line"/>
    </contour>
  </outline>
</glyph>
<glyph name="bar" format="1">
  <advance width="256"/>
  <unicode hex="007C"/>
  <outline>
    <contour>
      <point x="0" y="-254" type="line"/>
      <point x="256" y="-254" type="line"/>
      <point x="256" y="746" type="line"/>
      <point x="0" y="746" type="line"/>
    </contour>
  </outline>
</glyph>
<glyph name="dieresis" format="1">
  <advance width="500"/>
  <unicode hex="00A8"/>
  <outline>
    <contour>
      <point x="224" y="569" type="curve" smooth="yes"/>
      <point x="224" y="607"/>
      <point x="193" y="637"/>
      <point x="157" y="637" type="curve" smooth="yes"/>
      <point x="119" y="637"/>
      <point x="89" y="607"/>
      <point x="89" y="569" type="curve" smooth="yes"/>
      <point x="89" y="532"/>
      <point x="119" y="503"/>
      <point x="157" y="503" type="curve" smooth="yes"/>
      <point x="193" y="503"/>
      <point x="224" y="532"/>
    </contour>
    <contour>
      <point x="411" y="569" type="curve" smooth="yes"/>
      <point x="411" y="607"/>
      <point x="380" y="637"/>
      <point x="342" y="637" type="curve" smooth="yes"/>
      <point x="306" y="637"/>
      <point x="276" y="607"/>
      <point x="276" y="569" type="curve" smooth="yes"/>
      <point x="276" y="532"/>
      <point x="306" y="503"/>
      <point x="342" y="503" type="curve" smooth="yes"/>
      <point x="380" y="503"/>
      <point x="411" y="532"/>
    </contour>
    <contour>
      <point x="251" y="502" type="move" name="_top"/>
    </contour>
  </outline>
</glyph>
<glyph name="AE" format="1">
  <advance width="888"/>
  <unicode hex="00C6"/>
  <outline>
    <contour>
      <point x="503" y="233" type="line"/>
      <point x="493" y="263" type="line"/>
      <point x="223" y="263" type="line"/>
      <point x="213" y="233" type="line"/>
    </contour>
    <contour>
      <point x="863" y="403" type="line"/>
      <point x="859" y="600" type="line"/>
      <point x="417" y="600" type="line"/>
      <point x="417" y="573" type="line"/>
      <point x="692" y="573" type="line" smooth="yes"/>
      <point x="768" y="573"/>
      <point x="797" y="526"/>
      <point x="812" y="477" type="curve" smooth="yes"/>
      <point x="834" y="403" type="line"/>
    </contour>
    <contour>
      <point x="859" y="0" type="line"/>
      <point x="863" y="197" type="line"/>
      <point x="834" y="197" type="line"/>
      <point x="811" y="123" type="line" smooth="yes"/>
      <point x="796" y="76"/>
      <point x="768" y="27"/>
      <point x="692" y="27" type="curve" smooth="yes"/>
      <point x="361" y="27" type="line"/>
      <point x="361" y="0" type="line"/>
    </contour>
    <contour>
      <point x="771" y="294" type="line"/>
      <point x="771" y="324" type="line"/>
      <point x="504" y="324" type="line"/>
      <point x="504" y="294" type="line"/>
    </contour>
    <contour>
      <point x="191" y="0" type="line"/>
      <point x="191" y="22"/>
      <point x="186" y="26"/>
      <point x="167" y="26" type="curve" smooth="yes"/>
      <point x="110" y="26" type="line"/>
      <point x="459" y="600" type="line"/>
      <point x="417" y="600" type="line"/>
      <point x="65" y="26" type="line"/>
      <point x="5" y="26" type="line"/>
      <point x="5" y="0" type="line"/>
    </contour>
    <component base="vertical_stem_upper" xOffset="400"/>
    <contour>
      <point x="640" y="630" type="move" name="top"/>
    </contour>
  </outline>
</glyph>
<glyph name="idieresis" format="1">
  <advance width="283"/>
  <unicode hex="00EF"/>
  <outline>
    <contour>
      <point x="121" y="567" type="curve" smooth="yes"/>
      <point x="121" y="603"/>
      <point x="91" y="632"/>
      <point x="57" y="632" type="curve" smooth="yes"/>
      <point x="21" y="632"/>
      <point x="-8" y="603"/>
      <point x="-8" y="567" type="curve" smooth="yes"/>
      <point x="-8" y="532"/>
      <point x="21" y="504"/>
      <point x="57" y="504" type="curve" smooth="yes"/>
      <point x="91" y="504"/>
      <point x="121" y="532"/>
    </contour>
    <contour>
      <point x="290" y="567" type="curve" smooth="yes"/>
      <point x="290" y="603"/>
      <point x="260" y="632"/>
      <point x="224" y="632" type="curve" smooth="yes"/>
      <point x="190" y="632"/>
      <point x="161" y="603"/>
      <point x="161" y="567" type="curve" smooth="yes"/>
      <point x="161" y="532"/>
      <point x="190" y="504"/>
      <point x="224" y="504" type="curve" smooth="yes"/>
      <point x="260" y="504"/>
      <point x="290" y="532"/>
    </contour>
    <component base="dotlessi"/>
  </outline>
</glyph>
<glyph name="eth" format="1">
  <advance width="600"/>
  <unicode hex="00F0"/>
  <outline>
    <contour>
      <point x="490" y="244" type="curve" smooth="yes"/>
      <point x="490" y="426"/>
      <point x="367" y="640"/>
      <point x="116" y="650" type="curve"/>
      <point x="113" y="623" type="line"/>
      <point x="307" y="605"/>
      <point x="331" y="468"/>
      <point x="351" y="340" type="curve"/>
      <point x="405" y="341" type="line"/>
      <point x="368" y="385"/>
      <point x="313" y="405"/>
      <point x="256" y="405" type="curve" smooth="yes"/>
      <point x="140" y="405"/>
      <point x="30" y="329"/>
      <point x="30" y="201" type="curve" smooth="yes"/>
      <point x="30" y="83"/>
      <point x="121" y="-11"/>
      <point x="256" y="-11" type="curve" smooth="yes"/>
      <point x="415" y="-11"/>
      <point x="490" y="107"/>
    </contour>
    <contour>
      <point x="167" y="197" type="curve" smooth="yes"/>
      <point x="167" y="320"/>
      <point x="183" y="380"/>
      <point x="260" y="380" type="curve" smooth="yes"/>
      <point x="340" y="380"/>
      <point x="354" y="320"/>
      <point x="354" y="201" type="curve" smooth="yes"/>
      <point x="354" y="78"/>
      <point x="336" y="14"/>
      <point x="259" y="14" type="curve" smooth="yes"/>
      <point x="179" y="14"/>
      <point x="167" y="77"/>
    </contour>
    <contour>
      <point x="411" y="627" type="line"/>
      <point x="396" y="653" type="line"/>
      <point x="130" y="504" type="line"/>
      <point x="146" y="476" type="line"/>
    </contour>
  </outline>
</glyph>
<glyph name="thorn" format="1">
  <advance width="560"/>
  <unicode hex="00FE"/>
  <outline>
    <contour>
      <point x="204" y="-164" type="line"/>
      <point x="204" y="36" type="line"/>
      <point x="228" y="5"/>
      <point x="276" y="-10"/>
      <point x="323" y="-10" type="curve" smooth="yes"/>
      <point x="433" y="-10"/>
      <point x="532" y="74"/>
      <point x="532" y="230" type="curve" smooth="yes"/>
      <point x="532" y="363"/>
      <point x="460" y="445"/>
      <point x="362" y="445" type="curve" smooth="yes"/>
      <point x="293" y="445"/>
      <point x="226" y="404"/>
      <point x="202" y="334" type="curve"/>
      <point x="202" y="650" type="line"/>
      <point x="20" y="650" type="line"/>
      <point x="20" y="624" type="line"/>
      <point x="77" y="624" type="line"/>
      <point x="77" y="-112" type="line" smooth="yes"/>
      <point x="77" y="-152"/>
      <point x="60" y="-164"/>
      <point x="20" y="-164" type="curve"/>
      <point x="20" y="-190" type="line"/>
      <point x="280" y="-190" type="line"/>
      <point x="280" y="-168"/>
      <point x="275" y="-164"/>
      <point x="255" y="-164" type="curve"/>
    </contour>
    <contour>
      <point x="309" y="397" type="curve" smooth="yes"/>
      <point x="369" y="397"/>
      <point x="395" y="331"/>
      <point x="395" y="215" type="curve" smooth="yes"/>
      <point x="395" y="88"/>
      <point x="364" y="17"/>
      <point x="302" y="17" type="curve" smooth="yes"/>
      <point x="253" y="17"/>
      <point x="203" y="68"/>
      <point x="203" y="196" type="curve" smooth="yes"/>
      <point x="203" y="316"/>
      <point x="248" y="397"/>
    </contour>
  </outline>
</glyph>
<glyph name="OE" format="1">
  <advance width="903"/>
  <unicode hex="0152"/>
  <outline>
    <contour>
      <point x="786" y="294" type="line"/>
      <point x="786" y="324" type="line"/>
      <point x="516" y="324" type="line"/>
      <point x="516" y="294" type="line"/>
    </contour>
    <contour>
      <point x="356" y="21" type="curve" smooth="yes"/>
      <point x="224" y="21"/>
      <point x="192" y="133"/>
      <point x="192" y="298" type="curve" smooth="yes"/>
      <point x="192" y="468"/>
      <point x="226" y="579"/>
      <point x="372" y="579" type="curve" smooth="yes"/>
      <point x="401" y="579"/>
      <point x="431" y="574"/>
      <point x="456" y="563" type="curve"/>
      <point x="525" y="573" type="line"/>
      <point x="702" y="573" type="line" smooth="yes"/>
      <point x="778" y="573"/>
      <point x="804" y="526"/>
      <point x="822" y="477" type="curve" smooth="yes"/>
      <point x="849" y="403" type="line"/>
      <point x="878" y="403" type="line"/>
      <point x="874" y="600" type="line"/>
      <point x="496" y="600" type="line" smooth="yes"/>
      <point x="464" y="600"/>
      <point x="388" y="605"/>
      <point x="355" y="605" type="curve" smooth="yes"/>
      <point x="190" y="605"/>
      <point x="35" y="497"/>
      <point x="35" y="302" type="curve" smooth="yes"/>
      <point x="35" y="102"/>
      <point x="187" y="-5"/>
      <point x="352" y="-5" type="curve" smooth="yes"/>
      <point x="391" y="-5"/>
      <point x="464" y="0"/>
      <point x="486" y="0" type="curve" smooth="yes"/>
      <point x="874" y="0" type="line"/>
      <point x="878" y="197" type="line"/>
      <point x="849" y="197" type="line"/>
      <point x="821" y="123" type="line" smooth="yes"/>
      <point x="803" y="76"/>
      <point x="778" y="27"/>
      <point x="702" y="27" type="curve" smooth="yes"/>
      <point x="521" y="27" type="line"/>
      <point x="458" y="40" type="line"/>
      <point x="422" y="24"/>
      <point x="388" y="21"/>
    </contour>
    <component base="vertical_stem_upper" xOffset="414"/>
    <contour>
      <point x="290" y="630" type="move" name="top"/>
    </contour>
  </outline>
</glyph>
<glyph name="caron" format="1">
  <advance width="500"/>
  <unicode hex="02C7"/>
  <outline>
    <contour>
      <point x="234" y="591" type="curve"/>
      <point x="267" y="591" type="line"/>
      <point x="236" y="603"/>
      <point x="177" y="625"/>
      <point x="114" y="660" type="curve"/>
      <point x="99" y="640" type="line"/>
      <point x="187" y="552"/>
      <point x="201" y="501"/>
      <point x="251" y="501" type="curve" smooth="yes"/>
      <point x="300" y="501"/>
      <point x="317" y="552"/>
      <point x="401" y="640" type="curve"/>
      <point x="386" y="660" type="line"/>
      <point x="329" y="628"/>
      <point x="265" y="602"/>
    </contour>
    <contour>
      <point x="250" y="500" type="move" name="_top"/>
    </contour>
  </outline>
</glyph>
<glyph name="tilde" format="1">
  <advance width="500"/>
  <unicode hex="02DC"/>
  <outline>
    <contour>
      <point x="196" y="652" type="curve" smooth="yes"/>
      <point x="253" y="652"/>
      <point x="298" y="590"/>
      <point x="345" y="590" type="curve" smooth="yes"/>
      <point x="375" y="590"/>
      <point x="392" y="613"/>
      <point x="400" y="645" type="curve"/>
      <point x="421" y="642" type="line"/>
      <point x="415" y="563"/>
      <point x="378" y="512"/>
      <point x="326" y="512" type="curve" smooth="yes"/>
      <point x="269" y="512"/>
      <point x="224" y="574"/>
      <point x="180" y="574" type="curve" smooth="yes"/>
      <point x="147" y="574"/>
      <point x="130" y="551"/>
      <point x="122" y="519" type="curve"/>
      <point x="102" y="522" type="line"/>
      <point x="108" y="601"/>
      <point x="144" y="652"/>
    </contour>
    <contour>
      <point x="257" y="500" type="move" name="_top"/>
    </contour>
  </outline>
</glyph>
<glyph name="uni0D83" format="1">
  <advance width="248"/>
  <unicode hex="0D83"/>
  <outline>
    <contour>
      <point x="63" y="111" type="curve" smooth="yes"/>
      <point x="63" y="82"/>
      <point x="86" y="59"/>
      <point x="115" y="59" type="curve" smooth="yes"/>
      <point x="144" y="59"/>
      <point x="167" y="82"/>
      <point x="167" y="111" type="curve" smooth="yes"/>
      <point x="167" y="140"/>
      <point x="144" y="163"/>
      <point x="115" y="163" type="curve" smooth="yes"/>
      <point x="86" y="163"/>
      <point x="63" y="140"/>
    </contour>
    <contour>
      <point x="31" y="110" type="curve" smooth="yes"/>
      <point x="31" y="156"/>
      <point x="69" y="194"/>
      <point x="115" y="194" type="curve" smooth="yes"/>
      <point x="161" y="194"/>
      <point x="199" y="156"/>
      <point x="199" y="110" type="curve" smooth="yes"/>
      <point x="199" y="64"/>
      <point x="161" y="26"/>
      <point x="115" y="26" type="curve" smooth="yes"/>
      <point x="69" y="26"/>
      <point x="31" y="64"/>
    </contour>
    <contour>
      <point x="63" y="313" type="curve" smooth="yes"/>
      <point x="63" y="284"/>
      <point x="86" y="261"/>
      <point x="115" y="261" type="curve" smooth="yes"/>
      <point x="144" y="261"/>
      <point x="167" y="284"/>
      <point x="167" y="313" type="curve" smooth="yes"/>
      <point x="167" y="342"/>
      <point x="144" y="365"/>
      <point x="115" y="365" type="curve" smooth="yes"/>
      <point x="86" y="365"/>
      <point x="63" y="342"/>
    </contour>
    <contour>
      <point x="31" y="312" type="curve" smooth="yes"/>
      <point x="31" y="358"/>
      <point x="69" y="396"/>
      <point x="115" y="396" type="curve" smooth="yes"/>
      <point x="161" y="396"/>
      <point x="199" y="358"/>
      <point x="199" y="312" type="curve" smooth="yes"/>
      <point x="199" y="266"/>
      <point x="161" y="228"/>
      <point x="115" y="228" type="curve" smooth="yes"/>
      <point x="69" y="228"/>
      <point x="31" y="266"/>
    </contour>
  </outline>
</glyph>
<glyph name="uni0D85" format="1">
  <advance width="573"/>
  <unicode hex="0D85"/>
  <outline>
    <contour>
      <point x="384" y="203" type="curve"/>
      <point x="384" y="235" type="line"/>
      <point x="391" y="232"/>
      <point x="396" y="231"/>
      <point x="407" y="231" type="curve" smooth="yes"/>
      <point x="434" y="231"/>
      <point x="452" y="256"/>
      <point x="452" y="291" type="curve" smooth="yes"/>
      <point x="452" y="314"/>
      <point x="447" y="329"/>
      <point x="435" y="346" type="curve" smooth="yes"/>
      <point x="424" y="362"/>
      <point x="419" y="376"/>
      <point x="419" y="393" type="curve" smooth="yes"/>
      <point x="419" y="395"/>
      <point x="420" y="401"/>
      <point x="420" y="403" type="curve"/>
      <point x="438" y="418" type="line" smooth="yes"/>
      <point x="457" y="421" type="line"/>
      <point x="451" y="418"/>
      <point x="445" y="414"/>
      <point x="445" y="403" type="curve" smooth="yes"/>
      <point x="445" y="369"/>
      <point x="529" y="359"/>
      <point x="529" y="281" type="curve" smooth="yes"/>
      <point x="529" y="225"/>
      <point x="481" y="198"/>
      <point x="430" y="198" type="curve" smooth="yes"/>
      <point x="411" y="198"/>
      <point x="397" y="200"/>
    </contour>
    <contour>
      <point x="356" y="-215" type="line"/>
      <point x="356" y="-39"/>
      <point x="356" y="137"/>
      <point x="356" y="313" type="curve" smooth="yes"/>
      <point x="356" y="350"/>
      <point x="364" y="378"/>
      <point x="383" y="400" type="curve" smooth="yes"/>
      <point x="398" y="418"/>
      <point x="419" y="430"/>
      <point x="439" y="435" type="curve"/>
      <point x="464" y="424" type="line"/>
      <point x="393" y="394"/>
      <point x="388" y="350"/>
      <point x="388" y="311" type="curve" smooth="yes"/>
      <point x="388" y="-215" type="line"/>
    </contour>
    <contour>
      <point x="33" y="160" type="curve" smooth="yes"/>
      <point x="33" y="248"/>
      <point x="94" y="309"/>
      <point x="202" y="309" type="curve" smooth="yes"/>
      <point x="311" y="309" type="line"/>
      <point x="310" y="348"/>
      <point x="284" y="387"/>
      <point x="244" y="387" type="curve" smooth="yes"/>
      <point x="211" y="387"/>
      <point x="203" y="370"/>
      <point x="197" y="358" type="curve" smooth="yes"/>
      <point x="190" y="344"/>
      <point x="176" y="328"/>
      <point x="148" y="328" type="curve" smooth="yes"/>
      <point x="126" y="328"/>
      <point x="106" y="345"/>
      <point x="106" y="369" type="curve" smooth="yes"/>
      <point x="106" y="410"/>
      <point x="154" y="433"/>
      <point x="211" y="433" type="curve" smooth="yes"/>
      <point x="295" y="433"/>
      <point x="344" y="382"/>
      <point x="344" y="290" type="curve" smooth="yes"/>
      <point x="344" y="289"/>
      <point x="344" y="286"/>
      <point x="344" y="285" type="curve"/>
      <point x="309" y="285" type="line" smooth="yes"/>
      <point x="201" y="285"/>
      <point x="187" y="200"/>
      <point x="187" y="164" type="curve" smooth="yes"/>
      <point x="187" y="88"/>
      <point x="242" y="35"/>
      <point x="335" y="35" type="curve" smooth="yes"/>
      <point x="418" y="35"/>
      <point x="480" y="52"/>
      <point x="523" y="85" type="curve"/>
      <point x="523" y="51" type="line"/>
      <point x="472" y="17"/>
      <point x="386" y="-4"/>
      <point x="282" y="-4" type="curve" smooth="yes"/>
      <point x="118" y="-4"/>
      <point x="33" y="62"/>
    </contour>
  </outline>
</glyph>
<glyph name="si_vocalicLL" format="1">
  <advance width="1203"/>
  <unicode hex="0D90"/>
  <outline>
    <contour>
      <point x="796" y="321" type="curve" smooth="yes"/>
      <point x="796" y="369.667"/>
      <point x="812" y="404"/>
      <point x="833" y="428" type="curve"/>
      <point x="869.25" y="428" type="line"/>
      <point x="847.25" y="410"/>
      <point x="826.75" y="374.667"/>
      <point x="826.75" y="322" type="curve" smooth="yes"/>
      <point x="826.75" y="276.29"/>
      <point x="848.36" y="246.5"/>
      <point x="879.5" y="246.5" type="curve" smooth="yes"/>
      <point x="903.389" y="246.5"/>
      <point x="919" y="261.458"/>
      <point x="919" y="290" type="curve" smooth="yes"/>
      <point x="919" y="307.333"/>
      <point x="912.333" y="323"/>
      <point x="899" y="337" type="curve"/>
      <point x="898.434" y="342.207"/>
      <point x="898.139" y="344.207"/>
      <point x="898.139" y="349" type="curve" smooth="yes"/>
      <point x="898.139" y="398"/>
      <point x="937.82" y="432.25"/>
      <point x="998" y="432.25" type="curve" smooth="yes"/>
      <point x="1117.44" y="432.25"/>
      <point x="1156" y="315.587"/>
      <point x="1156" y="220" type="curve" smooth="yes"/>
      <point x="1156" y="101"/>
      <point x="1110.71" y="-2"/>
      <point x="996.5" y="-2" type="curve" smooth="yes"/>
      <point x="914.486" y="-2"/>
      <point x="880" y="53.9697"/>
      <point x="880" y="120" type="curve" smooth="yes"/>
      <point x="880" y="132"/>
      <point x="881.333" y="144.333"/>
      <point x="884" y="157" type="curve"/>
      <point x="911.25" y="157" type="line"/>
      <point x="909.25" y="146.333"/>
      <point x="908.25" y="135.667"/>
      <point x="908.25" y="125" type="curve" smooth="yes"/>
      <point x="908.25" y="75.6934"/>
      <point x="934.96" y="63"/>
      <point x="956" y="63" type="curve" smooth="yes"/>
      <point x="997.352" y="63"/>
      <point x="1015" y="111.574"/>
      <point x="1015" y="238" type="curve" smooth="yes"/>
      <point x="1015" y="343.736"/>
      <point x="990.1" y="389"/>
      <point x="961.5" y="389" type="curve" smooth="yes"/>
      <point x="947.153" y="389"/>
      <point x="926.861" y="381.923"/>
      <point x="926.861" y="352.5" type="curve" smooth="yes"/>
      <point x="926.861" y="350.219"/>
      <point x="926.863" y="347.885"/>
      <point x="927" y="345.5" type="curve"/>
      <point x="951" y="332.833"/>
      <point x="964" y="312"/>
      <point x="964" y="288" type="curve" smooth="yes"/>
      <point x="964" y="237.916"/>
      <point x="935.243" y="212"/>
      <point x="884.75" y="212" type="curve" smooth="yes"/>
      <point x="829.293" y="212"/>
      <point x="796" y="261.448"/>
    </contour>
    <contour>
      <point x="641.24" y="53" type="curve" smooth="yes"/>
      <point x="641.24" y="39.5547"/>
      <point x="651.805" y="28.9902"/>
      <point x="665.25" y="28.9902" type="curve" smooth="yes"/>
      <point x="678.695" y="28.9902"/>
      <point x="689.26" y="39.5547"/>
      <point x="689.26" y="53" type="curve" smooth="yes"/>
      <point x="689.26" y="66.4453"/>
      <point x="678.695" y="77.0098"/>
      <point x="665.25" y="77.0098" type="curve" smooth="yes"/>
      <point x="651.805" y="77.0098"/>
      <point x="641.24" y="66.4453"/>
    </contour>
    <contour>
      <point x="582" y="445" type="curve" smooth="yes"/>
      <point x="582" y="467.209"/>
      <point x="597.873" y="481"/>
      <point x="630" y="481" type="curve" smooth="yes"/>
      <point x="716.633" y="481"/>
      <point x="773" y="378.197"/>
      <point x="773" y="240" type="curve" smooth="yes"/>
      <point x="773" y="147.28"/>
      <point x="741.789" y="1.25"/>
      <point x="665.5" y="1.25" type="curve" smooth="yes"/>
      <point x="636.334" y="1.25"/>
      <point x="613.5" y="23.415"/>
      <point x="613.5" y="53.25" type="curve" smooth="yes"/>
      <point x="613.5" y="78.5664"/>
      <point x="632.804" y="104.75"/>
      <point x="665.5" y="104.75" type="curve" smooth="yes"/>
      <point x="682.58" y="104.75"/>
      <point x="698.824" y="98.9082"/>
      <point x="708.5" y="80" type="curve"/>
      <point x="729.152" y="115.104"/>
      <point x="739.75" y="187.75"/>
      <point x="739.75" y="239.75" type="curve" smooth="yes"/>
      <point x="739.75" y="344.396"/>
      <point x="701.53" y="449.5"/>
      <point x="633.5" y="449.5" type="curve" smooth="yes"/>
      <point x="625.361" y="449.5"/>
      <point x="615" y="447.084"/>
      <point x="615" y="432" type="curve" smooth="yes"/>
      <point x="615" y="420"/>
      <point x="619.749" y="407.359"/>
      <point x="632" y="389" type="curve"/>
      <point x="619.043" y="397.964"/>
      <point x="595.71" y="421.403"/>
      <point x="588" y="424" type="curve"/>
      <point x="582.578" y="430.529"/>
      <point x="582" y="439.667"/>
    </contour>
    <contour>
      <point x="114.74" y="53" type="curve" smooth="yes"/>
      <point x="114.74" y="39.5547"/>
      <point x="125.305" y="28.9902"/>
      <point x="138.75" y="28.9902" type="curve" smooth="yes"/>
      <point x="152.195" y="28.9902"/>
      <point x="162.76" y="39.5547"/>
      <point x="162.76" y="53" type="curve" smooth="yes"/>
      <point x="162.76" y="66.4453"/>
      <point x="152.195" y="77.0098"/>
      <point x="138.75" y="77.0098" type="curve" smooth="yes"/>
      <point x="125.305" y="77.0098"/>
      <point x="114.74" y="66.4453"/>
    </contour>
    <contour>
      <point x="31" y="240" type="curve" smooth="yes"/>
      <point x="31" y="378.197"/>
      <point x="87.3675" y="481"/>
      <point x="174" y="481" type="curve" smooth="yes"/>
      <point x="206.127" y="481"/>
      <point x="222" y="467.209"/>
      <point x="222" y="445" type="curve" smooth="yes"/>
      <point x="222" y="439.667"/>
      <point x="221.422" y="432.529"/>
      <point x="216" y="426" type="curve"/>
      <point x="208.29" y="423.403"/>
      <point x="185.707" y="412.964"/>
      <point x="172.75" y="404" type="curve"/>
      <point x="181.728" y="413.703"/>
      <point x="189.25" y="424"/>
      <point x="189.25" y="436" type="curve" smooth="yes"/>
      <point x="189.25" y="445.248"/>
      <point x="178.639" y="449.5"/>
      <point x="170.5" y="449.5" type="curve" smooth="yes"/>
      <point x="102.47" y="449.5"/>
      <point x="64.25" y="344.396"/>
      <point x="64.25" y="239.75" type="curve" smooth="yes"/>
      <point x="64.25" y="187.75"/>
      <point x="74.8479" y="115.104"/>
      <point x="95.5" y="80" type="curve"/>
      <point x="105.176" y="98.9082"/>
      <point x="121.42" y="104.75"/>
      <point x="138.5" y="104.75" type="curve" smooth="yes"/>
      <point x="171.197" y="104.75"/>
      <point x="190.5" y="78.5664"/>
      <point x="190.5" y="53.25" type="curve" smooth="yes"/>
      <point x="190.5" y="23.415"/>
      <point x="167.666" y="1.25"/>
      <point x="138.5" y="1.25" type="curve" smooth="yes"/>
      <point x="62.2109" y="1.25"/>
      <point x="31" y="147.28"/>
    </contour>
    <contour>
      <point x="132.825" y="183.555" type="curve" smooth="yes"/>
      <point x="132.825" y="274.624"/>
      <point x="200.724" y="326.928"/>
      <point x="308.494" y="326.928" type="curve" smooth="yes"/>
      <point x="321.494" y="326.928"/>
      <point x="330.702" y="326.289"/>
      <point x="343.494" y="325" type="curve"/>
      <point x="343.955" y="328.824"/>
      <point x="344.176" y="332.491"/>
      <point x="344.176" y="336" type="curve" smooth="yes"/>
      <point x="344.176" y="376"/>
      <point x="318.494" y="390.274"/>
      <point x="295.494" y="390.274" type="curve" smooth="yes"/>
      <point x="267.494" y="390.274"/>
      <point x="253.281" y="376.439"/>
      <point x="247.147" y="358" type="curve" smooth="yes"/>
      <point x="240.494" y="338"/>
      <point x="223.494" y="326.073"/>
      <point x="198.494" y="326.073" type="curve" smooth="yes"/>
      <point x="177.494" y="326.073"/>
      <point x="156.819" y="337"/>
      <point x="156.819" y="367" type="curve" smooth="yes"/>
      <point x="156.819" y="408"/>
      <point x="204.494" y="433.626"/>
      <point x="259.684" y="433.626" type="curve" smooth="yes"/>
      <point x="332.042" y="433.626"/>
      <point x="376.363" y="401"/>
      <point x="376.363" y="334" type="curve" smooth="yes"/>
      <point x="376.363" y="322.637"/>
      <point x="375.126" y="309.304"/>
      <point x="372.494" y="296" type="curve"/>
      <point x="354.675" y="298.376"/>
      <point x="319.725" y="299.718"/>
      <point x="318.494" y="299.718" type="curve" smooth="yes"/>
      <point x="245.494" y="299.718"/>
      <point x="197.494" y="274"/>
      <point x="197.494" y="231" type="curve" smooth="yes"/>
      <point x="197.494" y="158"/>
      <point x="307.494" y="140"/>
      <point x="408.494" y="140" type="curve" smooth="yes"/>
      <point x="505.494" y="140"/>
      <point x="608.494" y="166"/>
      <point x="608.494" y="239" type="curve" smooth="yes"/>
      <point x="608.494" y="276"/>
      <point x="569.494" y="301.612"/>
      <point x="495.494" y="301.612" type="curve" smooth="yes"/>
      <point x="472.313" y="301.612"/>
      <point x="448.421" y="299.169"/>
      <point x="425.494" y="295" type="curve"/>
      <point x="423.566" y="305.924"/>
      <point x="422.638" y="318.267"/>
      <point x="422.638" y="328" type="curve" smooth="yes"/>
      <point x="422.638" y="397"/>
      <point x="467.451" y="433.118"/>
      <point x="540.339" y="433.118" type="curve" smooth="yes"/>
      <point x="606.494" y="433.118"/>
      <point x="642.513" y="392.966"/>
      <point x="642.513" y="354" type="curve" smooth="yes"/>
      <point x="642.513" y="334"/>
      <point x="634.042" y="316.667"/>
      <point x="615.494" y="303" type="curve"/>
      <point x="655.826" y="279.473"/>
      <point x="675.5" y="240.743"/>
      <point x="675.5" y="186.451" type="curve" smooth="yes"/>
      <point x="675.5" y="55.5615"/>
      <point x="549.139" y="0"/>
      <point x="408.494" y="0" type="curve" smooth="yes"/>
      <point x="260.084" y="0"/>
      <point x="132.825" y="45.9199"/>
    </contour>
    <contour>
      <point x="456.679" y="336" type="curve" smooth="yes"/>
      <point x="456.679" y="332.228"/>
      <point x="456.957" y="328.864"/>
      <point x="457.494" y="325" type="curve"/>
      <point x="474.449" y="327.055"/>
      <point x="488.839" y="328.098"/>
      <point x="504.494" y="328.098" type="curve" smooth="yes"/>
      <point x="537.494" y="328.098"/>
      <point x="563.954" y="323.765"/>
      <point x="588.494" y="315" type="curve"/>
      <point x="599.826" y="325.703"/>
      <point x="603.973" y="338.485"/>
      <point x="603.973" y="351" type="curve" smooth="yes"/>
      <point x="603.973" y="380"/>
      <point x="580.494" y="402.638"/>
      <point x="533.494" y="402.638" type="curve" smooth="yes"/>
      <point x="491.494" y="402.638"/>
      <point x="456.679" y="381"/>
    </contour>
  </outline>
</glyph>
<glyph name="si_E" format="1">
  <advance width="595"/>
  <unicode hex="0D91"/>
  <outline>
    <contour>
      <point x="45" y="165" type="curve" smooth="yes"/>
      <point x="45" y="195.721"/>
      <point x="54.7754" y="227.831"/>
      <point x="78" y="248" type="curve" smooth="yes"/>
      <point x="94.127" y="262.005"/>
      <point x="113" y="273"/>
      <point x="139" y="278" type="curve"/>
      <point x="172.761" y="290.199"/>
      <point x="213.875" y="302"/>
      <point x="251" y="302" type="curve" smooth="yes"/>
      <point x="261" y="302" type="line"/>
      <point x="261.082" y="304.041"/>
      <point x="261.086" y="306.041"/>
      <point x="261.086" y="308" type="curve" smooth="yes"/>
      <point x="261.086" y="356"/>
      <point x="230" y="389"/>
      <point x="193" y="389" type="curve" smooth="yes"/>
      <point x="170" y="389"/>
      <point x="152.745" y="371.085"/>
      <point x="147.5" y="355" type="curve" smooth="yes"/>
      <point x="140" y="332"/>
      <point x="128" y="321"/>
      <point x="102" y="321" type="curve" smooth="yes"/>
      <point x="84" y="321"/>
      <point x="64" y="333.368"/>
      <point x="64" y="359" type="curve" smooth="yes"/>
      <point x="64" y="406"/>
      <point x="114" y="431.5"/>
      <point x="169" y="431.5" type="curve" smooth="yes"/>
      <point x="257" y="431.5"/>
      <point x="295.146" y="363"/>
      <point x="295.146" y="290" type="curve" smooth="yes"/>
      <point x="295.146" y="286.722"/>
      <point x="295.101" y="278.388"/>
      <point x="295" y="275" type="curve"/>
      <point x="233" y="275" type="line" smooth="yes"/>
      <point x="188.56" y="275"/>
      <point x="158.285" y="267.554"/>
      <point x="135" y="253" type="curve" smooth="yes"/>
      <point x="119" y="243"/>
      <point x="108" y="227"/>
      <point x="108" y="207" type="curve" smooth="yes"/>
      <point x="108" y="149"/>
      <point x="199" y="140"/>
      <point x="279" y="140" type="curve" smooth="yes"/>
      <point x="432" y="140"/>
      <point x="496" y="210"/>
      <point x="496" y="301" type="curve" smooth="yes"/>
      <point x="496" y="351"/>
      <point x="484" y="387"/>
      <point x="471" y="410" type="curve"/>
      <point x="456" y="379"/>
      <point x="426" y="359"/>
      <point x="383" y="359" type="curve" smooth="yes"/>
      <point x="319.844" y="359"/>
      <point x="283" y="414"/>
      <point x="283" y="480" type="curve" smooth="yes"/>
      <point x="283" y="530"/>
      <point x="298" y="566"/>
      <point x="325" y="597" type="curve"/>
      <point x="386" y="564"/>
      <point x="456.965" y="492.242"/>
      <point x="493" y="430" type="curve" smooth="yes"/>
      <point x="531.783" y="363.012"/>
      <point x="545" y="315"/>
      <point x="545" y="245" type="curve" smooth="yes"/>
      <point x="545" y="117"/>
      <point x="459" y="0"/>
      <point x="276" y="0" type="curve" smooth="yes"/>
      <point x="155" y="0"/>
      <point x="45" y="46"/>
    </contour>
    <contour>
      <point x="16" y="268" type="curve"/>
      <point x="16" y="302" type="line"/>
      <point x="259" y="302" type="line"/>
      <point x="291" y="275" type="line"/>
      <point x="129" y="275" type="line" smooth="yes"/>
      <point x="58" y="274"/>
      <point x="32" y="270.667"/>
    </contour>
    <contour>
      <point x="317" y="488" type="curve" smooth="yes"/>
      <point x="317" y="438.667"/>
      <point x="350" y="406"/>
      <point x="394" y="406" type="curve" smooth="yes"/>
      <point x="413" y="406"/>
      <point x="439" y="416"/>
      <point x="449" y="441" type="curve"/>
      <point x="419" y="485"/>
      <point x="372" y="529"/>
      <point x="334" y="557" type="curve"/>
      <point x="326" y="540"/>
      <point x="317" y="518"/>
    </contour>
  </outline>
</glyph>
<glyph name="si_Ee" format="1">
  <advance width="595"/>
  <unicode hex="0D92"/>
  <outline>
    <contour>
      <point x="440.5" y="444" type="line"/>
      <point x="469" y="427" type="line"/>
      <point x="469" y="491" type="line"/>
      <point x="484.333" y="484.333"/>
      <point x="499.333" y="481"/>
      <point x="514" y="481" type="curve" smooth="yes"/>
      <point x="557.191" y="481"/>
      <point x="592" y="511"/>
      <point x="592" y="555" type="curve" smooth="yes"/>
      <point x="592" y="647"/>
      <point x="494.5" y="652"/>
      <point x="440.5" y="694" type="curve"/>
    </contour>
    <contour>
      <point x="469.105" y="517.273" type="curve"/>
      <point x="469.105" y="649.587" type="line"/>
      <point x="515.17" y="619.203"/>
      <point x="547" y="599.602"/>
      <point x="547" y="558.438" type="curve" smooth="yes"/>
      <point x="547" y="534.915"/>
      <point x="533.454" y="510.413"/>
      <point x="501.448" y="510.413" type="curve" smooth="yes"/>
      <point x="488.382" y="510.413"/>
      <point x="477.6" y="512.699"/>
    </contour>
    <contour>
      <point x="45" y="165" type="curve" smooth="yes"/>
      <point x="45" y="195.721"/>
      <point x="54.7754" y="227.831"/>
      <point x="78" y="248" type="curve" smooth="yes"/>
      <point x="94.127" y="262.005"/>
      <point x="113" y="273"/>
      <point x="139" y="278" type="curve"/>
      <point x="172.761" y="290.199"/>
      <point x="207.875" y="302"/>
      <point x="245" y="302" type="curve" smooth="yes"/>
      <point x="255" y="302" type="line"/>
      <point x="255.082" y="304.041"/>
      <point x="255.086" y="306.041"/>
      <point x="255.086" y="308" type="curve" smooth="yes"/>
      <point x="255.086" y="348.79"/>
      <point x="230" y="383.25"/>
      <point x="193" y="383.25" type="curve" smooth="yes"/>
      <point x="170" y="383.25"/>
      <point x="152.745" y="365.335"/>
      <point x="147.5" y="349.25" type="curve" smooth="yes"/>
      <point x="140" y="326.25"/>
      <point x="128.75" y="315.25"/>
      <point x="102.75" y="315.25" type="curve" smooth="yes"/>
      <point x="84.75" y="315.25"/>
      <point x="64" y="327.618"/>
      <point x="64" y="353.25" type="curve" smooth="yes"/>
      <point x="64" y="400.25"/>
      <point x="109.25" y="425.75"/>
      <point x="164.25" y="425.75" type="curve" smooth="yes"/>
      <point x="252.25" y="425.75"/>
      <point x="289.146" y="363"/>
      <point x="289.146" y="290" type="curve" smooth="yes"/>
      <point x="289.146" y="286.722"/>
      <point x="289.101" y="278.388"/>
      <point x="289" y="275" type="curve"/>
      <point x="233" y="275" type="line" smooth="yes"/>
      <point x="188.56" y="275"/>
      <point x="158.285" y="267.554"/>
      <point x="135" y="253" type="curve" smooth="yes"/>
      <point x="119" y="243"/>
      <point x="108" y="227"/>
      <point x="108" y="207" type="curve" smooth="yes"/>
      <point x="108" y="149"/>
      <point x="199" y="140"/>
      <point x="279" y="140" type="curve" smooth="yes"/>
      <point x="432" y="140"/>
      <point x="496" y="210"/>
      <point x="496" y="301" type="curve" smooth="yes"/>
      <point x="496" y="351"/>
      <point x="484" y="369.25"/>
      <point x="471" y="392.25" type="curve"/>
      <point x="456" y="361.25"/>
      <point x="426" y="341.25"/>
      <point x="383" y="341.25" type="curve" smooth="yes"/>
      <point x="319.845" y="341.25"/>
      <point x="283" y="396.25"/>
      <point x="283" y="462.25" type="curve" smooth="yes"/>
      <point x="283" y="512.25"/>
      <point x="298" y="548.25"/>
      <point x="325" y="579.25" type="curve"/>
      <point x="386" y="546.25"/>
      <point x="456.965" y="474.492"/>
      <point x="493" y="412.25" type="curve" smooth="yes"/>
      <point x="531.783" y="345.262"/>
      <point x="545" y="315"/>
      <point x="545" y="245" type="curve" smooth="yes"/>
      <point x="545" y="117"/>
      <point x="459" y="0"/>
      <point x="276" y="0" type="curve" smooth="yes"/>
      <point x="155" y="0"/>
      <point x="45" y="46"/>
    </contour>
    <contour>
      <point x="16" y="268" type="curve"/>
      <point x="16" y="302" type="line"/>
      <point x="253" y="302" type="line"/>
      <point x="285" y="275" type="line"/>
      <point x="129" y="275" type="line" smooth="yes"/>
      <point x="58" y="274"/>
      <point x="32" y="270.667"/>
    </contour>
    <contour>
      <point x="317" y="470.25" type="curve" smooth="yes"/>
      <point x="317" y="420.917"/>
      <point x="350" y="388.25"/>
      <point x="394" y="388.25" type="curve" smooth="yes"/>
      <point x="413" y="388.25"/>
      <point x="439" y="398.25"/>
      <point x="449" y="423.25" type="curve"/>
      <point x="419" y="467.25"/>
      <point x="372" y="511.25"/>
      <point x="334" y="539.25" type="curve"/>
      <point x="326" y="522.25"/>
      <point x="317" y="500.25"/>
    </contour>
  </outline>
</glyph>
<glyph name="si_Ai" format="1">
  <advance width="1178"/>
  <unicode hex="0D93"/>
  <outline>
    <contour>
      <point x="630" y="165" type="curve" smooth="yes"/>
      <point x="630" y="195.721"/>
      <point x="639.775" y="227.831"/>
      <point x="663" y="248" type="curve" smooth="yes"/>
      <point x="679.127" y="262.005"/>
      <point x="698" y="273"/>
      <point x="724" y="278" type="curve"/>
      <point x="757.761" y="290.199"/>
      <point x="798.875" y="302"/>
      <point x="836" y="302" type="curve" smooth="yes"/>
      <point x="846" y="302" type="line"/>
      <point x="846.082" y="304.041"/>
      <point x="846.086" y="306.041"/>
      <point x="846.086" y="308" type="curve" smooth="yes"/>
      <point x="846.086" y="356"/>
      <point x="815" y="389"/>
      <point x="778" y="389" type="curve" smooth="yes"/>
      <point x="755" y="389"/>
      <point x="737.745" y="371.085"/>
      <point x="732.5" y="355" type="curve" smooth="yes"/>
      <point x="725" y="332"/>
      <point x="713" y="321"/>
      <point x="687" y="321" type="curve" smooth="yes"/>
      <point x="669" y="321"/>
      <point x="649" y="333.368"/>
      <point x="649" y="359" type="curve" smooth="yes"/>
      <point x="649" y="406"/>
      <point x="699" y="431.5"/>
      <point x="754" y="431.5" type="curve" smooth="yes"/>
      <point x="842" y="431.5"/>
      <point x="880.146" y="363"/>
      <point x="880.146" y="290" type="curve" smooth="yes"/>
      <point x="880.146" y="286.722"/>
      <point x="880.101" y="278.388"/>
      <point x="880" y="275" type="curve"/>
      <point x="818" y="275" type="line" smooth="yes"/>
      <point x="773.56" y="275"/>
      <point x="743.285" y="267.554"/>
      <point x="720" y="253" type="curve" smooth="yes"/>
      <point x="704" y="243"/>
      <point x="693" y="227"/>
      <point x="693" y="207" type="curve" smooth="yes"/>
      <point x="693" y="149"/>
      <point x="784" y="140"/>
      <point x="864" y="140" type="curve" smooth="yes"/>
      <point x="1017" y="140"/>
      <point x="1081" y="210"/>
      <point x="1081" y="301" type="curve" smooth="yes"/>
      <point x="1081" y="351"/>
      <point x="1069" y="387"/>
      <point x="1056" y="410" type="curve"/>
      <point x="1041" y="379"/>
      <point x="1011" y="359"/>
      <point x="968" y="359" type="curve" smooth="yes"/>
      <point x="904.845" y="359"/>
      <point x="868" y="414"/>
      <point x="868" y="480" type="curve" smooth="yes"/>
      <point x="868" y="530"/>
      <point x="883" y="566"/>
      <point x="910" y="597" type="curve"/>
      <point x="971" y="564"/>
      <point x="1041.96" y="492.242"/>
      <point x="1078" y="430" type="curve" smooth="yes"/>
      <point x="1116.78" y="363.012"/>
      <point x="1130" y="315"/>
      <point x="1130" y="245" type="curve" smooth="yes"/>
      <point x="1130" y="117"/>
      <point x="1044" y="0"/>
      <point x="861" y="0" type="curve" smooth="yes"/>
      <point x="740" y="0"/>
      <point x="630" y="46"/>
    </contour>
    <contour>
      <point x="601" y="268" type="curve"/>
      <point x="601" y="302" type="line"/>
      <point x="844" y="302" type="line"/>
      <point x="876" y="275" type="line"/>
      <point x="714" y="275" type="line" smooth="yes"/>
      <point x="643" y="274"/>
      <point x="617" y="270.667"/>
    </contour>
    <contour>
      <point x="902" y="488" type="curve" smooth="yes"/>
      <point x="902" y="438.667"/>
      <point x="935" y="406"/>
      <point x="979" y="406" type="curve" smooth="yes"/>
      <point x="998" y="406"/>
      <point x="1024" y="416"/>
      <point x="1034" y="441" type="curve"/>
      <point x="1004" y="485"/>
      <point x="957" y="529"/>
      <point x="919" y="557" type="curve"/>
      <point x="911" y="540"/>
      <point x="902" y="518"/>
    </contour>
    <contour>
      <point x="220.55" y="276" type="curve" smooth="yes"/>
      <point x="220.55" y="250.752"/>
      <point x="245.3" y="229.545"/>
      <point x="275" y="229.545" type="curve" smooth="yes"/>
      <point x="304.7" y="229.545"/>
      <point x="329.45" y="250.752"/>
      <point x="329.45" y="276" type="curve" smooth="yes"/>
      <point x="329.45" y="301.248"/>
      <point x="304.7" y="322.455"/>
      <point x="275" y="322.455" type="curve" smooth="yes"/>
      <point x="245.3" y="322.455"/>
      <point x="220.55" y="301.248"/>
    </contour>
    <contour>
      <point x="33" y="212" type="curve" smooth="yes"/>
      <point x="33" y="346.857"/>
      <point x="160.549" y="432"/>
      <point x="301" y="432" type="curve" smooth="yes"/>
      <point x="448.707" y="432"/>
      <point x="571.822" y="339.956"/>
      <point x="584" y="206" type="curve"/>
      <point x="553" y="206" type="line"/>
      <point x="534.422" y="321.758"/>
      <point x="430" y="401.5"/>
      <point x="301" y="401.5" type="curve" smooth="yes"/>
      <point x="187.176" y="401.5"/>
      <point x="106" y="344.138"/>
      <point x="106" y="264" type="curve" smooth="yes"/>
      <point x="106" y="197.01"/>
      <point x="163.286" y="137"/>
      <point x="269" y="137" type="curve" smooth="yes"/>
      <point x="358" y="137"/>
      <point x="417" y="179.166"/>
      <point x="417" y="243.5" type="curve" smooth="yes"/>
      <point x="417" y="275.496"/>
      <point x="393.477" y="311.28"/>
      <point x="344.25" y="322.5" type="curve"/>
      <point x="357.151" y="310.589"/>
      <point x="364.25" y="291.5"/>
      <point x="364.25" y="275.5" type="curve" smooth="yes"/>
      <point x="364.25" y="231.435"/>
      <point x="320.1" y="199.75"/>
      <point x="275.25" y="199.75" type="curve" smooth="yes"/>
      <point x="230.304" y="199.75"/>
      <point x="185.75" y="231.25"/>
      <point x="185.75" y="275.25" type="curve" smooth="yes"/>
      <point x="185.75" y="322.265"/>
      <point x="230.717" y="354.5"/>
      <point x="289.75" y="354.5" type="curve" smooth="yes"/>
      <point x="399.512" y="354.5"/>
      <point x="491" y="292.003"/>
      <point x="491" y="176.75" type="curve" smooth="yes"/>
      <point x="491" y="80.4303"/>
      <point x="412" y="0"/>
      <point x="269" y="0" type="curve" smooth="yes"/>
      <point x="134" y="0"/>
      <point x="33" y="83.6285"/>
    </contour>
  </outline>
</glyph>
<glyph name="si_Os" format="1">
  <advance width="636"/>
  <unicode hex="0D94"/>
  <outline>
    <contour>
      <point x="275" y="361" type="curve" smooth="yes"/>
      <point x="275" y="336"/>
      <point x="296" y="315"/>
      <point x="321" y="315" type="curve" smooth="yes"/>
      <point x="346" y="315"/>
      <point x="367" y="336"/>
      <point x="367" y="361" type="curve" smooth="yes"/>
      <point x="367" y="386"/>
      <point x="346" y="407"/>
      <point x="321" y="407" type="curve" smooth="yes"/>
      <point x="296" y="407"/>
      <point x="275" y="386"/>
    </contour>
    <contour>
      <point x="30" y="224" type="curve" smooth="yes"/>
      <point x="30" y="332"/>
      <point x="74" y="432"/>
      <point x="148" y="432" type="curve" smooth="yes"/>
      <point x="167" y="432"/>
      <point x="175" y="428"/>
      <point x="182" y="423" type="curve" smooth="yes"/>
      <point x="193" y="415"/>
      <point x="201" y="401"/>
      <point x="201" y="371" type="curve" smooth="yes"/>
      <point x="201" y="357"/>
      <point x="201" y="340"/>
      <point x="201" y="337" type="curve" smooth="yes"/>
      <point x="201" y="284"/>
      <point x="240" y="256"/>
      <point x="295" y="256" type="curve" smooth="yes"/>
      <point x="348" y="256"/>
      <point x="389" y="281"/>
      <point x="389" y="326" type="curve" smooth="yes"/>
      <point x="389" y="327"/>
      <point x="389" y="329"/>
      <point x="388" y="331" type="curve"/>
      <point x="383" y="316"/>
      <point x="362" y="285"/>
      <point x="318" y="285" type="curve" smooth="yes"/>
      <point x="271" y="285"/>
      <point x="243" y="322"/>
      <point x="243" y="360" type="curve" smooth="yes"/>
      <point x="243" y="402"/>
      <point x="274" y="434"/>
      <point x="322" y="434" type="curve" smooth="yes"/>
      <point x="384" y="434"/>
      <point x="420" y="389"/>
      <point x="420" y="330" type="curve" smooth="yes"/>
      <point x="420" y="265"/>
      <point x="367" y="225"/>
      <point x="296" y="225" type="curve" smooth="yes"/>
      <point x="222" y="225"/>
      <point x="170" y="264"/>
      <point x="170" y="339" type="curve" smooth="yes"/>
      <point x="170" y="344"/>
      <point x="170" y="363"/>
      <point x="170" y="372" type="curve" smooth="yes"/>
      <point x="170" y="392"/>
      <point x="164" y="403"/>
      <point x="145" y="403" type="curve" smooth="yes"/>
      <point x="98" y="403"/>
      <point x="74" y="329"/>
      <point x="74" y="279" type="curve" smooth="yes"/>
      <point x="74" y="198"/>
      <point x="126" y="138"/>
      <point x="204" y="138" type="curve" smooth="yes"/>
      <point x="273" y="138"/>
      <point x="291" y="172"/>
      <point x="291" y="205" type="curve" smooth="yes"/>
      <point x="291" y="208" type="line"/>
      <point x="319" y="208" type="line"/>
      <point x="319" y="204" type="line" smooth="yes"/>
      <point x="319" y="171"/>
      <point x="342" y="139"/>
      <point x="403" y="139" type="curve" smooth="yes"/>
      <point x="499" y="139"/>
      <point x="531" y="230"/>
      <point x="531" y="323" type="curve" smooth="yes"/>
      <point x="531" y="437"/>
      <point x="458" y="553"/>
      <point x="298" y="553" type="curve" smooth="yes"/>
      <point x="199" y="553"/>
      <point x="142" y="522"/>
      <point x="96" y="466" type="curve"/>
      <point x="62" y="466" type="line"/>
      <point x="107" y="531"/>
      <point x="173" y="579"/>
      <point x="300" y="579" type="curve" smooth="yes"/>
      <point x="488" y="579"/>
      <point x="590" y="431"/>
      <point x="590" y="254" type="curve" smooth="yes"/>
      <point x="590" y="127"/>
      <point x="543" y="0"/>
      <point x="406" y="0" type="curve" smooth="yes"/>
      <point x="365" y="0"/>
      <point x="321" y="16"/>
      <point x="305" y="55" type="curve"/>
      <point x="283" y="15"/>
      <point x="246" y="0"/>
      <point x="196" y="0" type="curve" smooth="yes"/>
      <point x="78" y="0"/>
      <point x="30" y="127"/>
    </contour>
  </outline>
</glyph>
<glyph name="si_Oo" format="1">
  <advance width="636"/>
  <unicode hex="0D95"/>
  <outline>
    <contour>
      <point x="144" y="538" type="curve" smooth="yes"/>
      <point x="144" y="526"/>
      <point x="163" y="526"/>
      <point x="163" y="515" type="curve" smooth="yes"/>
      <point x="163" y="513"/>
      <point x="162" y="510"/>
      <point x="160" y="508" type="curve"/>
      <point x="193" y="514"/>
      <point x="233" y="519"/>
      <point x="279" y="519" type="curve" smooth="yes"/>
      <point x="387" y="519"/>
      <point x="473" y="489"/>
      <point x="528" y="425" type="curve"/>
      <point x="495" y="536"/>
      <point x="400" y="574"/>
      <point x="284" y="574" type="curve" smooth="yes"/>
      <point x="212" y="574"/>
      <point x="144" y="558"/>
    </contour>
    <contour>
      <point x="42" y="440" type="curve"/>
      <point x="42" y="473" type="line"/>
      <point x="74" y="485"/>
      <point x="124" y="499"/>
      <point x="124" y="508" type="curve" smooth="yes"/>
      <point x="124" y="520"/>
      <point x="96" y="520"/>
      <point x="96" y="546" type="curve" smooth="yes"/>
      <point x="96" y="583"/>
      <point x="163" y="629"/>
      <point x="278" y="629" type="curve" smooth="yes"/>
      <point x="486" y="629"/>
      <point x="560" y="490"/>
      <point x="572" y="356" type="curve"/>
      <point x="581" y="333"/>
      <point x="590" y="295"/>
      <point x="590" y="250" type="curve"/>
      <point x="533" y="287" type="line"/>
      <point x="533" y="295"/>
      <point x="533" y="291"/>
      <point x="533" y="295" type="curve" smooth="yes"/>
      <point x="533" y="410"/>
      <point x="445" y="492"/>
      <point x="276" y="492" type="curve" smooth="yes"/>
      <point x="200" y="492"/>
      <point x="123" y="478"/>
    </contour>
    <contour>
      <point x="275" y="361" type="curve" smooth="yes"/>
      <point x="275" y="336"/>
      <point x="296" y="315"/>
      <point x="321" y="315" type="curve" smooth="yes"/>
      <point x="346" y="315"/>
      <point x="367" y="336"/>
      <point x="367" y="361" type="curve" smooth="yes"/>
      <point x="367" y="386"/>
      <point x="346" y="407"/>
      <point x="321" y="407" type="curve" smooth="yes"/>
      <point x="296" y="407"/>
      <point x="275" y="386"/>
    </contour>
    <contour>
      <point x="30" y="224" type="curve" smooth="yes"/>
      <point x="30" y="332"/>
      <point x="74" y="432"/>
      <point x="148" y="432" type="curve" smooth="yes"/>
      <point x="167" y="432"/>
      <point x="175" y="428"/>
      <point x="182" y="423" type="curve" smooth="yes"/>
      <point x="193" y="415"/>
      <point x="201" y="401"/>
      <point x="201" y="371" type="curve" smooth="yes"/>
      <point x="201" y="357"/>
      <point x="201" y="340"/>
      <point x="201" y="337" type="curve" smooth="yes"/>
      <point x="201" y="284"/>
      <point x="240" y="256"/>
      <point x="295" y="256" type="curve" smooth="yes"/>
      <point x="348" y="256"/>
      <point x="389" y="281"/>
      <point x="389" y="326" type="curve" smooth="yes"/>
      <point x="389" y="327"/>
      <point x="389" y="329"/>
      <point x="388" y="331" type="curve"/>
      <point x="383" y="316"/>
      <point x="362" y="285"/>
      <point x="318" y="285" type="curve" smooth="yes"/>
      <point x="271" y="285"/>
      <point x="243" y="322"/>
      <point x="243" y="360" type="curve" smooth="yes"/>
      <point x="243" y="402"/>
      <point x="274" y="434"/>
      <point x="322" y="434" type="curve" smooth="yes"/>
      <point x="384" y="434"/>
      <point x="420" y="389"/>
      <point x="420" y="330" type="curve" smooth="yes"/>
      <point x="420" y="265"/>
      <point x="367" y="225"/>
      <point x="296" y="225" type="curve" smooth="yes"/>
      <point x="222" y="225"/>
      <point x="170" y="264"/>
      <point x="170" y="339" type="curve" smooth="yes"/>
      <point x="170" y="344"/>
      <point x="170" y="363"/>
      <point x="170" y="372" type="curve" smooth="yes"/>
      <point x="170" y="392"/>
      <point x="164" y="403"/>
      <point x="145" y="403" type="curve" smooth="yes"/>
      <point x="98" y="403"/>
      <point x="74" y="329"/>
      <point x="74" y="279" type="curve" smooth="yes"/>
      <point x="74" y="198"/>
      <point x="126" y="138"/>
      <point x="204" y="138" type="curve" smooth="yes"/>
      <point x="273" y="138"/>
      <point x="291" y="172"/>
      <point x="291" y="205" type="curve" smooth="yes"/>
      <point x="291" y="208" type="line"/>
      <point x="319" y="208" type="line"/>
      <point x="319" y="204" type="line" smooth="yes"/>
      <point x="319" y="171"/>
      <point x="342" y="139"/>
      <point x="403" y="139" type="curve" smooth="yes"/>
      <point x="499" y="139"/>
      <point x="532" y="220"/>
      <point x="532" y="300" type="curve"/>
      <point x="549" y="282"/>
      <point x="567" y="290"/>
      <point x="590" y="254" type="curve"/>
      <point x="590" y="127"/>
      <point x="543" y="0"/>
      <point x="406" y="0" type="curve" smooth="yes"/>
      <point x="365" y="0"/>
      <point x="321" y="16"/>
      <point x="305" y="55" type="curve"/>
      <point x="283" y="15"/>
      <point x="246" y="0"/>
      <point x="196" y="0" type="curve" smooth="yes"/>
      <point x="78" y="0"/>
      <point x="30" y="127"/>
    </contour>
  </outline>
</glyph>
<glyph name="si_Au" format="1">
  <advance width="1034"/>
  <unicode hex="0D96"/>
  <outline>
    <contour>
      <point x="625" y="321" type="curve" smooth="yes"/>
      <point x="625" y="369.667"/>
      <point x="641" y="404"/>
      <point x="662" y="428" type="curve"/>
      <point x="698.25" y="428" type="line"/>
      <point x="676.25" y="410"/>
      <point x="655.75" y="374.667"/>
      <point x="655.75" y="322" type="curve" smooth="yes"/>
      <point x="655.75" y="276.29"/>
      <point x="677.36" y="246.5"/>
      <point x="708.5" y="246.5" type="curve" smooth="yes"/>
      <point x="732.389" y="246.5"/>
      <point x="748" y="261.458"/>
      <point x="748" y="290" type="curve" smooth="yes"/>
      <point x="748" y="307.333"/>
      <point x="741.333" y="323"/>
      <point x="728" y="337" type="curve"/>
      <point x="727.434" y="342.207"/>
      <point x="727.139" y="344.207"/>
      <point x="727.139" y="349" type="curve" smooth="yes"/>
      <point x="727.139" y="398"/>
      <point x="766.82" y="432.25"/>
      <point x="827" y="432.25" type="curve" smooth="yes"/>
      <point x="946.438" y="432.25"/>
      <point x="985" y="315.587"/>
      <point x="985" y="220" type="curve" smooth="yes"/>
      <point x="985" y="101"/>
      <point x="939.715" y="-2"/>
      <point x="825.5" y="-2" type="curve" smooth="yes"/>
      <point x="743.486" y="-2"/>
      <point x="709" y="53.9697"/>
      <point x="709" y="120" type="curve" smooth="yes"/>
      <point x="709" y="132"/>
      <point x="710.333" y="144.333"/>
      <point x="713" y="157" type="curve"/>
      <point x="740.25" y="157" type="line"/>
      <point x="738.25" y="146.333"/>
      <point x="737.25" y="135.667"/>
      <point x="737.25" y="125" type="curve" smooth="yes"/>
      <point x="737.25" y="75.6934"/>
      <point x="763.96" y="63"/>
      <point x="785" y="63" type="curve" smooth="yes"/>
      <point x="826.352" y="63"/>
      <point x="844" y="111.574"/>
      <point x="844" y="238" type="curve" smooth="yes"/>
      <point x="844" y="343.736"/>
      <point x="819.1" y="389"/>
      <point x="790.5" y="389" type="curve" smooth="yes"/>
      <point x="776.153" y="389"/>
      <point x="755.861" y="381.923"/>
      <point x="755.861" y="352.5" type="curve" smooth="yes"/>
      <point x="755.861" y="350.219"/>
      <point x="755.863" y="347.885"/>
      <point x="756" y="345.5" type="curve"/>
      <point x="780" y="332.833"/>
      <point x="793" y="312"/>
      <point x="793" y="288" type="curve" smooth="yes"/>
      <point x="793" y="237.916"/>
      <point x="764.243" y="212"/>
      <point x="713.75" y="212" type="curve" smooth="yes"/>
      <point x="658.293" y="212"/>
      <point x="625" y="261.448"/>
    </contour>
    <contour>
      <point x="274.94" y="361" type="curve" smooth="yes"/>
      <point x="274.94" y="335.52"/>
      <point x="295.52" y="314.94"/>
      <point x="321" y="314.94" type="curve" smooth="yes"/>
      <point x="346.48" y="314.94"/>
      <point x="367.06" y="335.52"/>
      <point x="367.06" y="361" type="curve" smooth="yes"/>
      <point x="367.06" y="386.48"/>
      <point x="346.48" y="407.06"/>
      <point x="321" y="407.06" type="curve" smooth="yes"/>
      <point x="295.52" y="407.06"/>
      <point x="274.94" y="386.48"/>
    </contour>
    <contour>
      <point x="30" y="224" type="curve" smooth="yes"/>
      <point x="30" y="332"/>
      <point x="74" y="431.5"/>
      <point x="148" y="431.5" type="curve" smooth="yes"/>
      <point x="167.007" y="431.5"/>
      <point x="175" y="428"/>
      <point x="182" y="423" type="curve" smooth="yes"/>
      <point x="192.609" y="415.422"/>
      <point x="200.873" y="401"/>
      <point x="200.873" y="371" type="curve" smooth="yes"/>
      <point x="200.873" y="357"/>
      <point x="201" y="340.015"/>
      <point x="201" y="337" type="curve" smooth="yes"/>
      <point x="201" y="284"/>
      <point x="240" y="256"/>
      <point x="295" y="256" type="curve" smooth="yes"/>
      <point x="348" y="256"/>
      <point x="389" y="281"/>
      <point x="389" y="326" type="curve" smooth="yes"/>
      <point x="389" y="327"/>
      <point x="389" y="329"/>
      <point x="388" y="331" type="curve"/>
      <point x="383" y="316"/>
      <point x="362" y="285"/>
      <point x="318" y="285" type="curve" smooth="yes"/>
      <point x="271.344" y="285"/>
      <point x="243" y="322"/>
      <point x="243" y="360" type="curve" smooth="yes"/>
      <point x="243" y="402"/>
      <point x="274" y="434"/>
      <point x="322" y="434" type="curve" smooth="yes"/>
      <point x="384" y="434"/>
      <point x="420" y="389"/>
      <point x="420" y="330" type="curve" smooth="yes"/>
      <point x="420" y="265"/>
      <point x="367" y="225"/>
      <point x="296" y="225" type="curve" smooth="yes"/>
      <point x="222" y="225"/>
      <point x="170" y="264"/>
      <point x="170" y="339" type="curve" smooth="yes"/>
      <point x="170" y="344.22"/>
      <point x="170.275" y="362.935"/>
      <point x="170.275" y="372" type="curve" smooth="yes"/>
      <point x="170.275" y="392"/>
      <point x="164" y="403"/>
      <point x="145" y="403" type="curve" smooth="yes"/>
      <point x="98" y="403"/>
      <point x="74" y="329"/>
      <point x="74" y="279" type="curve" smooth="yes"/>
      <point x="74" y="198"/>
      <point x="126" y="138"/>
      <point x="204" y="138" type="curve" smooth="yes"/>
      <point x="273" y="138"/>
      <point x="291" y="171.667"/>
      <point x="291" y="205" type="curve" smooth="yes"/>
      <point x="291" y="208" type="line"/>
      <point x="319" y="208" type="line"/>
      <point x="319" y="204" type="line" smooth="yes"/>
      <point x="319" y="171"/>
      <point x="342" y="139"/>
      <point x="403" y="139" type="curve" smooth="yes"/>
      <point x="498.559" y="139"/>
      <point x="531" y="230"/>
      <point x="531" y="323" type="curve" smooth="yes"/>
      <point x="531" y="437"/>
      <point x="458" y="553"/>
      <point x="298" y="553" type="curve" smooth="yes"/>
      <point x="199" y="553"/>
      <point x="142" y="522"/>
      <point x="96" y="466" type="curve"/>
      <point x="62" y="466" type="line"/>
      <point x="107" y="531"/>
      <point x="173" y="579"/>
      <point x="300" y="579" type="curve" smooth="yes"/>
      <point x="488" y="579"/>
      <point x="590" y="431.115"/>
      <point x="590" y="254" type="curve" smooth="yes"/>
      <point x="590" y="126.501"/>
      <point x="543" y="0"/>
      <point x="406" y="0" type="curve" smooth="yes"/>
      <point x="365" y="0"/>
      <point x="321" y="16"/>
      <point x="305" y="55" type="curve"/>
      <point x="283" y="15"/>
      <point x="246" y="0"/>
      <point x="196" y="0" type="curve" smooth="yes"/>
      <point x="78" y="0"/>
      <point x="30" y="127"/>
    </contour>
  </outline>
</glyph>
<glyph name="si_Ka" format="1">
  <advance width="746"/>
  <unicode hex="0D9A"/>
  <outline>
    <contour>
      <point x="21" y="22" type="line"/>
      <point x="29" y="91"/>
      <point x="74" y="184"/>
      <point x="109" y="232" type="curve" smooth="yes"/>
      <point x="135" y="268"/>
      <point x="148" y="280"/>
      <point x="171" y="304" type="curve"/>
      <point x="180" y="314"/>
      <point x="193" y="331"/>
      <point x="193" y="352" type="curve" smooth="yes"/>
      <point x="193" y="371"/>
      <point x="182" y="386"/>
      <point x="158" y="386" type="curve" smooth="yes"/>
      <point x="144" y="386"/>
      <point x="128" y="379"/>
      <point x="124" y="363" type="curve" smooth="yes"/>
      <point x="118" y="342"/>
      <point x="122" y="342"/>
      <point x="113" y="323" type="curve" smooth="yes"/>
      <point x="105" y="306"/>
      <point x="87" y="297"/>
      <point x="72" y="297" type="curve" smooth="yes"/>
      <point x="35" y="297"/>
      <point x="29" y="328"/>
      <point x="29" y="340" type="curve" smooth="yes"/>
      <point x="29" y="394"/>
      <point x="79" y="433"/>
      <point x="136" y="433" type="curve" smooth="yes"/>
      <point x="188" y="433"/>
      <point x="220" y="399"/>
      <point x="220" y="358" type="curve" smooth="yes"/>
      <point x="220" y="352"/>
      <point x="220" y="349"/>
      <point x="219" y="341" type="curve"/>
      <point x="278" y="396"/>
      <point x="366" y="434"/>
      <point x="453" y="434" type="curve" smooth="yes"/>
      <point x="603" y="434"/>
      <point x="701" y="328"/>
      <point x="701" y="192" type="curve" smooth="yes"/>
      <point x="701" y="110"/>
      <point x="659" y="0"/>
      <point x="553" y="-1" type="curve" smooth="yes"/>
      <point x="543" y="-1"/>
      <point x="521" y="1"/>
      <point x="504" y="12" type="curve"/>
      <point x="504" y="40" type="line"/>
      <point x="518" y="33"/>
      <point x="531" y="30"/>
      <point x="543" y="30" type="curve" smooth="yes"/>
      <point x="584" y="30"/>
      <point x="597" y="77"/>
      <point x="597" y="123" type="curve" smooth="yes"/>
      <point x="597" y="288"/>
      <point x="469" y="348"/>
      <point x="358" y="348" type="curve" smooth="yes"/>
      <point x="294" y="348"/>
      <point x="244" y="330"/>
      <point x="214" y="304" type="curve"/>
      <point x="244" y="312"/>
      <point x="278" y="314"/>
      <point x="305" y="314" type="curve" smooth="yes"/>
      <point x="425" y="314"/>
      <point x="515" y="250"/>
      <point x="515" y="126" type="curve" smooth="yes"/>
      <point x="515" y="68"/>
      <point x="482" y="-1"/>
      <point x="397" y="-1" type="curve" smooth="yes"/>
      <point x="351" y="-1"/>
      <point x="317" y="20"/>
      <point x="296" y="63" type="curve"/>
      <point x="279" y="22"/>
      <point x="246" y="-1"/>
      <point x="204" y="-1" type="curve" smooth="yes"/>
      <point x="117" y="-1"/>
      <point x="120" y="73"/>
      <point x="87" y="73" type="curve" smooth="yes"/>
      <point x="65" y="73"/>
      <point x="52" y="51"/>
      <point x="49" y="11" type="curve"/>
    </contour>
    <contour>
      <point x="91" y="143" type="curve"/>
      <point x="103" y="153"/>
      <point x="115" y="160"/>
      <point x="129" y="160" type="curve" smooth="yes"/>
      <point x="161" y="160"/>
      <point x="172" y="140"/>
      <point x="212" y="140" type="curve" smooth="yes"/>
      <point x="258" y="140"/>
      <point x="280" y="157"/>
      <point x="280" y="214" type="curve" smooth="yes"/>
      <point x="280" y="216"/>
      <point x="280" y="214"/>
      <point x="280" y="216" type="curve"/>
      <point x="308" y="216" type="line"/>
      <point x="308" y="215"/>
      <point x="308" y="216"/>
      <point x="308" y="215" type="curve" smooth="yes"/>
      <point x="308" y="154"/>
      <point x="332" y="140"/>
      <point x="377" y="140" type="curve" smooth="yes"/>
      <point x="418" y="140"/>
      <point x="443" y="169"/>
      <point x="443" y="204" type="curve" smooth="yes"/>
      <point x="443" y="246"/>
      <point x="402" y="287"/>
      <point x="301" y="287" type="curve" smooth="yes"/>
      <point x="244" y="287"/>
      <point x="205" y="280"/>
      <point x="180" y="268" type="curve"/>
      <point x="163" y="253"/>
      <point x="147" y="235"/>
      <point x="131" y="212" type="curve" smooth="yes"/>
      <point x="104" y="172"/>
      <point x="101" y="163"/>
    </contour>
  </outline>
</glyph>
<glyph name="uni0DA0" format="1">
  <advance width="597"/>
  <unicode hex="0DA0"/>
  <outline>
    <contour>
      <point x="64" y="165" type="curve" smooth="yes"/>
      <point x="64" y="196"/>
      <point x="74" y="228"/>
      <point x="97" y="248" type="curve" smooth="yes"/>
      <point x="113" y="262"/>
      <point x="132" y="273"/>
      <point x="158" y="278" type="curve"/>
      <point x="192" y="290"/>
      <point x="233" y="302"/>
      <point x="270" y="302" type="curve" smooth="yes"/>
      <point x="284" y="302" type="line"/>
      <point x="284" y="304"/>
      <point x="284" y="306"/>
      <point x="284" y="308" type="curve" smooth="yes"/>
      <point x="284" y="358"/>
      <point x="252" y="389"/>
      <point x="220" y="389" type="curve" smooth="yes"/>
      <point x="186" y="389"/>
      <point x="173" y="371"/>
      <point x="168" y="355" type="curve" smooth="yes"/>
      <point x="161" y="336"/>
      <point x="150" y="320"/>
      <point x="121" y="320" type="curve" smooth="yes"/>
      <point x="101" y="320"/>
      <point x="83" y="333"/>
      <point x="83" y="359" type="curve" smooth="yes"/>
      <point x="83" y="406"/>
      <point x="133" y="432"/>
      <point x="188" y="432" type="curve" smooth="yes"/>
      <point x="276" y="432"/>
      <point x="319" y="376"/>
      <point x="319" y="290" type="curve" smooth="yes"/>
      <point x="319" y="287"/>
      <point x="319" y="277"/>
      <point x="319" y="274" type="curve"/>
      <point x="271" y="274" type="line" smooth="yes"/>
      <point x="216" y="274"/>
      <point x="184" y="266"/>
      <point x="161" y="254" type="curve" smooth="yes"/>
      <point x="133" y="239"/>
      <point x="128" y="220"/>
      <point x="128" y="207" type="curve" smooth="yes"/>
      <point x="128" y="158"/>
      <point x="208" y="140"/>
      <point x="298" y="140" type="curve" smooth="yes"/>
      <point x="451" y="140"/>
      <point x="517" y="218"/>
      <point x="517" y="329" type="curve" smooth="yes"/>
      <point x="517" y="442"/>
      <point x="437" y="551"/>
      <point x="303" y="551" type="curve" smooth="yes"/>
      <point x="224" y="551"/>
      <point x="163" y="522"/>
      <point x="119" y="470" type="curve"/>
      <point x="84" y="470" type="line"/>
      <point x="133" y="540"/>
      <point x="205" y="577"/>
      <point x="303" y="577" type="curve" smooth="yes"/>
      <point x="463" y="577"/>
      <point x="575" y="443"/>
      <point x="575" y="274" type="curve" smooth="yes"/>
      <point x="575" y="114"/>
      <point x="478" y="0"/>
      <point x="295" y="0" type="curve" smooth="yes"/>
      <point x="174" y="0"/>
      <point x="64" y="46"/>
    </contour>
    <contour>
      <point x="13" y="267" type="curve"/>
      <point x="13" y="302" type="line"/>
      <point x="282" y="302" type="line"/>
      <point x="315" y="274" type="line"/>
      <point x="148" y="274" type="line" smooth="yes"/>
      <point x="77" y="273"/>
      <point x="29" y="270"/>
    </contour>
  </outline>
</glyph>
<glyph name="uni0DA1" format="1">
  <advance width="598"/>
  <unicode hex="0DA1"/>
  <outline>
    <contour>
      <point x="33" y="170" type="curve" smooth="yes"/>
      <point x="33" y="249"/>
      <point x="96" y="312"/>
      <point x="208" y="312" type="curve" smooth="yes"/>
      <point x="212" y="312"/>
      <point x="222" y="312"/>
      <point x="226" y="311" type="curve"/>
      <point x="227" y="318"/>
      <point x="228" y="323"/>
      <point x="228" y="330" type="curve" smooth="yes"/>
      <point x="228" y="363"/>
      <point x="211" y="384"/>
      <point x="184" y="384" type="curve" smooth="yes"/>
      <point x="161" y="384"/>
      <point x="150" y="376"/>
      <point x="144" y="361" type="curve" smooth="yes"/>
      <point x="132" y="337"/>
      <point x="120" y="320"/>
      <point x="93" y="320" type="curve" smooth="yes"/>
      <point x="74" y="320"/>
      <point x="53" y="335"/>
      <point x="53" y="360" type="curve" smooth="yes"/>
      <point x="53" y="409"/>
      <point x="101" y="432"/>
      <point x="148" y="432" type="curve" smooth="yes"/>
      <point x="215" y="432"/>
      <point x="258" y="393"/>
      <point x="258" y="326" type="curve" smooth="yes"/>
      <point x="258" y="314"/>
      <point x="257" y="299"/>
      <point x="254" y="286" type="curve"/>
      <point x="245" y="287"/>
      <point x="238" y="288"/>
      <point x="229" y="288" type="curve" smooth="yes"/>
      <point x="110" y="288"/>
      <point x="93" y="238"/>
      <point x="93" y="217" type="curve" smooth="yes"/>
      <point x="93" y="157"/>
      <point x="189" y="137"/>
      <point x="292" y="137" type="curve" smooth="yes"/>
      <point x="398" y="137"/>
      <point x="491" y="155"/>
      <point x="491" y="210" type="curve" smooth="yes"/>
      <point x="491" y="244"/>
      <point x="470" y="287"/>
      <point x="355" y="287" type="curve" smooth="yes"/>
      <point x="333" y="287"/>
      <point x="298" y="284"/>
      <point x="284" y="283" type="curve"/>
      <point x="282" y="290"/>
      <point x="279" y="308"/>
      <point x="279" y="319" type="curve" smooth="yes"/>
      <point x="279" y="401"/>
      <point x="336" y="435"/>
      <point x="406" y="435" type="curve" smooth="yes"/>
      <point x="478" y="435"/>
      <point x="532" y="388"/>
      <point x="532" y="310" type="curve" smooth="yes"/>
      <point x="532" y="267"/>
      <point x="506" y="186"/>
      <point x="433" y="186" type="curve" smooth="yes"/>
      <point x="373" y="186"/>
      <point x="349" y="232"/>
      <point x="349" y="293" type="curve" smooth="yes"/>
      <point x="349" y="412"/>
      <point x="383" y="511"/>
      <point x="434" y="569" type="curve" smooth="yes"/>
      <point x="469" y="608"/>
      <point x="504" y="617"/>
      <point x="530" y="617" type="curve" smooth="yes"/>
      <point x="558" y="617"/>
      <point x="574" y="602"/>
      <point x="574" y="584" type="curve" smooth="yes"/>
      <point x="574" y="531"/>
      <point x="500" y="560"/>
      <point x="442" y="491" type="curve" smooth="yes"/>
      <point x="408" y="451"/>
      <point x="378" y="391"/>
      <point x="378" y="292" type="curve" smooth="yes"/>
      <point x="378" y="253"/>
      <point x="388" y="214"/>
      <point x="435" y="214" type="curve" smooth="yes"/>
      <point x="478" y="214"/>
      <point x="502" y="272"/>
      <point x="502" y="308" type="curve" smooth="yes"/>
      <point x="502" y="373"/>
      <point x="464" y="408"/>
      <point x="402" y="408" type="curve" smooth="yes"/>
      <point x="358" y="408"/>
      <point x="308" y="386"/>
      <point x="308" y="324" type="curve" smooth="yes"/>
      <point x="308" y="319"/>
      <point x="308" y="314"/>
      <point x="309" y="310" type="curve"/>
      <point x="316" y="311"/>
      <point x="334" y="312"/>
      <point x="350" y="312" type="curve" smooth="yes"/>
      <point x="388" y="312"/>
      <point x="434" y="309"/>
      <point x="473" y="291" type="curve" smooth="yes"/>
      <point x="517" y="271"/>
      <point x="549" y="228"/>
      <point x="549" y="168" type="curve" smooth="yes"/>
      <point x="549" y="45"/>
      <point x="424" y="0"/>
      <point x="298" y="0" type="curve" smooth="yes"/>
      <point x="160" y="0"/>
      <point x="33" y="44"/>
    </contour>
  </outline>
</glyph>
<glyph name="si_Tta" format="1">
  <advance width="603"/>
  <unicode hex="0DA7"/>
  <outline>
    <contour>
      <point x="31.596" y="207.869" type="curve" smooth="yes"/>
      <point x="31.596" y="322.618"/>
      <point x="126.17" y="391.379"/>
      <point x="232" y="391.379" type="curve" smooth="yes"/>
      <point x="259" y="391.379"/>
      <point x="291.655" y="386.086"/>
      <point x="321" y="375" type="curve"/>
      <point x="321" y="343" type="line"/>
      <point x="293.887" y="355.911"/>
      <point x="266" y="362.352"/>
      <point x="234" y="362.352" type="curve" smooth="yes"/>
      <point x="154" y="362.352"/>
      <point x="97.9043" y="321"/>
      <point x="97.9043" y="261.757" type="curve" smooth="yes"/>
      <point x="97.9043" y="174"/>
      <point x="188" y="140"/>
      <point x="278" y="140" type="curve" smooth="yes"/>
      <point x="401" y="140"/>
      <point x="489.086" y="201"/>
      <point x="489.086" y="325.66" type="curve" smooth="yes"/>
      <point x="489.086" y="430"/>
      <point x="418" y="551.085"/>
      <point x="275.44" y="551.085" type="curve" smooth="yes"/>
      <point x="194.708" y="551.085"/>
      <point x="135" y="523"/>
      <point x="93" y="470" type="curve"/>
      <point x="57" y="470" type="line"/>
      <point x="103.928" y="539.372"/>
      <point x="176.65" y="577.08"/>
      <point x="273.087" y="577.08" type="curve" smooth="yes"/>
      <point x="446.243" y="577.08"/>
      <point x="557.007" y="433.237"/>
      <point x="557.007" y="271.183" type="curve" smooth="yes"/>
      <point x="557.007" y="115.251"/>
      <point x="447.244" y="-1.15399"/>
      <point x="285.242" y="-1.15399" type="curve" smooth="yes"/>
      <point x="132.918" y="-1.15399"/>
      <point x="31.596" y="80.6392"/>
    </contour>
  </outline>
</glyph>
<glyph name="si_Ttha" format="1">
  <advance width="614"/>
  <unicode hex="0DA8"/>
  <outline>
    <contour>
      <point x="33" y="195" type="curve" smooth="yes"/>
      <point x="33" y="288"/>
      <point x="86.2482" y="363.669"/>
      <point x="152" y="387" type="curve" smooth="yes"/>
      <point x="172.667" y="394.333"/>
      <point x="195.667" y="398"/>
      <point x="221" y="398" type="curve"/>
      <point x="221" y="371" type="line"/>
      <point x="217.651" y="371.289"/>
      <point x="214.316" y="371.437"/>
      <point x="211" y="371.437" type="curve" smooth="yes"/>
      <point x="132" y="371.437"/>
      <point x="90" y="304.536"/>
      <point x="90" y="246" type="curve" smooth="yes"/>
      <point x="90" y="193.204"/>
      <point x="113.501" y="140"/>
      <point x="189.5" y="140" type="curve" smooth="yes"/>
      <point x="240.411" y="140"/>
      <point x="288.75" y="161"/>
      <point x="288.75" y="225" type="curve" smooth="yes"/>
      <point x="288.75" y="248" type="line"/>
      <point x="319.25" y="248" type="line"/>
      <point x="319.25" y="225" type="line" smooth="yes"/>
      <point x="319.25" y="161"/>
      <point x="365.33" y="140"/>
      <point x="414.5" y="140" type="curve" smooth="yes"/>
      <point x="510.21" y="140"/>
      <point x="536" y="224.626"/>
      <point x="536" y="280" type="curve" smooth="yes"/>
      <point x="536" y="338.059"/>
      <point x="523.75" y="385"/>
      <point x="502.75" y="417" type="curve"/>
      <point x="488.837" y="388.297"/>
      <point x="459" y="367"/>
      <point x="416" y="367" type="curve" smooth="yes"/>
      <point x="352.845" y="367"/>
      <point x="316" y="422"/>
      <point x="316" y="488" type="curve" smooth="yes"/>
      <point x="316" y="538"/>
      <point x="331" y="574"/>
      <point x="358" y="605" type="curve"/>
      <point x="419" y="572"/>
      <point x="489.965" y="500.242"/>
      <point x="526" y="438" type="curve" smooth="yes"/>
      <point x="564.783" y="371.012"/>
      <point x="589" y="307"/>
      <point x="589" y="232" type="curve" smooth="yes"/>
      <point x="589" y="130"/>
      <point x="547.876" y="0"/>
      <point x="422" y="0" type="curve" smooth="yes"/>
      <point x="372.667" y="0"/>
      <point x="333" y="19.6667"/>
      <point x="303" y="59" type="curve"/>
      <point x="272.333" y="20.3333"/>
      <point x="234.672" y="0"/>
      <point x="190" y="0" type="curve" smooth="yes"/>
      <point x="88" y="0"/>
      <point x="33" y="96"/>
    </contour>
    <contour>
      <point x="347.82" y="490.807" type="curve" smooth="yes"/>
      <point x="347.82" y="442.943"/>
      <point x="367.226" y="404.459"/>
      <point x="422.526" y="404.459" type="curve" smooth="yes"/>
      <point x="445.812" y="404.459"/>
      <point x="472.747" y="415.267"/>
      <point x="482.68" y="448.117" type="curve"/>
      <point x="453.573" y="492.747"/>
      <point x="405.062" y="537.376"/>
      <point x="368.195" y="564.541" type="curve"/>
      <point x="356.553" y="547.078"/>
      <point x="347.82" y="524.44"/>
    </contour>
  </outline>
</glyph>
<glyph name="si_Ddha" format="1">
  <advance width="647"/>
  <unicode hex="0DAA"/>
  <outline>
    <contour>
      <point x="15" y="285" type="line"/>
      <point x="15" y="315" type="line"/>
      <point x="256" y="315" type="line"/>
      <point x="255" y="354"/>
      <point x="229" y="388"/>
      <point x="197" y="388" type="curve" smooth="yes"/>
      <point x="188" y="388"/>
      <point x="169" y="387"/>
      <point x="154" y="360" type="curve" smooth="yes"/>
      <point x="144" y="342"/>
      <point x="129" y="335"/>
      <point x="113" y="335" type="curve" smooth="yes"/>
      <point x="89" y="335"/>
      <point x="73" y="351"/>
      <point x="73" y="373" type="curve" smooth="yes"/>
      <point x="73" y="413"/>
      <point x="121" y="432"/>
      <point x="163" y="432" type="curve" smooth="yes"/>
      <point x="242" y="432"/>
      <point x="293" y="382"/>
      <point x="293" y="285" type="curve"/>
      <point x="224" y="285" type="line" smooth="yes"/>
      <point x="131" y="285"/>
      <point x="109" y="234"/>
      <point x="109" y="210" type="curve" smooth="yes"/>
      <point x="109" y="164"/>
      <point x="150" y="140"/>
      <point x="203" y="140" type="curve" smooth="yes"/>
      <point x="267" y="140"/>
      <point x="297" y="161"/>
      <point x="297" y="200" type="curve" smooth="yes"/>
      <point x="297" y="221" type="line"/>
      <point x="328" y="221" type="line"/>
      <point x="328" y="200" type="line" smooth="yes"/>
      <point x="328" y="164"/>
      <point x="353" y="140"/>
      <point x="414" y="140" type="curve" smooth="yes"/>
      <point x="489" y="140"/>
      <point x="537" y="200"/>
      <point x="537" y="293" type="curve" smooth="yes"/>
      <point x="537" y="336"/>
      <point x="525" y="377"/>
      <point x="508" y="414" type="curve"/>
      <point x="491" y="388"/>
      <point x="465" y="363"/>
      <point x="422" y="363" type="curve" smooth="yes"/>
      <point x="356" y="363"/>
      <point x="318" y="411"/>
      <point x="318" y="477" type="curve" smooth="yes"/>
      <point x="318" y="541"/>
      <point x="348" y="586"/>
      <point x="359" y="603" type="curve"/>
      <point x="473" y="558"/>
      <point x="598" y="402"/>
      <point x="598" y="256" type="curve" smooth="yes"/>
      <point x="598" y="110"/>
      <point x="547" y="0"/>
      <point x="428" y="-0" type="curve" smooth="yes"/>
      <point x="363" y="0"/>
      <point x="335" y="29"/>
      <point x="313" y="59" type="curve"/>
      <point x="283" y="22"/>
      <point x="250" y="0"/>
      <point x="199" y="0" type="curve" smooth="yes"/>
      <point x="98" y="0"/>
      <point x="46" y="81"/>
      <point x="46" y="162" type="curve" smooth="yes"/>
      <point x="46" y="212"/>
      <point x="71" y="261"/>
      <point x="125" y="285" type="curve"/>
    </contour>
    <contour>
      <point x="350" y="481" type="curve" smooth="yes"/>
      <point x="350" y="424"/>
      <point x="378" y="396"/>
      <point x="424" y="396" type="curve" smooth="yes"/>
      <point x="455" y="396"/>
      <point x="478" y="420"/>
      <point x="491" y="445" type="curve"/>
      <point x="456" y="502"/>
      <point x="409" y="545"/>
      <point x="374" y="562" type="curve"/>
      <point x="361" y="547"/>
      <point x="350" y="510"/>
    </contour>
  </outline>
</glyph>
<glyph name="uni0DAB" format="1">
  <advance width="963"/>
  <unicode hex="0DAB"/>
  <outline>
    <contour>
      <point x="22" y="178" type="line"/>
      <point x="232" y="322"/>
      <point x="505" y="453"/>
      <point x="660" y="501" type="curve" smooth="yes"/>
      <point x="721" y="520"/>
      <point x="762" y="528"/>
      <point x="805" y="528" type="curve" smooth="yes"/>
      <point x="844" y="528"/>
      <point x="863" y="506"/>
      <point x="863" y="485" type="curve" smooth="yes"/>
      <point x="863" y="470"/>
      <point x="854" y="447"/>
      <point x="819" y="444" type="curve" smooth="yes"/>
      <point x="784" y="441"/>
      <point x="680" y="433"/>
      <point x="600" y="416" type="curve" smooth="yes"/>
      <point x="415" y="376"/>
      <point x="247" y="288"/>
      <point x="116" y="206" type="curve"/>
      <point x="177" y="206"/>
      <point x="195" y="129"/>
      <point x="337" y="129" type="curve" smooth="yes"/>
      <point x="455" y="129"/>
      <point x="492" y="204"/>
      <point x="492" y="270" type="curve" smooth="yes"/>
      <point x="492" y="316"/>
      <point x="460" y="404"/>
      <point x="355" y="404" type="curve" smooth="yes"/>
      <point x="271" y="404"/>
      <point x="202" y="366"/>
      <point x="202" y="297" type="curve" smooth="yes"/>
      <point x="202" y="222"/>
      <point x="268" y="199"/>
      <point x="322" y="199" type="curve"/>
      <point x="405" y="194" type="line"/>
      <point x="384" y="180"/>
      <point x="362" y="170"/>
      <point x="321" y="170" type="curve" smooth="yes"/>
      <point x="232" y="170"/>
      <point x="170" y="217"/>
      <point x="170" y="292" type="curve" smooth="yes"/>
      <point x="170" y="384"/>
      <point x="253" y="433"/>
      <point x="359" y="433" type="curve" smooth="yes"/>
      <point x="440" y="433"/>
      <point x="584" y="390"/>
      <point x="584" y="213" type="curve" smooth="yes"/>
      <point x="584" y="114"/>
      <point x="520" y="0"/>
      <point x="365" y="0" type="curve" smooth="yes"/>
      <point x="167" y="0"/>
      <point x="180" y="179"/>
      <point x="99" y="179" type="curve" smooth="yes"/>
      <point x="71" y="179"/>
      <point x="54" y="166"/>
      <point x="33" y="152" type="curve"/>
    </contour>
    <contour>
      <point x="266" y="264" type="curve" smooth="yes"/>
      <point x="266" y="312"/>
      <point x="305" y="351"/>
      <point x="353" y="351" type="curve" smooth="yes"/>
      <point x="401" y="351"/>
      <point x="440" y="312"/>
      <point x="440" y="264" type="curve" smooth="yes"/>
      <point x="440" y="216"/>
      <point x="401" y="177"/>
      <point x="353" y="177" type="curve" smooth="yes"/>
      <point x="305" y="177"/>
      <point x="266" y="216"/>
    </contour>
    <contour>
      <point x="296" y="264" type="curve" smooth="yes"/>
      <point x="296" y="233"/>
      <point x="321" y="208"/>
      <point x="352" y="208" type="curve" smooth="yes"/>
      <point x="383" y="208"/>
      <point x="408" y="233"/>
      <point x="408" y="264" type="curve" smooth="yes"/>
      <point x="408" y="295"/>
      <point x="383" y="320"/>
      <point x="352" y="320" type="curve" smooth="yes"/>
      <point x="321" y="320"/>
      <point x="296" y="295"/>
    </contour>
    <contour>
      <point x="549" y="161" type="curve" smooth="yes"/>
      <point x="549" y="230"/>
      <point x="591" y="286"/>
      <point x="645" y="286" type="curve" smooth="yes"/>
      <point x="678" y="286"/>
      <point x="703" y="274"/>
      <point x="719" y="251" type="curve"/>
      <point x="723" y="300"/>
      <point x="751" y="348"/>
      <point x="812" y="348" type="curve" smooth="yes"/>
      <point x="882" y="348"/>
      <point x="915" y="265"/>
      <point x="915" y="168" type="curve" smooth="yes"/>
      <point x="915" y="73"/>
      <point x="883" y="-1"/>
      <point x="800" y="-1" type="curve" smooth="yes"/>
      <point x="748" y="-1"/>
      <point x="719" y="33"/>
      <point x="714" y="68" type="curve"/>
      <point x="697" y="48"/>
      <point x="674" y="36"/>
      <point x="645" y="36" type="curve" smooth="yes"/>
      <point x="591" y="36"/>
      <point x="549" y="92"/>
    </contour>
    <contour>
      <point x="579" y="162" type="curve" smooth="yes"/>
      <point x="579" y="111"/>
      <point x="607" y="69"/>
      <point x="643" y="69" type="curve" smooth="yes"/>
      <point x="684" y="69"/>
      <point x="708" y="106"/>
      <point x="708" y="162" type="curve" smooth="yes"/>
      <point x="708" y="221"/>
      <point x="687" y="255"/>
      <point x="643" y="255" type="curve" smooth="yes"/>
      <point x="607" y="255"/>
      <point x="579" y="213"/>
    </contour>
    <contour>
      <point x="736" y="105" type="curve" smooth="yes"/>
      <point x="736" y="58"/>
      <point x="768" y="50"/>
      <point x="778" y="50" type="curve" smooth="yes"/>
      <point x="814" y="50"/>
      <point x="821" y="95"/>
      <point x="821" y="169" type="curve" smooth="yes"/>
      <point x="821" y="245"/>
      <point x="810" y="286"/>
      <point x="780" y="286" type="curve" smooth="yes"/>
      <point x="756" y="286"/>
      <point x="742" y="253"/>
      <point x="739" y="191" type="curve" smooth="yes"/>
      <point x="741" y="182"/>
      <point x="741" y="172"/>
      <point x="741" y="161" type="curve" smooth="yes"/>
      <point x="741" y="145"/>
      <point x="739" y="130"/>
      <point x="736" y="116" type="curve" smooth="yes"/>
      <point x="736" y="112"/>
      <point x="736" y="109"/>
    </contour>
  </outline>
</glyph>
<glyph name="si_Dha" format="1">
  <advance width="638"/>
  <unicode hex="0DB0"/>
  <outline>
    <contour>
      <point x="33" y="195" type="curve" smooth="yes"/>
      <point x="33" y="288"/>
      <point x="86" y="364"/>
      <point x="152" y="387" type="curve" smooth="yes"/>
      <point x="173" y="394"/>
      <point x="196" y="398"/>
      <point x="221" y="398" type="curve"/>
      <point x="221" y="372" type="line"/>
      <point x="218" y="372"/>
      <point x="214" y="372"/>
      <point x="211" y="372" type="curve" smooth="yes"/>
      <point x="132" y="372"/>
      <point x="88" y="307"/>
      <point x="88" y="242" type="curve" smooth="yes"/>
      <point x="88" y="187"/>
      <point x="120" y="140"/>
      <point x="193" y="140" type="curve" smooth="yes"/>
      <point x="244" y="140"/>
      <point x="288" y="161"/>
      <point x="288" y="225" type="curve" smooth="yes"/>
      <point x="288" y="249" type="line"/>
      <point x="319" y="249" type="line"/>
      <point x="319" y="225" type="line" smooth="yes"/>
      <point x="319" y="161"/>
      <point x="363" y="140"/>
      <point x="412" y="140" type="curve" smooth="yes"/>
      <point x="508" y="140"/>
      <point x="526" y="231"/>
      <point x="526" y="304" type="curve" smooth="yes"/>
      <point x="526" y="427"/>
      <point x="441" y="554"/>
      <point x="294" y="554" type="curve" smooth="yes"/>
      <point x="213" y="554"/>
      <point x="151" y="525"/>
      <point x="99" y="468" type="curve"/>
      <point x="65" y="468" type="line"/>
      <point x="122" y="543"/>
      <point x="200" y="580"/>
      <point x="299" y="580" type="curve" smooth="yes"/>
      <point x="462" y="580"/>
      <point x="589" y="446"/>
      <point x="589" y="261" type="curve" smooth="yes"/>
      <point x="589" y="139"/>
      <point x="548" y="0"/>
      <point x="422" y="0" type="curve" smooth="yes"/>
      <point x="373" y="0"/>
      <point x="333" y="20"/>
      <point x="303" y="59" type="curve"/>
      <point x="272" y="20"/>
      <point x="235" y="0"/>
      <point x="190" y="0" type="curve" smooth="yes"/>
      <point x="88" y="0"/>
      <point x="33" y="96"/>
    </contour>
  </outline>
</glyph>
<glyph name="si_Pha" format="1">
  <advance width="583"/>
  <unicode hex="0DB5"/>
  <outline>
    <contour>
      <point x="33" y="165" type="curve" smooth="yes"/>
      <point x="33" y="195.721"/>
      <point x="40.0923" y="239.72"/>
      <point x="80.75" y="270.5" type="curve" smooth="yes"/>
      <point x="125.824" y="304.623"/>
      <point x="186.055" y="309"/>
      <point x="236.75" y="309" type="curve" smooth="yes"/>
      <point x="246.75" y="309" type="line"/>
      <point x="246.832" y="311.041"/>
      <point x="246.836" y="313.041"/>
      <point x="246.836" y="315" type="curve" smooth="yes"/>
      <point x="246.836" y="357.472"/>
      <point x="216.116" y="389"/>
      <point x="181" y="389" type="curve" smooth="yes"/>
      <point x="158" y="389"/>
      <point x="140.745" y="371.085"/>
      <point x="135.5" y="355" type="curve" smooth="yes"/>
      <point x="128" y="332"/>
      <point x="116" y="321"/>
      <point x="90" y="321" type="curve" smooth="yes"/>
      <point x="72" y="321"/>
      <point x="52" y="333.368"/>
      <point x="52" y="359" type="curve" smooth="yes"/>
      <point x="52" y="406"/>
      <point x="102" y="431.5"/>
      <point x="157" y="431.5" type="curve" smooth="yes"/>
      <point x="245" y="431.5"/>
      <point x="280.896" y="364.157"/>
      <point x="280.896" y="297" type="curve" smooth="yes"/>
      <point x="280.896" y="293.722"/>
      <point x="280.851" y="285.388"/>
      <point x="280.75" y="282" type="curve"/>
      <point x="219.5" y="282" type="line" smooth="yes"/>
      <point x="154.763" y="282"/>
      <point x="101" y="261.956"/>
      <point x="101" y="213" type="curve" smooth="yes"/>
      <point x="101" y="158"/>
      <point x="187" y="140"/>
      <point x="267" y="140" type="curve" smooth="yes"/>
      <point x="420" y="140"/>
      <point x="484" y="210"/>
      <point x="484" y="301" type="curve" smooth="yes"/>
      <point x="484" y="351"/>
      <point x="472" y="387"/>
      <point x="459" y="410" type="curve"/>
      <point x="444" y="379"/>
      <point x="414" y="359"/>
      <point x="371" y="359" type="curve" smooth="yes"/>
      <point x="307.845" y="359"/>
      <point x="271" y="414"/>
      <point x="271" y="480" type="curve" smooth="yes"/>
      <point x="271" y="530"/>
      <point x="286" y="566"/>
      <point x="313" y="597" type="curve"/>
      <point x="374" y="564"/>
      <point x="444.965" y="492.242"/>
      <point x="481" y="430" type="curve" smooth="yes"/>
      <point x="519.783" y="363.012"/>
      <point x="533" y="315"/>
      <point x="533" y="245" type="curve" smooth="yes"/>
      <point x="533" y="117"/>
      <point x="447" y="0"/>
      <point x="264" y="0" type="curve" smooth="yes"/>
      <point x="143" y="0"/>
      <point x="33" y="46"/>
    </contour>
    <contour>
      <point x="305" y="488" type="curve" smooth="yes"/>
      <point x="305" y="438.667"/>
      <point x="338" y="406"/>
      <point x="382" y="406" type="curve" smooth="yes"/>
      <point x="401" y="406"/>
      <point x="427" y="416"/>
      <point x="437" y="441" type="curve"/>
      <point x="407" y="485"/>
      <point x="360" y="529"/>
      <point x="322" y="557" type="curve"/>
      <point x="314" y="540"/>
      <point x="305" y="518"/>
    </contour>
  </outline>
</glyph>
<glyph name="uni0DB8" format="1">
  <advance width="635"/>
  <unicode hex="0DB8"/>
  <outline>
    <contour>
      <point x="265" y="352" type="curve" smooth="yes"/>
      <point x="265" y="326"/>
      <point x="287" y="304"/>
      <point x="313" y="304" type="curve" smooth="yes"/>
      <point x="339" y="304"/>
      <point x="361" y="326"/>
      <point x="361" y="352" type="curve" smooth="yes"/>
      <point x="361" y="378"/>
      <point x="339" y="400"/>
      <point x="313" y="400" type="curve" smooth="yes"/>
      <point x="287" y="400"/>
      <point x="265" y="378"/>
    </contour>
    <contour>
      <point x="33" y="250" type="curve" smooth="yes"/>
      <point x="33" y="339"/>
      <point x="79" y="432"/>
      <point x="156" y="432" type="curve" smooth="yes"/>
      <point x="205" y="432"/>
      <point x="210" y="400"/>
      <point x="210" y="378" type="curve" smooth="yes"/>
      <point x="210" y="351"/>
      <point x="204" y="344"/>
      <point x="204" y="310" type="curve" smooth="yes"/>
      <point x="204" y="261"/>
      <point x="245" y="230"/>
      <point x="300" y="230" type="curve" smooth="yes"/>
      <point x="360" y="230"/>
      <point x="401" y="260"/>
      <point x="401" y="320" type="curve" smooth="yes"/>
      <point x="401" y="348"/>
      <point x="392" y="359"/>
      <point x="387" y="366" type="curve"/>
      <point x="389" y="356"/>
      <point x="389" y="351"/>
      <point x="389" y="343" type="curve" smooth="yes"/>
      <point x="389" y="306"/>
      <point x="361" y="271"/>
      <point x="313" y="271" type="curve" smooth="yes"/>
      <point x="262" y="271"/>
      <point x="233" y="315"/>
      <point x="233" y="351" type="curve" smooth="yes"/>
      <point x="233" y="397"/>
      <point x="270" y="432"/>
      <point x="318" y="432" type="curve" smooth="yes"/>
      <point x="387" y="432"/>
      <point x="433" y="387"/>
      <point x="433" y="315" type="curve" smooth="yes"/>
      <point x="433" y="239"/>
      <point x="375" y="198"/>
      <point x="302" y="198" type="curve" smooth="yes"/>
      <point x="242" y="198"/>
      <point x="170" y="232"/>
      <point x="170" y="304" type="curve" smooth="yes"/>
      <point x="170" y="337"/>
      <point x="178" y="358"/>
      <point x="178" y="376" type="curve" smooth="yes"/>
      <point x="178" y="388"/>
      <point x="176" y="402"/>
      <point x="154" y="402" type="curve" smooth="yes"/>
      <point x="112" y="402"/>
      <point x="93" y="350"/>
      <point x="93" y="310" type="curve" smooth="yes"/>
      <point x="93" y="205"/>
      <point x="181" y="134"/>
      <point x="302" y="134" type="curve" smooth="yes"/>
      <point x="420" y="134"/>
      <point x="516" y="203"/>
      <point x="516" y="333" type="curve" smooth="yes"/>
      <point x="516" y="441"/>
      <point x="444" y="557"/>
      <point x="303" y="557" type="curve" smooth="yes"/>
      <point x="222" y="557"/>
      <point x="160" y="528"/>
      <point x="113" y="469" type="curve"/>
      <point x="78" y="469" type="line"/>
      <point x="127" y="544"/>
      <point x="209" y="586"/>
      <point x="302" y="586" type="curve" smooth="yes"/>
      <point x="462" y="586"/>
      <point x="585" y="454"/>
      <point x="585" y="292" type="curve" smooth="yes"/>
      <point x="585" y="110"/>
      <point x="475" y="0"/>
      <point x="310" y="0" type="curve" smooth="yes"/>
      <point x="143" y="0"/>
      <point x="33" y="94"/>
    </contour>
  </outline>
</glyph>
<glyph name="si_Mba" format="1">
  <advance width="636"/>
  <unicode hex="0DB9"/>
  <outline>
    <contour>
      <point x="30" y="230" type="curve" smooth="yes"/>
      <point x="30" y="338"/>
      <point x="74" y="431.5"/>
      <point x="148" y="431.5" type="curve" smooth="yes"/>
      <point x="167.007" y="431.5"/>
      <point x="175" y="428"/>
      <point x="182" y="423" type="curve" smooth="yes"/>
      <point x="192.609" y="415.422"/>
      <point x="200.873" y="401"/>
      <point x="200.873" y="371" type="curve" smooth="yes"/>
      <point x="200.873" y="357"/>
      <point x="201" y="358.015"/>
      <point x="201" y="355" type="curve" smooth="yes"/>
      <point x="201" y="302"/>
      <point x="232" y="267"/>
      <point x="297" y="267" type="curve" smooth="yes"/>
      <point x="350.167" y="267"/>
      <point x="375.25" y="299"/>
      <point x="375.25" y="315" type="curve" smooth="yes"/>
      <point x="375.25" y="316"/>
      <point x="375.25" y="315"/>
      <point x="375.25" y="317" type="curve"/>
      <point x="371.25" y="312"/>
      <point x="358.656" y="289"/>
      <point x="318" y="289" type="curve" smooth="yes"/>
      <point x="271.278" y="289"/>
      <point x="245" y="324.079"/>
      <point x="245" y="360" type="curve" smooth="yes"/>
      <point x="245" y="402"/>
      <point x="277" y="434"/>
      <point x="322" y="434" type="curve" smooth="yes"/>
      <point x="381" y="434"/>
      <point x="408" y="383"/>
      <point x="408" y="337" type="curve" smooth="yes"/>
      <point x="408" y="280"/>
      <point x="363" y="238"/>
      <point x="292" y="238" type="curve" smooth="yes"/>
      <point x="218" y="238"/>
      <point x="170.5" y="282"/>
      <point x="170.5" y="357" type="curve" smooth="yes"/>
      <point x="170.5" y="362.22"/>
      <point x="170.775" y="362.935"/>
      <point x="170.775" y="372" type="curve" smooth="yes"/>
      <point x="170.775" y="392"/>
      <point x="164" y="403.75"/>
      <point x="145" y="403.75" type="curve" smooth="yes"/>
      <point x="98" y="403.75"/>
      <point x="74" y="329"/>
      <point x="74" y="279" type="curve" smooth="yes"/>
      <point x="74" y="198"/>
      <point x="109" y="124.75"/>
      <point x="180.086" y="124.75" type="curve" smooth="yes"/>
      <point x="197" y="124.75"/>
      <point x="211.086" y="128.75"/>
      <point x="219.086" y="135.75" type="curve"/>
      <point x="219.086" y="142.75"/>
      <point x="220.537" y="150.474"/>
      <point x="223.254" y="159.75" type="curve" smooth="yes"/>
      <point x="234.618" y="198.558"/>
      <point x="268.118" y="218.75"/>
      <point x="310.086" y="218.75" type="curve" smooth="yes"/>
      <point x="352.054" y="218.75"/>
      <point x="385.554" y="198.558"/>
      <point x="396.917" y="159.75" type="curve" smooth="yes"/>
      <point x="399.634" y="150.474"/>
      <point x="401.086" y="142.75"/>
      <point x="401.086" y="135.75" type="curve"/>
      <point x="410" y="128.75"/>
      <point x="422" y="124.75"/>
      <point x="440.086" y="124.75" type="curve" smooth="yes"/>
      <point x="497" y="124.75"/>
      <point x="529" y="211.25"/>
      <point x="529" y="304.25" type="curve" smooth="yes"/>
      <point x="529" y="418.25"/>
      <point x="458" y="553"/>
      <point x="298" y="553" type="curve" smooth="yes"/>
      <point x="199" y="553"/>
      <point x="142" y="522"/>
      <point x="96" y="466" type="curve"/>
      <point x="62" y="466" type="line"/>
      <point x="107" y="531"/>
      <point x="173" y="579"/>
      <point x="300" y="579" type="curve" smooth="yes"/>
      <point x="488" y="579"/>
      <point x="590" y="431.115"/>
      <point x="590" y="254" type="curve" smooth="yes"/>
      <point x="590" y="126.501"/>
      <point x="523" y="0"/>
      <point x="424.086" y="0" type="curve" smooth="yes"/>
      <point x="400.086" y="0"/>
      <point x="389.753" y="4"/>
      <point x="359.086" y="12" type="curve"/>
      <point x="356.086" y="16"/>
      <point x="355.086" y="40.333"/>
      <point x="355.086" y="47" type="curve" smooth="yes"/>
      <point x="355.086" y="78.675"/>
      <point x="370.086" y="93.0344"/>
      <point x="370.086" y="120.75" type="curve" smooth="yes"/>
      <point x="370.086" y="157.75"/>
      <point x="354.086" y="186.75"/>
      <point x="310.086" y="186.75" type="curve" smooth="yes"/>
      <point x="266.086" y="186.75"/>
      <point x="250.086" y="157.75"/>
      <point x="250.086" y="120.75" type="curve" smooth="yes"/>
      <point x="250.086" y="92.7341"/>
      <point x="265.086" y="78.4224"/>
      <point x="265.086" y="47" type="curve" smooth="yes"/>
      <point x="265.086" y="40.333"/>
      <point x="264.086" y="16"/>
      <point x="261.086" y="12" type="curve"/>
      <point x="230.419" y="4"/>
      <point x="220.086" y="0"/>
      <point x="196.086" y="0" type="curve" smooth="yes"/>
      <point x="86" y="0"/>
      <point x="30" y="119.832"/>
    </contour>
    <contour>
      <point x="274.94" y="363" type="curve" smooth="yes"/>
      <point x="274.94" y="337.52"/>
      <point x="295.52" y="316.94"/>
      <point x="321" y="316.94" type="curve" smooth="yes"/>
      <point x="346.48" y="316.94"/>
      <point x="367.06" y="337.52"/>
      <point x="367.06" y="363" type="curve" smooth="yes"/>
      <point x="367.06" y="388.48"/>
      <point x="346.48" y="409.06"/>
      <point x="321" y="409.06" type="curve" smooth="yes"/>
      <point x="295.52" y="409.06"/>
      <point x="274.94" y="388.48"/>
    </contour>
  </outline>
</glyph>
<glyph name="si_Ya" format="1">
  <advance width="636"/>
  <unicode hex="0DBA"/>
  <outline>
    <contour>
      <point x="30" y="185" type="curve" smooth="yes"/>
      <point x="30" y="305"/>
      <point x="106" y="389"/>
      <point x="223" y="389" type="curve" smooth="yes"/>
      <point x="233" y="389"/>
      <point x="242" y="388"/>
      <point x="251" y="387" type="curve"/>
      <point x="251" y="357" type="line"/>
      <point x="240" y="359"/>
      <point x="230" y="360"/>
      <point x="219" y="360" type="curve" smooth="yes"/>
      <point x="130" y="360"/>
      <point x="82" y="299"/>
      <point x="82" y="241" type="curve" smooth="yes"/>
      <point x="82" y="182"/>
      <point x="118" y="140"/>
      <point x="193" y="140" type="curve" smooth="yes"/>
      <point x="242" y="140"/>
      <point x="294" y="160"/>
      <point x="294" y="209" type="curve" smooth="yes"/>
      <point x="294" y="231" type="line"/>
      <point x="323" y="231" type="line"/>
      <point x="323" y="210" type="line" smooth="yes"/>
      <point x="323" y="161"/>
      <point x="378" y="140"/>
      <point x="435" y="140" type="curve" smooth="yes"/>
      <point x="517" y="140"/>
      <point x="538" y="184"/>
      <point x="538" y="214" type="curve" smooth="yes"/>
      <point x="538" y="268"/>
      <point x="494" y="298"/>
      <point x="408" y="298" type="curve" smooth="yes"/>
      <point x="378" y="298"/>
      <point x="349" y="294"/>
      <point x="322" y="287" type="curve"/>
      <point x="321" y="294"/>
      <point x="321" y="303"/>
      <point x="321" y="310" type="curve" smooth="yes"/>
      <point x="321" y="389"/>
      <point x="367" y="433"/>
      <point x="451" y="433" type="curve" smooth="yes"/>
      <point x="511" y="433"/>
      <point x="558" y="409"/>
      <point x="558" y="357" type="curve" smooth="yes"/>
      <point x="558" y="338"/>
      <point x="548" y="312"/>
      <point x="521" y="303" type="curve"/>
      <point x="564" y="277"/>
      <point x="592" y="228"/>
      <point x="592" y="167" type="curve" smooth="yes"/>
      <point x="592" y="71"/>
      <point x="528" y="-1"/>
      <point x="436" y="-1" type="curve" smooth="yes"/>
      <point x="370" y="-1"/>
      <point x="327" y="25"/>
      <point x="307" y="71" type="curve"/>
      <point x="284" y="23"/>
      <point x="244" y="-1"/>
      <point x="186" y="-1" type="curve" smooth="yes"/>
      <point x="85" y="-1"/>
      <point x="30" y="82"/>
    </contour>
    <contour>
      <point x="352" y="320" type="curve"/>
      <point x="368" y="324"/>
      <point x="390" y="325"/>
      <point x="410" y="325" type="curve" smooth="yes"/>
      <point x="446" y="325"/>
      <point x="472" y="322"/>
      <point x="494" y="315" type="curve"/>
      <point x="507" y="321"/>
      <point x="516" y="333"/>
      <point x="516" y="349" type="curve" smooth="yes"/>
      <point x="516" y="373"/>
      <point x="487" y="392"/>
      <point x="452" y="392" type="curve" smooth="yes"/>
      <point x="393" y="392"/>
      <point x="353" y="365"/>
    </contour>
  </outline>
</glyph>
<glyph name="si_Ra" format="1">
  <advance width="528"/>
  <unicode hex="0DBB"/>
  <outline>
    <contour>
      <point x="31" y="213" type="curve" smooth="yes"/>
      <point x="31" y="323"/>
      <point x="96" y="390"/>
      <point x="182" y="423" type="curve" smooth="yes"/>
      <point x="260" y="453"/>
      <point x="304" y="464"/>
      <point x="367" y="512" type="curve" smooth="yes"/>
      <point x="423" y="556"/>
      <point x="435" y="614"/>
      <point x="488" y="614" type="curve" smooth="yes"/>
      <point x="503" y="614"/>
      <point x="526" y="604"/>
      <point x="526" y="580" type="curve" smooth="yes"/>
      <point x="526" y="551"/>
      <point x="502" y="524"/>
      <point x="440" y="491" type="curve" smooth="yes"/>
      <point x="403" y="471"/>
      <point x="333" y="446"/>
      <point x="291" y="434" type="curve"/>
      <point x="330" y="434"/>
      <point x="388" y="413"/>
      <point x="430" y="366" type="curve" smooth="yes"/>
      <point x="465" y="326"/>
      <point x="482" y="281"/>
      <point x="482" y="225" type="curve" smooth="yes"/>
      <point x="482" y="102"/>
      <point x="384" y="0"/>
      <point x="248" y="0" type="curve" smooth="yes"/>
      <point x="124" y="0"/>
      <point x="31" y="89"/>
    </contour>
    <contour>
      <point x="79" y="256" type="curve" smooth="yes"/>
      <point x="79" y="198"/>
      <point x="120" y="138"/>
      <point x="228" y="138" type="curve" smooth="yes"/>
      <point x="333" y="138"/>
      <point x="406" y="191"/>
      <point x="406" y="291" type="curve" smooth="yes"/>
      <point x="406" y="362"/>
      <point x="352" y="411"/>
      <point x="260" y="411" type="curve" smooth="yes"/>
      <point x="182" y="411"/>
      <point x="79" y="352"/>
    </contour>
  </outline>
</glyph>
<glyph name="si_La" format="1">
  <advance width="670"/>
  <unicode hex="0DBD"/>
  <outline>
    <contour>
      <point x="31" y="135" type="curve" smooth="yes"/>
      <point x="31" y="323"/>
      <point x="169" y="432"/>
      <point x="364" y="432" type="curve" smooth="yes"/>
      <point x="488" y="432"/>
      <point x="611" y="393"/>
      <point x="611" y="280" type="curve" smooth="yes"/>
      <point x="611" y="210"/>
      <point x="553" y="163"/>
      <point x="485" y="163" type="curve" smooth="yes"/>
      <point x="417" y="163"/>
      <point x="366" y="210"/>
      <point x="366" y="280" type="curve"/>
      <point x="265" y="280" type="line"/>
      <point x="265" y="308" type="line"/>
      <point x="518" y="308" type="line"/>
      <point x="518" y="280" type="line"/>
      <point x="396" y="280" type="line"/>
      <point x="396" y="278"/>
      <point x="396" y="277"/>
      <point x="396" y="276" type="curve" smooth="yes"/>
      <point x="396" y="240"/>
      <point x="438" y="216"/>
      <point x="486" y="216" type="curve" smooth="yes"/>
      <point x="541" y="216"/>
      <point x="573" y="245"/>
      <point x="573" y="294" type="curve" smooth="yes"/>
      <point x="573" y="375"/>
      <point x="477" y="399"/>
      <point x="395" y="399" type="curve" smooth="yes"/>
      <point x="269" y="399"/>
      <point x="178" y="316"/>
      <point x="178" y="171" type="curve" smooth="yes"/>
      <point x="178" y="4"/>
      <point x="279" y="-94"/>
      <point x="420" y="-94" type="curve" smooth="yes"/>
      <point x="487" y="-94"/>
      <point x="592" y="-50"/>
      <point x="592" y="66" type="curve" smooth="yes"/>
      <point x="592" y="72"/>
      <point x="590" y="81"/>
      <point x="588" y="84" type="curve"/>
      <point x="624" y="84" type="line"/>
      <point x="624" y="79"/>
      <point x="624" y="75"/>
      <point x="624" y="70" type="curve" smooth="yes"/>
      <point x="624" y="-72"/>
      <point x="500" y="-154"/>
      <point x="361" y="-154" type="curve" smooth="yes"/>
      <point x="180" y="-154"/>
      <point x="31" y="-58"/>
    </contour>
  </outline>
</glyph>
<glyph name="si_Va" format="1">
  <advance width="597"/>
  <unicode hex="0DC0"/>
  <outline>
    <contour>
      <point x="33" y="165" type="curve" smooth="yes"/>
      <point x="33" y="250"/>
      <point x="98" y="304"/>
      <point x="199" y="304" type="curve" smooth="yes"/>
      <point x="256" y="304" type="line"/>
      <point x="256" y="306"/>
      <point x="256" y="306"/>
      <point x="256" y="308" type="curve" smooth="yes"/>
      <point x="256" y="358"/>
      <point x="224" y="387"/>
      <point x="191" y="387" type="curve" smooth="yes"/>
      <point x="157" y="387"/>
      <point x="146" y="371"/>
      <point x="140" y="355" type="curve" smooth="yes"/>
      <point x="133" y="336"/>
      <point x="122" y="319"/>
      <point x="96" y="319" type="curve" smooth="yes"/>
      <point x="73" y="319"/>
      <point x="56" y="333"/>
      <point x="56" y="359" type="curve" smooth="yes"/>
      <point x="56" y="406"/>
      <point x="106" y="432"/>
      <point x="161" y="432" type="curve" smooth="yes"/>
      <point x="249" y="432"/>
      <point x="292" y="376"/>
      <point x="292" y="290" type="curve" smooth="yes"/>
      <point x="292" y="287"/>
      <point x="292" y="280"/>
      <point x="292" y="277" type="curve"/>
      <point x="211" y="277" type="line" smooth="yes"/>
      <point x="137" y="277"/>
      <point x="101" y="250"/>
      <point x="101" y="213" type="curve" smooth="yes"/>
      <point x="101" y="151"/>
      <point x="196" y="140"/>
      <point x="270" y="140" type="curve" smooth="yes"/>
      <point x="423" y="140"/>
      <point x="491" y="211"/>
      <point x="491" y="317" type="curve" smooth="yes"/>
      <point x="491" y="436"/>
      <point x="410" y="551"/>
      <point x="276" y="551" type="curve" smooth="yes"/>
      <point x="197" y="551"/>
      <point x="136" y="522"/>
      <point x="92" y="470" type="curve"/>
      <point x="57" y="470" type="line"/>
      <point x="106" y="540"/>
      <point x="178" y="577"/>
      <point x="276" y="577" type="curve" smooth="yes"/>
      <point x="436" y="577"/>
      <point x="548" y="443"/>
      <point x="548" y="274" type="curve" smooth="yes"/>
      <point x="548" y="114"/>
      <point x="450" y="0"/>
      <point x="267" y="0" type="curve" smooth="yes"/>
      <point x="146" y="0"/>
      <point x="33" y="46"/>
    </contour>
  </outline>
</glyph>
<glyph name="si_Sha" format="1">
  <advance width="631"/>
  <unicode hex="0DC1"/>
  <outline>
    <contour>
      <point x="34" y="206" type="curve" smooth="yes"/>
      <point x="34" y="334"/>
      <point x="106.999" y="432"/>
      <point x="234" y="432" type="curve" smooth="yes"/>
      <point x="238" y="432"/>
      <point x="248" y="431.5"/>
      <point x="251" y="431" type="curve"/>
      <point x="251" y="406.25" type="line"/>
      <point x="246.64" y="406.553"/>
      <point x="242.305" y="406.713"/>
      <point x="238" y="406.713" type="curve" smooth="yes"/>
      <point x="140" y="406.713"/>
      <point x="88" y="341.401"/>
      <point x="88" y="266.25" type="curve" smooth="yes"/>
      <point x="88" y="216.442"/>
      <point x="117.69" y="140"/>
      <point x="207.5" y="140" type="curve" smooth="yes"/>
      <point x="252.195" y="140"/>
      <point x="295" y="154.29"/>
      <point x="295" y="191" type="curve" smooth="yes"/>
      <point x="295" y="201.748"/>
      <point x="286.855" y="218"/>
      <point x="261.75" y="218" type="curve" smooth="yes"/>
      <point x="255.75" y="218"/>
      <point x="246.75" y="217"/>
      <point x="238.75" y="211" type="curve"/>
      <point x="236.75" y="206"/>
      <point x="235.75" y="197"/>
      <point x="234.75" y="192" type="curve"/>
      <point x="208" y="192" type="line"/>
      <point x="222" y="328"/>
      <point x="276" y="432"/>
      <point x="399" y="432" type="curve" smooth="yes"/>
      <point x="523.001" y="432"/>
      <point x="582" y="312.364"/>
      <point x="582" y="196" type="curve" smooth="yes"/>
      <point x="582" y="128.2"/>
      <point x="558.074" y="36.996"/>
      <point x="529" y="1" type="curve"/>
      <point x="500.25" y="1" type="line"/>
      <point x="503.583" y="5.66699"/>
      <point x="504.5" y="10"/>
      <point x="504.5" y="14" type="curve" smooth="yes"/>
      <point x="504.5" y="20.667"/>
      <point x="500.083" y="27.5"/>
      <point x="492.75" y="27.5" type="curve" smooth="yes"/>
      <point x="471.75" y="27.5"/>
      <point x="465" y="-3"/>
      <point x="427" y="-3" type="curve" smooth="yes"/>
      <point x="390.406" y="-3"/>
      <point x="367" y="36"/>
      <point x="367" y="75" type="curve" smooth="yes"/>
      <point x="367" y="138.085"/>
      <point x="413.734" y="184.499"/>
      <point x="480.25" y="184.5" type="curve" smooth="yes"/>
      <point x="486.987" y="184.5"/>
      <point x="505.991" y="183.682"/>
      <point x="518" y="180" type="curve"/>
      <point x="518.539" y="172.314"/>
      <point x="518.771" y="164.979"/>
      <point x="519" y="152.5" type="curve"/>
      <point x="508.682" y="155.767"/>
      <point x="491.19" y="157"/>
      <point x="482" y="157" type="curve" smooth="yes"/>
      <point x="436.38" y="157"/>
      <point x="399.75" y="125.875"/>
      <point x="399.75" y="79" type="curve" smooth="yes"/>
      <point x="399.75" y="51"/>
      <point x="409.794" y="28.75"/>
      <point x="433" y="28.75" type="curve" smooth="yes"/>
      <point x="458" y="28.75"/>
      <point x="469.104" y="55"/>
      <point x="492.25" y="55" type="curve" smooth="yes"/>
      <point x="500.25" y="55"/>
      <point x="505.967" y="51.8406"/>
      <point x="508.75" y="46.75" type="curve"/>
      <point x="513.483" y="69.6895"/>
      <point x="517" y="102.417"/>
      <point x="517" y="129" type="curve" smooth="yes"/>
      <point x="517" y="224.805"/>
      <point x="473.342" y="320"/>
      <point x="367" y="320" type="curve" smooth="yes"/>
      <point x="311.682" y="320"/>
      <point x="253.042" y="293.583"/>
      <point x="242" y="240" type="curve"/>
      <point x="249" y="243"/>
      <point x="255.333" y="244"/>
      <point x="262" y="244" type="curve" smooth="yes"/>
      <point x="310" y="244"/>
      <point x="343" y="208"/>
      <point x="343" y="138" type="curve" smooth="yes"/>
      <point x="343" y="62"/>
      <point x="289" y="-1"/>
      <point x="198" y="-1" type="curve" smooth="yes"/>
      <point x="90.9953" y="-1"/>
      <point x="34" y="92"/>
    </contour>
  </outline>
</glyph>
<glyph name="si_Ssa" format="1">
  <advance width="622"/>
  <unicode hex="0DC2"/>
  <outline>
    <contour>
      <point x="204" y="221" type="curve" smooth="yes"/>
      <point x="204" y="199"/>
      <point x="236" y="188"/>
      <point x="299" y="188" type="curve" smooth="yes"/>
      <point x="366" y="188"/>
      <point x="400" y="199"/>
      <point x="400" y="220" type="curve" smooth="yes"/>
      <point x="400" y="245"/>
      <point x="367" y="251"/>
      <point x="298" y="251" type="curve" smooth="yes"/>
      <point x="234" y="251"/>
      <point x="204" y="243"/>
    </contour>
    <contour>
      <point x="172" y="222" type="curve" smooth="yes"/>
      <point x="172" y="247"/>
      <point x="192" y="274"/>
      <point x="288" y="274" type="curve" smooth="yes"/>
      <point x="311" y="274"/>
      <point x="358" y="275"/>
      <point x="389" y="280" type="curve" smooth="yes"/>
      <point x="417" y="286"/>
      <point x="450" y="293"/>
      <point x="472" y="307" type="curve"/>
      <point x="496" y="291" type="line"/>
      <point x="465" y="274"/>
      <point x="426" y="265"/>
      <point x="399" y="260" type="curve"/>
      <point x="418" y="251"/>
      <point x="432" y="237"/>
      <point x="432" y="220" type="curve" smooth="yes"/>
      <point x="432" y="176"/>
      <point x="375" y="162"/>
      <point x="296" y="162" type="curve" smooth="yes"/>
      <point x="240" y="162"/>
      <point x="172" y="172"/>
    </contour>
    <contour>
      <point x="355" y="336" type="curve" smooth="yes"/>
      <point x="355" y="332"/>
      <point x="355" y="330"/>
      <point x="356" y="326" type="curve" smooth="yes"/>
      <point x="372" y="329"/>
      <point x="387" y="330"/>
      <point x="403" y="330" type="curve" smooth="yes"/>
      <point x="433" y="330"/>
      <point x="461" y="326"/>
      <point x="486" y="317" type="curve"/>
      <point x="496" y="326"/>
      <point x="502" y="337"/>
      <point x="502" y="351" type="curve" smooth="yes"/>
      <point x="502" y="380"/>
      <point x="475" y="402"/>
      <point x="432" y="402" type="curve" smooth="yes"/>
      <point x="389" y="402"/>
      <point x="355" y="377"/>
    </contour>
    <contour>
      <point x="31" y="184" type="curve" smooth="yes"/>
      <point x="31" y="275"/>
      <point x="99" y="328"/>
      <point x="207" y="328" type="curve" smooth="yes"/>
      <point x="220" y="328"/>
      <point x="230" y="328"/>
      <point x="242" y="326" type="curve" smooth="yes"/>
      <point x="243" y="330"/>
      <point x="243" y="332"/>
      <point x="243" y="336" type="curve" smooth="yes"/>
      <point x="243" y="375"/>
      <point x="216" y="392"/>
      <point x="191" y="392" type="curve" smooth="yes"/>
      <point x="159" y="392"/>
      <point x="151" y="375"/>
      <point x="146" y="356" type="curve" smooth="yes"/>
      <point x="142" y="342"/>
      <point x="127" y="326"/>
      <point x="99" y="326" type="curve" smooth="yes"/>
      <point x="72" y="326"/>
      <point x="55" y="341"/>
      <point x="55" y="366" type="curve" smooth="yes"/>
      <point x="55" y="408"/>
      <point x="103" y="434"/>
      <point x="158" y="434" type="curve" smooth="yes"/>
      <point x="231" y="434"/>
      <point x="275" y="401"/>
      <point x="275" y="334" type="curve" smooth="yes"/>
      <point x="275" y="323"/>
      <point x="274" y="311"/>
      <point x="271" y="298" type="curve"/>
      <point x="253" y="300"/>
      <point x="218" y="302"/>
      <point x="217" y="302" type="curve" smooth="yes"/>
      <point x="140" y="302"/>
      <point x="94" y="279"/>
      <point x="94" y="228" type="curve" smooth="yes"/>
      <point x="94" y="162"/>
      <point x="193" y="131"/>
      <point x="307" y="131" type="curve" smooth="yes"/>
      <point x="414" y="131"/>
      <point x="514" y="160"/>
      <point x="514" y="228" type="curve" smooth="yes"/>
      <point x="514" y="277"/>
      <point x="472" y="304"/>
      <point x="394" y="304" type="curve" smooth="yes"/>
      <point x="371" y="304"/>
      <point x="347" y="301"/>
      <point x="324" y="297" type="curve"/>
      <point x="322" y="308"/>
      <point x="321" y="318"/>
      <point x="321" y="328" type="curve" smooth="yes"/>
      <point x="321" y="397"/>
      <point x="366" y="433"/>
      <point x="439" y="433" type="curve" smooth="yes"/>
      <point x="505" y="433"/>
      <point x="541" y="393"/>
      <point x="541" y="354" type="curve" smooth="yes"/>
      <point x="541" y="333"/>
      <point x="531" y="316"/>
      <point x="515" y="303" type="curve"/>
      <point x="551" y="281"/>
      <point x="574" y="244"/>
      <point x="574" y="186" type="curve" smooth="yes"/>
      <point x="574" y="56"/>
      <point x="448" y="0"/>
      <point x="307" y="0" type="curve" smooth="yes"/>
      <point x="159" y="0"/>
      <point x="31" y="46"/>
    </contour>
  </outline>
</glyph>
<glyph name="si_MatraAe" format="1">
  <advance width="334"/>
  <unicode hex="0DD0"/>
  <outline>
    <contour>
      <point x="3" y="311" type="line"/>
      <point x="3" y="339" type="line"/>
      <point x="249" y="339" type="line"/>
      <point x="248" y="337"/>
      <point x="247" y="329"/>
      <point x="246" y="320" type="curve"/>
      <point x="193" y="238"/>
      <point x="178" y="169"/>
      <point x="178" y="90" type="curve" smooth="yes"/>
      <point x="178" y="26"/>
      <point x="201" y="-49"/>
      <point x="258" y="-76" type="curve" smooth="yes"/>
      <point x="271" y="-82"/>
      <point x="286" y="-85"/>
      <point x="302" y="-86" type="curve"/>
      <point x="306" y="-106" type="line"/>
      <point x="279" y="-137"/>
      <point x="239" y="-147"/>
      <point x="198" y="-147" type="curve" smooth="yes"/>
      <point x="113" y="-147"/>
      <point x="50" y="-83"/>
      <point x="50" y="18" type="curve" smooth="yes"/>
      <point x="50" y="155"/>
      <point x="148" y="247"/>
      <point x="208" y="311" type="curve"/>
    </contour>
  </outline>
</glyph>
<glyph name="si_MatraAae" format="1">
  <advance width="336"/>
  <unicode hex="0DD1"/>
  <outline>
    <contour>
      <point x="4" y="312" type="line"/>
      <point x="4" y="339" type="line"/>
      <point x="249" y="339" type="line"/>
      <point x="249" y="317" type="line"/>
      <point x="122" y="223" type="line"/>
      <point x="272" y="223" type="line"/>
      <point x="272" y="200" type="line"/>
      <point x="226" y="165"/>
      <point x="188" y="118"/>
      <point x="188" y="36" type="curve" smooth="yes"/>
      <point x="188" y="-29"/>
      <point x="226" y="-100"/>
      <point x="306" y="-100" type="curve"/>
      <point x="306" y="-127" type="line"/>
      <point x="273" y="-141"/>
      <point x="237" y="-148"/>
      <point x="207" y="-148" type="curve" smooth="yes"/>
      <point x="116" y="-148"/>
      <point x="56" y="-101"/>
      <point x="56" y="-18" type="curve" smooth="yes"/>
      <point x="56" y="96"/>
      <point x="160" y="155"/>
      <point x="228" y="196" type="curve"/>
      <point x="72" y="196" type="line"/>
      <point x="72" y="221" type="line"/>
      <point x="198" y="312" type="line"/>
    </contour>
  </outline>
</glyph>
<glyph name="si_MatraIi" format="1">
  <advance width="2"/>
  <unicode hex="0DD3"/>
  <outline>
    <contour>
      <point x="-249" y="514" type="curve" smooth="yes"/>
      <point x="-249" y="484"/>
      <point x="-219" y="459"/>
      <point x="-184" y="459" type="curve" smooth="yes"/>
      <point x="-149" y="459"/>
      <point x="-119" y="484"/>
      <point x="-119" y="514" type="curve" smooth="yes"/>
      <point x="-119" y="544"/>
      <point x="-149" y="569"/>
      <point x="-184" y="569" type="curve" smooth="yes"/>
      <point x="-219" y="569"/>
      <point x="-249" y="544"/>
    </contour>
    <contour>
      <point x="-587" y="517" type="curve" smooth="yes"/>
      <point x="-587" y="624"/>
      <point x="-463" y="671"/>
      <point x="-336" y="671" type="curve" smooth="yes"/>
      <point x="-219" y="671"/>
      <point x="-83" y="627"/>
      <point x="-83" y="524" type="curve" smooth="yes"/>
      <point x="-83" y="469"/>
      <point x="-128" y="429"/>
      <point x="-184" y="429" type="curve" smooth="yes"/>
      <point x="-242" y="429"/>
      <point x="-282" y="470"/>
      <point x="-282" y="515" type="curve" smooth="yes"/>
      <point x="-282" y="525"/>
      <point x="-279" y="549"/>
      <point x="-266" y="562" type="curve"/>
      <point x="-275" y="563"/>
      <point x="-315" y="565"/>
      <point x="-348" y="565" type="curve" smooth="yes"/>
      <point x="-442" y="565"/>
      <point x="-538" y="543"/>
      <point x="-538" y="482" type="curve" smooth="yes"/>
      <point x="-538" y="460"/>
      <point x="-525" y="437"/>
      <point x="-490" y="428" type="curve"/>
      <point x="-497" y="406" type="line"/>
      <point x="-550" y="411"/>
      <point x="-587" y="456"/>
    </contour>
  </outline>
</glyph>
<glyph name="si_MatraU" format="1">
  <advance width="2"/>
  <unicode hex="0DD4"/>
  <outline>
    <contour>
      <point x="-594.5" y="-142.5" type="curve" smooth="yes"/>
      <point x="-594.5" y="-90.491"/>
      <point x="-548.208" y="-50.5"/>
      <point x="-493" y="-50.5" type="curve" smooth="yes"/>
      <point x="-451.094" y="-50.5"/>
      <point x="-413.75" y="-74.1412"/>
      <point x="-399" y="-110" type="curve"/>
      <point x="-431.75" y="-121.5" type="line"/>
      <point x="-438.574" y="-104.358"/>
      <point x="-460" y="-81.75"/>
      <point x="-493" y="-81.75" type="curve" smooth="yes"/>
      <point x="-529.704" y="-81.75"/>
      <point x="-559" y="-109.716"/>
      <point x="-559" y="-142.5" type="curve" smooth="yes"/>
      <point x="-559" y="-171.663"/>
      <point x="-537.252" y="-192.5"/>
      <point x="-467.5" y="-192.5" type="curve" smooth="yes"/>
      <point x="-91.25" y="-192.5" type="line"/>
      <point x="-91.25" y="128" type="line"/>
      <point x="-56" y="219" type="line"/>
      <point x="-56" y="-235" type="line"/>
      <point x="-489" y="-235" type="line" smooth="yes"/>
      <point x="-568.543" y="-235"/>
      <point x="-594.5" y="-186.092"/>
    </contour>
  </outline>
</glyph>
<glyph name="si_MatraUu" format="1">
  <advance width="2"/>
  <unicode hex="0DD6"/>
  <outline>
    <contour>
      <point x="-582" y="-138" type="curve" smooth="yes"/>
      <point x="-582" y="-80"/>
      <point x="-533" y="-40"/>
      <point x="-480" y="-40" type="curve" smooth="yes"/>
      <point x="-438" y="-40"/>
      <point x="-406" y="-55"/>
      <point x="-383" y="-91" type="curve"/>
      <point x="-416" y="-102" type="line"/>
      <point x="-427" y="-85"/>
      <point x="-446" y="-70"/>
      <point x="-475" y="-70" type="curve" smooth="yes"/>
      <point x="-514" y="-70"/>
      <point x="-539" y="-95"/>
      <point x="-539" y="-120" type="curve" smooth="yes"/>
      <point x="-539" y="-152"/>
      <point x="-510" y="-167"/>
      <point x="-476" y="-167" type="curve" smooth="yes"/>
      <point x="-400" y="-167"/>
      <point x="-325" y="-114"/>
      <point x="-217" y="-114" type="curve" smooth="yes"/>
      <point x="-166" y="-114"/>
      <point x="-120" y="-134"/>
      <point x="-93" y="-166" type="curve"/>
      <point x="-93" y="152" type="line"/>
      <point x="-58" y="212" type="line"/>
      <point x="-58" y="-231" type="line"/>
      <point x="-84" y="-231" type="line"/>
      <point x="-98" y="-195"/>
      <point x="-144" y="-146"/>
      <point x="-207" y="-146" type="curve" smooth="yes"/>
      <point x="-298" y="-146"/>
      <point x="-373" y="-237"/>
      <point x="-471" y="-237" type="curve" smooth="yes"/>
      <point x="-526" y="-237"/>
      <point x="-582" y="-206"/>
    </contour>
  </outline>
</glyph>
<glyph name="si_MatraR" format="1">
  <advance width="313"/>
  <unicode hex="0DD8"/>
  <outline>
    <contour>
      <point x="33" y="249" type="curve" smooth="yes"/>
      <point x="33" y="329"/>
      <point x="68" y="393"/>
      <point x="148" y="393" type="curve" smooth="yes"/>
      <point x="235" y="393"/>
      <point x="271" y="314"/>
      <point x="271" y="203" type="curve" smooth="yes"/>
      <point x="271" y="144"/>
      <point x="254" y="52"/>
      <point x="254" y="23" type="curve" smooth="yes"/>
      <point x="254" y="16"/>
      <point x="254" y="9"/>
      <point x="255" y="3" type="curve"/>
      <point x="180" y="3" type="line"/>
      <point x="177" y="12"/>
      <point x="172" y="17"/>
      <point x="165" y="17" type="curve" smooth="yes"/>
      <point x="153" y="17"/>
      <point x="145" y="-1"/>
      <point x="116" y="-1" type="curve" smooth="yes"/>
      <point x="57" y="-1"/>
      <point x="33" y="66"/>
      <point x="33" y="106" type="curve" smooth="yes"/>
      <point x="33" y="153"/>
      <point x="55" y="188"/>
      <point x="99" y="207" type="curve" smooth="yes"/>
      <point x="121" y="216"/>
      <point x="146" y="220"/>
      <point x="154" y="220" type="curve"/>
      <point x="154" y="310"/>
      <point x="145" y="340"/>
      <point x="116" y="340" type="curve" smooth="yes"/>
      <point x="82" y="340"/>
      <point x="59" y="308"/>
      <point x="59" y="246" type="curve" smooth="yes"/>
      <point x="59" y="244"/>
      <point x="59" y="244"/>
      <point x="59" y="242" type="curve"/>
      <point x="33" y="242" type="line"/>
      <point x="33" y="245"/>
      <point x="33" y="246"/>
    </contour>
    <contour>
      <point x="64" y="107" type="curve" smooth="yes"/>
      <point x="64" y="76"/>
      <point x="78" y="30"/>
      <point x="118" y="30" type="curve" smooth="yes"/>
      <point x="139" y="30"/>
      <point x="145" y="36"/>
      <point x="153" y="40" type="curve" smooth="yes"/>
      <point x="155" y="41"/>
      <point x="158" y="42"/>
      <point x="161" y="42" type="curve"/>
      <point x="153" y="47"/>
      <point x="152" y="76"/>
      <point x="152" y="114" type="curve" smooth="yes"/>
      <point x="152" y="145"/>
      <point x="154" y="165"/>
      <point x="154" y="183" type="curve" smooth="yes"/>
      <point x="154" y="186"/>
      <point x="154" y="190"/>
      <point x="154" y="192" type="curve"/>
      <point x="150" y="192"/>
      <point x="131" y="188"/>
      <point x="123" y="186" type="curve" smooth="yes"/>
      <point x="87" y="175"/>
      <point x="64" y="151"/>
    </contour>
  </outline>
</glyph>
<glyph name="uni0DD9" format="1">
  <advance width="603"/>
  <unicode hex="0DD9"/>
  <outline>
    <contour>
      <point x="221" y="276" type="curve" smooth="yes"/>
      <point x="221" y="251"/>
      <point x="245" y="230"/>
      <point x="275" y="230" type="curve" smooth="yes"/>
      <point x="305" y="230"/>
      <point x="329" y="251"/>
      <point x="329" y="276" type="curve" smooth="yes"/>
      <point x="329" y="301"/>
      <point x="305" y="322"/>
      <point x="275" y="322" type="curve" smooth="yes"/>
      <point x="245" y="322"/>
      <point x="221" y="301"/>
    </contour>
    <contour>
      <point x="33" y="212" type="curve" smooth="yes"/>
      <point x="33" y="347"/>
      <point x="161" y="432"/>
      <point x="301" y="432" type="curve" smooth="yes"/>
      <point x="449" y="432"/>
      <point x="572" y="340"/>
      <point x="584" y="206" type="curve"/>
      <point x="553" y="206" type="line"/>
      <point x="534" y="322"/>
      <point x="430" y="402"/>
      <point x="301" y="402" type="curve" smooth="yes"/>
      <point x="187" y="402"/>
      <point x="106" y="344"/>
      <point x="106" y="264" type="curve" smooth="yes"/>
      <point x="106" y="197"/>
      <point x="163" y="137"/>
      <point x="269" y="137" type="curve" smooth="yes"/>
      <point x="358" y="137"/>
      <point x="417" y="179"/>
      <point x="417" y="244" type="curve" smooth="yes"/>
      <point x="417" y="275"/>
      <point x="393" y="311"/>
      <point x="344" y="322" type="curve"/>
      <point x="357" y="311"/>
      <point x="364" y="292"/>
      <point x="364" y="276" type="curve" smooth="yes"/>
      <point x="364" y="231"/>
      <point x="320" y="200"/>
      <point x="275" y="200" type="curve" smooth="yes"/>
      <point x="230" y="200"/>
      <point x="186" y="231"/>
      <point x="186" y="275" type="curve" smooth="yes"/>
      <point x="186" y="322"/>
      <point x="231" y="354"/>
      <point x="290" y="354" type="curve" smooth="yes"/>
      <point x="400" y="354"/>
      <point x="491" y="292"/>
      <point x="491" y="177" type="curve" smooth="yes"/>
      <point x="491" y="80"/>
      <point x="412" y="0"/>
      <point x="269" y="0" type="curve" smooth="yes"/>
      <point x="134" y="0"/>
      <point x="33" y="84"/>
    </contour>
  </outline>
</glyph>
<glyph name="si_MatraLs" format="1">
  <advance width="441"/>
  <unicode hex="0DDF"/>
  <outline>
    <contour>
      <point x="33" y="321" type="curve" smooth="yes"/>
      <point x="33" y="370"/>
      <point x="49" y="404"/>
      <point x="70" y="428" type="curve"/>
      <point x="106" y="428" type="line"/>
      <point x="84" y="410"/>
      <point x="64" y="375"/>
      <point x="64" y="322" type="curve" smooth="yes"/>
      <point x="64" y="276"/>
      <point x="85" y="246"/>
      <point x="116" y="246" type="curve" smooth="yes"/>
      <point x="140" y="246"/>
      <point x="156" y="261"/>
      <point x="156" y="290" type="curve" smooth="yes"/>
      <point x="156" y="307"/>
      <point x="149" y="323"/>
      <point x="136" y="337" type="curve"/>
      <point x="135" y="342"/>
      <point x="135" y="344"/>
      <point x="135" y="349" type="curve" smooth="yes"/>
      <point x="135" y="398"/>
      <point x="175" y="432"/>
      <point x="235" y="432" type="curve" smooth="yes"/>
      <point x="354" y="432"/>
      <point x="393" y="316"/>
      <point x="393" y="220" type="curve" smooth="yes"/>
      <point x="393" y="101"/>
      <point x="348" y="-2"/>
      <point x="234" y="-2" type="curve" smooth="yes"/>
      <point x="151" y="-2"/>
      <point x="117" y="54"/>
      <point x="117" y="120" type="curve" smooth="yes"/>
      <point x="117" y="132"/>
      <point x="118" y="144"/>
      <point x="121" y="157" type="curve"/>
      <point x="148" y="157" type="line"/>
      <point x="146" y="146"/>
      <point x="145" y="136"/>
      <point x="145" y="125" type="curve" smooth="yes"/>
      <point x="145" y="76"/>
      <point x="172" y="63"/>
      <point x="193" y="63" type="curve" smooth="yes"/>
      <point x="234" y="63"/>
      <point x="252" y="112"/>
      <point x="252" y="238" type="curve" smooth="yes"/>
      <point x="252" y="344"/>
      <point x="227" y="389"/>
      <point x="198" y="389" type="curve" smooth="yes"/>
      <point x="184" y="389"/>
      <point x="164" y="382"/>
      <point x="164" y="352" type="curve" smooth="yes"/>
      <point x="164" y="350"/>
      <point x="164" y="348"/>
      <point x="164" y="346" type="curve"/>
      <point x="188" y="333"/>
      <point x="201" y="312"/>
      <point x="201" y="288" type="curve" smooth="yes"/>
      <point x="201" y="238"/>
      <point x="172" y="212"/>
      <point x="122" y="212" type="curve" smooth="yes"/>
      <point x="66" y="212"/>
      <point x="33" y="261"/>
    </contour>
  </outline>
</glyph>
<glyph name="si_MatraRr" format="1">
  <advance width="571"/>
  <unicode hex="0DF2"/>
  <outline>
    <contour>
      <point x="286" y="249" type="curve" smooth="yes"/>
      <point x="286" y="329"/>
      <point x="321" y="393"/>
      <point x="401" y="393" type="curve" smooth="yes"/>
      <point x="488" y="393"/>
      <point x="524" y="314"/>
      <point x="524" y="203" type="curve" smooth="yes"/>
      <point x="524" y="144"/>
      <point x="507" y="52"/>
      <point x="507" y="23" type="curve" smooth="yes"/>
      <point x="507" y="16"/>
      <point x="507" y="9"/>
      <point x="508" y="3" type="curve"/>
      <point x="433" y="3" type="line"/>
      <point x="431" y="12"/>
      <point x="426" y="17"/>
      <point x="418" y="17" type="curve" smooth="yes"/>
      <point x="406" y="17"/>
      <point x="398" y="-1"/>
      <point x="369" y="-1" type="curve" smooth="yes"/>
      <point x="310" y="-1"/>
      <point x="286" y="66"/>
      <point x="286" y="106" type="curve" smooth="yes"/>
      <point x="286" y="153"/>
      <point x="308" y="188"/>
      <point x="352" y="207" type="curve" smooth="yes"/>
      <point x="374" y="216"/>
      <point x="399" y="220"/>
      <point x="407" y="220" type="curve"/>
      <point x="407" y="310"/>
      <point x="398" y="340"/>
      <point x="369" y="340" type="curve" smooth="yes"/>
      <point x="336" y="340"/>
      <point x="312" y="308"/>
      <point x="312" y="246" type="curve" smooth="yes"/>
      <point x="312" y="244"/>
      <point x="312" y="244"/>
      <point x="312" y="242" type="curve"/>
      <point x="286" y="242" type="line"/>
      <point x="286" y="245"/>
      <point x="286" y="246"/>
    </contour>
    <contour>
      <point x="318" y="107" type="curve" smooth="yes"/>
      <point x="318" y="76"/>
      <point x="331" y="30"/>
      <point x="371" y="30" type="curve" smooth="yes"/>
      <point x="398" y="30"/>
      <point x="400" y="41"/>
      <point x="414" y="42" type="curve"/>
      <point x="406" y="47"/>
      <point x="406" y="76"/>
      <point x="406" y="114" type="curve" smooth="yes"/>
      <point x="406" y="145"/>
      <point x="407" y="165"/>
      <point x="407" y="183" type="curve" smooth="yes"/>
      <point x="407" y="186"/>
      <point x="407" y="190"/>
      <point x="407" y="192" type="curve"/>
      <point x="403" y="192"/>
      <point x="384" y="188"/>
      <point x="376" y="186" type="curve" smooth="yes"/>
      <point x="340" y="175"/>
      <point x="318" y="151"/>
    </contour>
    <contour>
      <point x="33" y="249" type="curve" smooth="yes"/>
      <point x="33" y="329"/>
      <point x="68" y="393"/>
      <point x="148" y="393" type="curve" smooth="yes"/>
      <point x="235" y="393"/>
      <point x="271" y="314"/>
      <point x="271" y="203" type="curve" smooth="yes"/>
      <point x="271" y="144"/>
      <point x="254" y="52"/>
      <point x="254" y="23" type="curve" smooth="yes"/>
      <point x="254" y="16"/>
      <point x="254" y="9"/>
      <point x="255" y="3" type="curve"/>
      <point x="180" y="3" type="line"/>
      <point x="177" y="12"/>
      <point x="172" y="17"/>
      <point x="165" y="17" type="curve" smooth="yes"/>
      <point x="153" y="17"/>
      <point x="145" y="-1"/>
      <point x="116" y="-1" type="curve" smooth="yes"/>
      <point x="57" y="-1"/>
      <point x="33" y="66"/>
      <point x="33" y="106" type="curve" smooth="yes"/>
      <point x="33" y="153"/>
      <point x="55" y="188"/>
      <point x="99" y="207" type="curve" smooth="yes"/>
      <point x="121" y="216"/>
      <point x="146" y="220"/>
      <point x="154" y="220" type="curve"/>
      <point x="154" y="310"/>
      <point x="145" y="340"/>
      <point x="116" y="340" type="curve" smooth="yes"/>
      <point x="82" y="340"/>
      <point x="59" y="308"/>
      <point x="59" y="246" type="curve" smooth="yes"/>
      <point x="59" y="244"/>
      <point x="59" y="244"/>
      <point x="59" y="242" type="curve"/>
      <point x="33" y="242" type="line"/>
      <point x="33" y="245"/>
      <point x="33" y="246"/>
    </contour>
    <contour>
      <point x="64" y="107" type="curve" smooth="yes"/>
      <point x="64" y="76"/>
      <point x="78" y="30"/>
      <point x="118" y="30" type="curve" smooth="yes"/>
      <point x="145" y="30"/>
      <point x="147" y="41"/>
      <point x="161" y="42" type="curve"/>
      <point x="153" y="47"/>
      <point x="152" y="76"/>
      <point x="152" y="114" type="curve" smooth="yes"/>
      <point x="152" y="145"/>
      <point x="154" y="165"/>
      <point x="154" y="183" type="curve" smooth="yes"/>
      <point x="154" y="186"/>
      <point x="154" y="190"/>
      <point x="154" y="192" type="curve"/>
      <point x="150" y="192"/>
      <point x="131" y="188"/>
      <point x="123" y="186" type="curve" smooth="yes"/>
      <point x="87" y="175"/>
      <point x="64" y="151"/>
    </contour>
  </outline>
</glyph>
<glyph name="afii301" format="1">
  <advance width="0"/>
  <unicode hex="200D"/>
  <outline>
    <contour>
      <point x="55" y="655" type="line"/>
      <point x="180" y="532" type="line"/>
      <point x="124" y="477" type="line"/>
      <point x="40" y="561" type="line"/>
      <point x="40" y="-10" type="line"/>
      <point x="-40" y="-10" type="line"/>
      <point x="-40" y="561" type="line"/>
      <point x="-124" y="477" type="line"/>
      <point x="-180" y="532" type="line"/>
      <point x="-55" y="655" type="line"/>
      <point x="-180" y="776" type="line"/>
      <point x="-124" y="832" type="line"/>
      <point x="0" y="708" type="line"/>
      <point x="124" y="832" type="line"/>
      <point x="180" y="776" type="line"/>
    </contour>
  </outline>
</glyph>
<glyph name="endash" format="1">
  <advance width="610"/>
  <unicode hex="2013"/>
  <outline>
    <contour>
      <point x="50" y="195" type="line"/>
      <point x="560" y="195" type="line"/>
      <point x="560" y="240" type="line"/>
      <point x="50" y="240" type="line"/>
    </contour>
  </outline>
</glyph>
<glyph name="guilsinglleft" format="1">
  <advance width="241"/>
  <unicode hex="2039"/>
  <outline>
    <contour>
      <point x="226" y="378" type="curve"/>
      <point x="205" y="395" type="line"/>
      <point x="150" y="333"/>
      <point x="57" y="271"/>
      <point x="30" y="240" type="curve" smooth="yes"/>
      <point x="20" y="228"/>
      <point x="15" y="216"/>
      <point x="15" y="204" type="curve" smooth="yes"/>
      <point x="15" y="192"/>
      <point x="20" y="180"/>
      <point x="30" y="168" type="curve" smooth="yes"/>
      <point x="55" y="140"/>
      <point x="146" y="76"/>
      <point x="205" y="14" type="curve"/>
      <point x="225" y="32" type="line"/>
      <point x="194" y="90"/>
      <point x="157" y="159"/>
      <point x="135" y="205" type="curve"/>
      <point x="166" y="260"/>
      <point x="194" y="318"/>
    </contour>
  </outline>
</glyph>
<glyph name="dottedcircle" format="1">
  <advance width="558"/>
  <unicode hex="25CC"/>
  <outline>
    <contour>
      <point x="96" y="97" type="curve"/>
      <point x="97" y="116"/>
      <point x="110" y="128"/>
      <point x="129" y="128" type="curve" smooth="yes"/>
      <point x="149" y="128"/>
      <point x="162" y="115"/>
      <point x="161" y="95" type="curve" smooth="yes"/>
      <point x="160" y="76"/>
      <point x="148" y="64"/>
      <point x="129" y="64" type="curve" smooth="yes"/>
      <point x="109" y="64"/>
      <point x="95" y="77"/>
    </contour>
    <contour>
      <point x="54" y="164" type="curve"/>
      <point x="55" y="183"/>
      <point x="67" y="196"/>
      <point x="86" y="196" type="curve" smooth="yes"/>
      <point x="106" y="196"/>
      <point x="118" y="183"/>
      <point x="117" y="163" type="curve" smooth="yes"/>
      <point x="116" y="144"/>
      <point x="104" y="131"/>
      <point x="85" y="131" type="curve" smooth="yes"/>
      <point x="65" y="131"/>
      <point x="53" y="144"/>
    </contour>
    <contour>
      <point x="162" y="54" type="curve"/>
      <point x="163" y="73"/>
      <point x="175" y="85"/>
      <point x="194" y="85" type="curve" smooth="yes"/>
      <point x="214" y="85"/>
      <point x="226" y="72"/>
      <point x="225" y="52" type="curve" smooth="yes"/>
      <point x="224" y="33"/>
      <point x="212" y="21"/>
      <point x="193" y="21" type="curve" smooth="yes"/>
      <point x="173" y="21"/>
      <point x="161" y="34"/>
    </contour>
    <contour>
      <point x="238" y="38" type="curve"/>
      <point x="239" y="57"/>
      <point x="251" y="69"/>
      <point x="270" y="69" type="curve" smooth="yes"/>
      <point x="290" y="69"/>
      <point x="302" y="56"/>
      <point x="301" y="36" type="curve"/>
      <point x="300" y="17"/>
      <point x="288" y="5"/>
      <point x="269" y="5" type="curve" smooth="yes"/>
      <point x="249" y="5"/>
      <point x="237" y="18"/>
    </contour>
    <contour>
      <point x="40" y="240" type="curve" smooth="yes"/>
      <point x="41" y="259"/>
      <point x="53" y="272"/>
      <point x="72" y="272" type="curve" smooth="yes"/>
      <point x="92" y="272"/>
      <point x="105" y="259"/>
      <point x="104" y="239" type="curve" smooth="yes"/>
      <point x="103" y="220"/>
      <point x="91" y="208"/>
      <point x="72" y="208" type="curve" smooth="yes"/>
      <point x="52" y="208"/>
      <point x="39" y="220"/>
    </contour>
    <contour>
      <point x="57" y="317" type="curve"/>
      <point x="58" y="336"/>
      <point x="71" y="349"/>
      <point x="90" y="349" type="curve" smooth="yes"/>
      <point x="110" y="349"/>
      <point x="121" y="336"/>
      <point x="120" y="316" type="curve"/>
      <point x="119" y="298"/>
      <point x="109" y="284"/>
      <point x="90" y="284" type="curve" smooth="yes"/>
      <point x="70" y="284"/>
      <point x="56" y="297"/>
    </contour>
    <contour>
      <point x="317" y="54" type="curve"/>
      <point x="318" y="73"/>
      <point x="330" y="85"/>
      <point x="349" y="85" type="curve" smooth="yes"/>
      <point x="369" y="85"/>
      <point x="381" y="72"/>
      <point x="380" y="52" type="curve" smooth="yes"/>
      <point x="379" y="33"/>
      <point x="367" y="21"/>
      <point x="348" y="21" type="curve" smooth="yes"/>
      <point x="328" y="21"/>
      <point x="316" y="34"/>
    </contour>
    <contour>
      <point x="102" y="384" type="curve"/>
      <point x="103" y="403"/>
      <point x="116" y="415"/>
      <point x="135" y="415" type="curve" smooth="yes"/>
      <point x="155" y="415"/>
      <point x="168" y="403"/>
      <point x="166" y="383" type="curve" smooth="yes"/>
      <point x="165" y="364"/>
      <point x="152" y="352"/>
      <point x="133" y="352" type="curve" smooth="yes"/>
      <point x="113" y="352"/>
      <point x="100" y="364"/>
    </contour>
    <contour>
      <point x="384" y="97" type="curve"/>
      <point x="385" y="116"/>
      <point x="397" y="128"/>
      <point x="416" y="128" type="curve" smooth="yes"/>
      <point x="436" y="128"/>
      <point x="449" y="115"/>
      <point x="447" y="95" type="curve" smooth="yes"/>
      <point x="446" y="76"/>
      <point x="434" y="64"/>
      <point x="415" y="64" type="curve" smooth="yes"/>
      <point x="395" y="64"/>
      <point x="383" y="77"/>
    </contour>
    <contour>
      <point x="168" y="428" type="curve"/>
      <point x="169" y="447"/>
      <point x="182" y="460"/>
      <point x="201" y="460" type="curve" smooth="yes"/>
      <point x="221" y="460"/>
      <point x="233" y="447"/>
      <point x="232" y="427" type="curve" smooth="yes"/>
      <point x="231" y="408"/>
      <point x="219" y="395"/>
      <point x="200" y="395" type="curve" smooth="yes"/>
      <point x="180" y="395"/>
      <point x="167" y="408"/>
    </contour>
    <contour>
      <point x="428" y="164" type="curve"/>
      <point x="429" y="183"/>
      <point x="442" y="196"/>
      <point x="461" y="196" type="curve" smooth="yes"/>
      <point x="481" y="196"/>
      <point x="494" y="183"/>
      <point x="493" y="163" type="curve" smooth="yes"/>
      <point x="492" y="144"/>
      <point x="478" y="131"/>
      <point x="459" y="131" type="curve" smooth="yes"/>
      <point x="439" y="131"/>
      <point x="427" y="144"/>
    </contour>
    <contour>
      <point x="246" y="443" type="curve"/>
      <point x="247" y="462"/>
      <point x="259" y="475"/>
      <point x="278" y="475" type="curve" smooth="yes"/>
      <point x="298" y="475"/>
      <point x="310" y="462"/>
      <point x="309" y="442" type="curve"/>
      <point x="308" y="423"/>
      <point x="296" y="410"/>
      <point x="277" y="410" type="curve" smooth="yes"/>
      <point x="257" y="410"/>
      <point x="245" y="423"/>
    </contour>
    <contour>
      <point x="445" y="240" type="curve" smooth="yes"/>
      <point x="446" y="259"/>
      <point x="458" y="272"/>
      <point x="477" y="272" type="curve" smooth="yes"/>
      <point x="497" y="272"/>
      <point x="510" y="259"/>
      <point x="509" y="239" type="curve" smooth="yes"/>
      <point x="508" y="220"/>
      <point x="496" y="208"/>
      <point x="477" y="208" type="curve" smooth="yes"/>
      <point x="457" y="208"/>
      <point x="444" y="220"/>
    </contour>
    <contour>
      <point x="323" y="428" type="curve"/>
      <point x="324" y="447"/>
      <point x="337" y="460"/>
      <point x="356" y="460" type="curve" smooth="yes"/>
      <point x="376" y="460"/>
      <point x="388" y="447"/>
      <point x="387" y="427" type="curve" smooth="yes"/>
      <point x="386" y="408"/>
      <point x="374" y="395"/>
      <point x="355" y="395" type="curve" smooth="yes"/>
      <point x="335" y="395"/>
      <point x="322" y="408"/>
    </contour>
    <contour>
      <point x="431" y="317" type="curve" smooth="yes"/>
      <point x="432" y="336"/>
      <point x="445" y="349"/>
      <point x="464" y="349" type="curve" smooth="yes"/>
      <point x="484" y="349"/>
      <point x="497" y="336"/>
      <point x="496" y="316" type="curve" smooth="yes"/>
      <point x="495" y="297"/>
      <point x="482" y="284"/>
      <point x="463" y="284" type="curve" smooth="yes"/>
      <point x="443" y="284"/>
      <point x="430" y="297"/>
    </contour>
    <contour>
      <point x="388" y="384" type="curve"/>
      <point x="389" y="403"/>
      <point x="402" y="415"/>
      <point x="421" y="415" type="curve" smooth="yes"/>
      <point x="441" y="415"/>
      <point x="454" y="403"/>
      <point x="453" y="383" type="curve" smooth="yes"/>
      <point x="452" y="364"/>
      <point x="439" y="352"/>
      <point x="420" y="352" type="curve" smooth="yes"/>
      <point x="400" y="352"/>
      <point x="387" y="364"/>
    </contour>
  </outline>
</glyph>
<glyph name="fl" format="1">
  <advance width="624"/>
  <unicode hex="FB02"/>
  <outline>
    <contour>
      <point x="609" y="0" type="line"/>
      <point x="609" y="22"/>
      <point x="604" y="26"/>
      <point x="585" y="26" type="curve" smooth="yes"/>
      <point x="535" y="26" type="line"/>
      <point x="535" y="650" type="line"/>
      <point x="330" y="650" type="line"/>
      <point x="408" y="634" type="line"/>
      <point x="408" y="80" type="line" smooth="yes"/>
      <point x="408" y="35"/>
      <point x="385" y="26"/>
      <point x="340" y="26" type="curve"/>
      <point x="340" y="0" type="line"/>
    </contour>
    <contour>
      <point x="284" y="0" type="line"/>
      <point x="284" y="22"/>
      <point x="279" y="26"/>
      <point x="260" y="26" type="curve" smooth="yes"/>
      <point x="228" y="26" type="line"/>
      <point x="228" y="435" type="line"/>
      <point x="101" y="443" type="line"/>
      <point x="101" y="78" type="line" smooth="yes"/>
      <point x="101" y="36"/>
      <point x="67" y="26"/>
      <point x="25" y="26" type="curve"/>
      <point x="25" y="0" type="line"/>
    </contour>
    <contour>
      <point x="327" y="404" type="line"/>
      <point x="327" y="430" type="line"/>
      <point x="20" y="430" type="line"/>
      <point x="20" y="404" type="line"/>
    </contour>
    <contour>
      <point x="320" y="630" type="curve" smooth="yes"/>
      <point x="348" y="630"/>
      <point x="383" y="624"/>
      <point x="408" y="613" type="curve"/>
      <point x="408" y="647" type="line"/>
      <point x="364" y="653"/>
      <point x="339" y="655"/>
      <point x="300" y="655" type="curve" smooth="yes"/>
      <point x="199" y="655"/>
      <point x="101" y="595"/>
      <point x="101" y="443" type="curve"/>
      <point x="228" y="435" type="line"/>
      <point x="228" y="595"/>
      <point x="254" y="630"/>
    </contour>
  </outline>
</glyph>
<glyph name="NameMe.550" format="1">
  <advance width="622"/>
  <outline>
    <contour>
      <point x="386.813" y="514" type="curve" smooth="yes"/>
      <point x="386.813" y="544.384"/>
      <point x="416.217" y="568.886"/>
      <point x="451.5" y="568.886" type="curve" smooth="yes"/>
      <point x="486.783" y="568.886"/>
      <point x="516.187" y="544.384"/>
      <point x="516.187" y="514" type="curve" smooth="yes"/>
      <point x="516.187" y="483.616"/>
      <point x="486.783" y="459.114"/>
      <point x="451.5" y="459.114" type="curve" smooth="yes"/>
      <point x="416.217" y="459.114"/>
      <point x="386.813" y="483.616"/>
    </contour>
    <contour>
      <point x="48.5" y="517" type="curve" smooth="yes"/>
      <point x="48.5" y="456"/>
      <point x="85.2549" y="410.733"/>
      <point x="138.5" y="406" type="curve"/>
      <point x="143" y="428" type="line"/>
      <point x="107.541" y="437"/>
      <point x="95" y="459.935"/>
      <point x="95" y="482" type="curve" smooth="yes"/>
      <point x="95" y="542.711"/>
      <point x="193.336" y="565"/>
      <point x="287.5" y="565" type="curve" smooth="yes"/>
      <point x="320.002" y="565"/>
      <point x="360.651" y="563.391"/>
      <point x="369.5" y="562" type="curve"/>
      <point x="356.269" y="549.089"/>
      <point x="353.5" y="525.451"/>
      <point x="353.5" y="515" type="curve" smooth="yes"/>
      <point x="353.5" y="470"/>
      <point x="393.5" y="429"/>
      <point x="451.5" y="429" type="curve" smooth="yes"/>
      <point x="507.777" y="429"/>
      <point x="552.5" y="468.769"/>
      <point x="552.5" y="524" type="curve" smooth="yes"/>
      <point x="552.5" y="627.399"/>
      <point x="416.214" y="671"/>
      <point x="299.5" y="671" type="curve" smooth="yes"/>
      <point x="172.446" y="671"/>
      <point x="48.5" y="624.211"/>
    </contour>
    <contour>
      <point x="50.5" y="-44" type="curve"/>
      <point x="80" y="-44" type="line"/>
      <point x="117.476" y="-86.958"/>
      <point x="180.167" y="-114.25"/>
      <point x="285.5" y="-114.25" type="curve" smooth="yes"/>
      <point x="428.5" y="-114.25"/>
      <point x="537.75" y="-31.0107"/>
      <point x="537.75" y="63.25" type="curve" smooth="yes"/>
      <point x="537.75" y="78.2842"/>
      <point x="536.188" y="90.4463"/>
      <point x="530.75" y="102" type="curve"/>
      <point x="543.75" y="133" type="line"/>
      <point x="561.75" y="106.333"/>
      <point x="570.75" y="74.667"/>
      <point x="570.75" y="38" type="curve" smooth="yes"/>
      <point x="570.75" y="-123.729"/>
      <point x="442.75" y="-219"/>
      <point x="298.75" y="-219" type="curve" smooth="yes"/>
      <point x="174.159" y="-219"/>
      <point x="87.833" y="-153.333"/>
    </contour>
    <contour>
      <point x="31.3314" y="183.554" type="curve" smooth="yes"/>
      <point x="31.3314" y="274.624"/>
      <point x="99.2295" y="328.428"/>
      <point x="207" y="328.428" type="curve" smooth="yes"/>
      <point x="220" y="328.428"/>
      <point x="229.708" y="327.789"/>
      <point x="242.5" y="326.5" type="curve"/>
      <point x="242.961" y="330.324"/>
      <point x="243.182" y="332.491"/>
      <point x="243.182" y="336" type="curve" smooth="yes"/>
      <point x="243.182" y="375"/>
      <point x="216.346" y="392"/>
      <point x="191" y="392" type="curve" smooth="yes"/>
      <point x="158.97" y="392"/>
      <point x="150.907" y="374.803"/>
      <point x="146" y="356" type="curve" smooth="yes"/>
      <point x="142.347" y="342"/>
      <point x="127.346" y="326"/>
      <point x="99" y="326" type="curve" smooth="yes"/>
      <point x="72.229" y="326"/>
      <point x="54.8252" y="341"/>
      <point x="54.8252" y="366" type="curve" smooth="yes"/>
      <point x="54.8252" y="408.195"/>
      <point x="103" y="433.626"/>
      <point x="158.189" y="433.626" type="curve" smooth="yes"/>
      <point x="230.548" y="433.626"/>
      <point x="274.87" y="401"/>
      <point x="274.87" y="334" type="curve" smooth="yes"/>
      <point x="274.87" y="322.637"/>
      <point x="273.632" y="311.304"/>
      <point x="271" y="298" type="curve"/>
      <point x="253.181" y="300.376"/>
      <point x="218.23" y="301.718"/>
      <point x="217" y="301.718" type="curve" smooth="yes"/>
      <point x="139.721" y="301.718"/>
      <point x="94" y="278.626"/>
      <point x="94" y="228" type="curve" smooth="yes"/>
      <point x="94" y="161.951"/>
      <point x="193" y="131"/>
      <point x="307" y="131" type="curve" smooth="yes"/>
      <point x="413.551" y="131"/>
      <point x="514" y="159.634"/>
      <point x="514" y="228" type="curve" smooth="yes"/>
      <point x="514" y="276.974"/>
      <point x="472" y="303.612"/>
      <point x="394" y="303.612" type="curve" smooth="yes"/>
      <point x="370.819" y="303.612"/>
      <point x="346.927" y="301.169"/>
      <point x="324" y="297" type="curve"/>
      <point x="322.072" y="307.924"/>
      <point x="321.143" y="318.267"/>
      <point x="321.143" y="328" type="curve" smooth="yes"/>
      <point x="321.143" y="397"/>
      <point x="365.957" y="433.119"/>
      <point x="438.845" y="433.119" type="curve" smooth="yes"/>
      <point x="505" y="433.119"/>
      <point x="541.019" y="392.966"/>
      <point x="541.019" y="354" type="curve" smooth="yes"/>
      <point x="541.019" y="291.661"/>
      <point x="449.031" y="269.262"/>
      <point x="399" y="259.5" type="curve"/>
      <point x="418.333" y="250.833"/>
      <point x="432" y="237.419"/>
      <point x="432" y="220.5" type="curve" smooth="yes"/>
      <point x="432" y="175.5"/>
      <point x="375" y="161.5"/>
      <point x="296" y="161.5" type="curve" smooth="yes"/>
      <point x="240.326" y="161.5"/>
      <point x="172" y="172.5"/>
      <point x="172" y="221.5" type="curve" smooth="yes"/>
      <point x="172" y="246.551"/>
      <point x="192" y="273.5"/>
      <point x="288" y="273.5" type="curve" smooth="yes"/>
      <point x="311" y="273.5"/>
      <point x="358.093" y="274.952"/>
      <point x="389" y="280.5" type="curve" smooth="yes"/>
      <point x="439.353" y="289.538"/>
      <point x="502.229" y="306.338"/>
      <point x="502.229" y="351" type="curve" smooth="yes"/>
      <point x="502.229" y="380"/>
      <point x="474.54" y="402.388"/>
      <point x="432" y="402.388" type="curve" smooth="yes"/>
      <point x="388.777" y="402.388"/>
      <point x="354.685" y="377.065"/>
      <point x="354.685" y="336" type="curve" smooth="yes"/>
      <point x="354.685" y="332.228"/>
      <point x="354.963" y="330.364"/>
      <point x="355.5" y="326.5" type="curve"/>
      <point x="372.455" y="328.555"/>
      <point x="387.345" y="329.598"/>
      <point x="403" y="329.598" type="curve" smooth="yes"/>
      <point x="494.354" y="329.598"/>
      <point x="574.006" y="293.413"/>
      <point x="574.006" y="186.452" type="curve" smooth="yes"/>
      <point x="574.006" y="55.5619"/>
      <point x="447.645" y="-7.10543e-15"/>
      <point x="307" y="0" type="curve" smooth="yes"/>
      <point x="158.59" y="0"/>
      <point x="31.3314" y="45.9203"/>
    </contour>
    <contour>
      <point x="204" y="221.46" type="curve" smooth="yes"/>
      <point x="204" y="198.92"/>
      <point x="235.687" y="188.14"/>
      <point x="299.06" y="188.14" type="curve" smooth="yes"/>
      <point x="365.7" y="188.14"/>
      <point x="400" y="198.92"/>
      <point x="400" y="220.48" type="curve" smooth="yes"/>
      <point x="400" y="244.662"/>
      <point x="366.68" y="250.86"/>
      <point x="298.08" y="250.86" type="curve" smooth="yes"/>
      <point x="234.38" y="250.86"/>
      <point x="204" y="243.02"/>
    </contour>
  </outline>
</glyph>
<glyph name="five.numr" format="1">
  <advance width="523"/>
  <outline>
    <contour>
      <point x="493" y="190" type="curve" smooth="yes"/>
      <point x="493" y="311"/>
      <point x="393" y="370"/>
      <point x="275" y="370" type="curve" smooth="yes"/>
      <point x="213" y="370"/>
      <point x="158" y="351"/>
      <point x="106" y="313" type="curve"/>
      <point x="128" y="285" type="line"/>
      <point x="167" y="317"/>
      <point x="206" y="329"/>
      <point x="241" y="329" type="curve" smooth="yes"/>
      <point x="308" y="329"/>
      <point x="358" y="277"/>
      <point x="358" y="180" type="curve" smooth="yes"/>
      <point x="358" y="104"/>
      <point x="327" y="17"/>
      <point x="240" y="17" type="curve" smooth="yes"/>
      <point x="115" y="17"/>
      <point x="234" y="182"/>
      <point x="109" y="182" type="curve" smooth="yes"/>
      <point x="66" y="182"/>
      <point x="43" y="154"/>
      <point x="43" y="118" type="curve" smooth="yes"/>
      <point x="43" y="29"/>
      <point x="131" y="-10"/>
      <point x="236" y="-10" type="curve" smooth="yes"/>
      <point x="361" y="-10"/>
      <point x="493" y="51"/>
    </contour>
    <contour>
      <point x="128" y="584" type="line"/>
      <point x="93" y="584" type="line"/>
      <point x="93" y="311" type="line"/>
      <point x="128" y="285" type="line"/>
    </contour>
    <contour>
      <point x="444" y="649" type="curve"/>
      <point x="416" y="649" type="line"/>
      <point x="403" y="612"/>
      <point x="385" y="601"/>
      <point x="315" y="601" type="curve" smooth="yes"/>
      <point x="270" y="601"/>
      <point x="194" y="606"/>
      <point x="93" y="610" type="curve"/>
      <point x="93" y="510" type="line"/>
      <point x="159" y="501"/>
      <point x="225" y="497"/>
      <point x="272" y="497" type="curve" smooth="yes"/>
      <point x="423" y="497"/>
      <point x="444" y="523"/>
    </contour>
  </outline>
</glyph>
<glyph name="i_Yanse" format="1">
  <advance width="544"/>
  <outline>
    <contour>
      <point x="17.75" y="-138" type="curve" smooth="yes"/>
      <point x="17.75" y="-80"/>
      <point x="66.75" y="-40"/>
      <point x="119.75" y="-40" type="curve" smooth="yes"/>
      <point x="161.75" y="-40"/>
      <point x="194.083" y="-55"/>
      <point x="216.75" y="-91" type="curve"/>
      <point x="183.75" y="-102" type="line"/>
      <point x="172.434" y="-84.6992"/>
      <point x="153.75" y="-70"/>
      <point x="124.75" y="-70" type="curve" smooth="yes"/>
      <point x="85.75" y="-70"/>
      <point x="60.75" y="-95.0762"/>
      <point x="60.75" y="-120" type="curve" smooth="yes"/>
      <point x="60.75" y="-151.995"/>
      <point x="89.5654" y="-167"/>
      <point x="123.75" y="-167" type="curve" smooth="yes"/>
      <point x="199.965" y="-167"/>
      <point x="238.235" y="-114.5"/>
      <point x="334.5" y="-114.5" type="curve" smooth="yes"/>
      <point x="385.582" y="-114.5"/>
      <point x="423.25" y="-133.75"/>
      <point x="450.25" y="-165.75" type="curve"/>
      <point x="450.25" y="152" type="line"/>
      <point x="485.25" y="212" type="line"/>
      <point x="485.25" y="-231" type="line"/>
      <point x="459.75" y="-231" type="line"/>
      <point x="444.75" y="-195"/>
      <point x="410.949" y="-146.25"/>
      <point x="348" y="-146.25" type="curve" smooth="yes"/>
      <point x="257" y="-146.25"/>
      <point x="226.75" y="-237"/>
      <point x="128.75" y="-237" type="curve" smooth="yes"/>
      <point x="73.75" y="-237"/>
      <point x="17.75" y="-206"/>
    </contour>
    <contour>
      <point x="213.9" y="511" type="curve" smooth="yes"/>
      <point x="213.9" y="490.854"/>
      <point x="232.128" y="474.547"/>
      <point x="254" y="474.547" type="curve" smooth="yes"/>
      <point x="275.872" y="474.547"/>
      <point x="294.1" y="490.854"/>
      <point x="294.1" y="511" type="curve" smooth="yes"/>
      <point x="294.1" y="531.146"/>
      <point x="275.872" y="547.453"/>
      <point x="254" y="547.453" type="curve" smooth="yes"/>
      <point x="232.128" y="547.453"/>
      <point x="213.9" y="531.146"/>
    </contour>
    <contour>
      <point x="111" y="530" type="curve" smooth="yes"/>
      <point x="111" y="594"/>
      <point x="169.12" y="631"/>
      <point x="251" y="631" type="curve" smooth="yes"/>
      <point x="328" y="631"/>
      <point x="392" y="588"/>
      <point x="392" y="517" type="curve" smooth="yes"/>
      <point x="392" y="493"/>
      <point x="383.667" y="471.333"/>
      <point x="367" y="452" type="curve"/>
      <point x="331.25" y="452" type="line"/>
      <point x="344.42" y="464.387"/>
      <point x="360" y="488.734"/>
      <point x="360" y="516" type="curve" smooth="yes"/>
      <point x="360" y="570.521"/>
      <point x="311" y="602.5"/>
      <point x="250" y="602.5" type="curve" smooth="yes"/>
      <point x="197.222" y="602.5"/>
      <point x="143.75" y="579.99"/>
      <point x="143.75" y="530" type="curve" smooth="yes"/>
      <point x="143.75" y="490.925"/>
      <point x="186.901" y="473.688"/>
      <point x="204.5" y="471.25" type="curve"/>
      <point x="196.5" y="477.25"/>
      <point x="186" y="491"/>
      <point x="186" y="512" type="curve" smooth="yes"/>
      <point x="186" y="547"/>
      <point x="217.354" y="572"/>
      <point x="253" y="572" type="curve" smooth="yes"/>
      <point x="294" y="572"/>
      <point x="322" y="545"/>
      <point x="322" y="510" type="curve" smooth="yes"/>
      <point x="322" y="471"/>
      <point x="287" y="445"/>
      <point x="229" y="445" type="curve" smooth="yes"/>
      <point x="170" y="445"/>
      <point x="111" y="474"/>
    </contour>
    <contour>
      <point x="12" y="23.75" type="line"/>
      <point x="101.279" y="61.9113"/>
      <point x="184.75" y="141"/>
      <point x="184.75" y="268" type="curve" smooth="yes"/>
      <point x="184.75" y="335.124"/>
      <point x="149.042" y="404.25"/>
      <point x="84" y="404.25" type="curve" smooth="yes"/>
      <point x="68.667" y="404.25"/>
      <point x="50" y="400.25"/>
      <point x="35" y="393.25" type="curve"/>
      <point x="35" y="422" type="line"/>
      <point x="48" y="429"/>
      <point x="69.3333" y="432"/>
      <point x="86" y="432" type="curve" smooth="yes"/>
      <point x="162.265" y="432"/>
      <point x="216" y="360"/>
      <point x="216" y="273" type="curve" smooth="yes"/>
      <point x="216" y="214"/>
      <point x="204.668" y="179.186"/>
      <point x="190" y="148" type="curve"/>
      <point x="206.749" y="140.22"/>
      <point x="241.204" y="130"/>
      <point x="284" y="130" type="curve" smooth="yes"/>
      <point x="371.146" y="130"/>
      <point x="418" y="169.301"/>
      <point x="418" y="214" type="curve" smooth="yes"/>
      <point x="418" y="237.533"/>
      <point x="405" y="277.75"/>
      <point x="344" y="277.75" type="curve" smooth="yes"/>
      <point x="312" y="277.75"/>
      <point x="249" y="286.868"/>
      <point x="249" y="352" type="curve" smooth="yes"/>
      <point x="249" y="402"/>
      <point x="295.177" y="432"/>
      <point x="356" y="432" type="curve" smooth="yes"/>
      <point x="415" y="432"/>
      <point x="461" y="400"/>
      <point x="461" y="341" type="curve" smooth="yes"/>
      <point x="461" y="334.333"/>
      <point x="460.333" y="327.667"/>
      <point x="459" y="321" type="curve"/>
      <point x="426.25" y="321" type="line"/>
      <point x="427.583" y="327"/>
      <point x="428.25" y="333"/>
      <point x="428.25" y="339" type="curve" smooth="yes"/>
      <point x="428.25" y="379.34"/>
      <point x="398" y="404.25"/>
      <point x="355" y="404.25" type="curve" smooth="yes"/>
      <point x="318.639" y="404.25"/>
      <point x="281" y="387.758"/>
      <point x="281" y="353" type="curve" smooth="yes"/>
      <point x="281" y="315.963"/>
      <point x="308" y="306"/>
      <point x="347" y="306" type="curve" smooth="yes"/>
      <point x="424" y="306"/>
      <point x="497" y="265.808"/>
      <point x="497" y="164" type="curve" smooth="yes"/>
      <point x="497" y="66"/>
      <point x="409" y="0"/>
      <point x="322" y="0" type="curve" smooth="yes"/>
      <point x="244.38" y="0"/>
      <point x="195" y="21"/>
      <point x="147" y="83" type="curve"/>
      <point x="115.985" y="47.94"/>
      <point x="71.9292" y="14.8889"/>
      <point x="29" y="1" type="curve"/>
    </contour>
  </outline>
</glyph>
<glyph name="kna_unused" format="1">
  <advance width="113"/>
  <outline>
    <contour>
      <point x="270" y="396" type="line"/>
      <point x="247" y="403"/>
      <point x="227" y="406"/>
      <point x="208" y="406" type="curve" smooth="yes"/>
      <point x="121" y="406"/>
      <point x="57" y="334"/>
      <point x="57" y="218" type="curve" smooth="yes"/>
      <point x="57" y="137"/>
      <point x="83" y="74"/>
      <point x="135" y="29" type="curve"/>
      <point x="135" y="0" type="line"/>
      <point x="63" y="36"/>
      <point x="27" y="126"/>
      <point x="27" y="221" type="curve" smooth="yes"/>
      <point x="27" y="306"/>
      <point x="55" y="359"/>
      <point x="103" y="398" type="curve" smooth="yes"/>
      <point x="150" y="437"/>
      <point x="223" y="443"/>
      <point x="279" y="419" type="curve"/>
    </contour>
  </outline>
</glyph>
<glyph name="reph.yansa" format="1">
  <advance width="544"/>
  <outline>
    <contour>
      <point x="35" y="422" type="line"/>
      <point x="52" y="429"/>
      <point x="69" y="432"/>
      <point x="86" y="432" type="curve" smooth="yes"/>
      <point x="157" y="432"/>
      <point x="211" y="369"/>
      <point x="216" y="286" type="curve" smooth="yes"/>
      <point x="220" y="232"/>
      <point x="210" y="181"/>
      <point x="186" y="132" type="curve"/>
      <point x="232" y="119"/>
      <point x="272" y="112"/>
      <point x="305" y="112" type="curve" smooth="yes"/>
      <point x="324" y="112"/>
      <point x="341" y="114"/>
      <point x="356" y="118" type="curve" smooth="yes"/>
      <point x="479" y="151"/>
      <point x="458" y="262"/>
      <point x="362" y="277" type="curve"/>
      <point x="327" y="281"/>
      <point x="286" y="284"/>
      <point x="267" y="303" type="curve" smooth="yes"/>
      <point x="255" y="315"/>
      <point x="249" y="330"/>
      <point x="249" y="348" type="curve" smooth="yes"/>
      <point x="249" y="389"/>
      <point x="275" y="429"/>
      <point x="354" y="432" type="curve" smooth="yes"/>
      <point x="415" y="435"/>
      <point x="461" y="396"/>
      <point x="461" y="341" type="curve" smooth="yes"/>
      <point x="461" y="334"/>
      <point x="460" y="328"/>
      <point x="459" y="321" type="curve"/>
      <point x="428" y="321" type="line"/>
      <point x="429" y="327"/>
      <point x="430" y="333"/>
      <point x="430" y="339" type="curve" smooth="yes"/>
      <point x="430" y="376"/>
      <point x="401" y="407"/>
      <point x="358" y="407" type="curve" smooth="yes"/>
      <point x="318" y="407"/>
      <point x="280" y="386"/>
      <point x="280" y="353" type="curve" smooth="yes"/>
      <point x="280" y="345"/>
      <point x="282" y="337"/>
      <point x="286" y="328" type="curve"/>
      <point x="292" y="316"/>
      <point x="313" y="309"/>
      <point x="349" y="307" type="curve" smooth="yes"/>
      <point x="434" y="300"/>
      <point x="505" y="267"/>
      <point x="496" y="147" type="curve" smooth="yes"/>
      <point x="489" y="66"/>
      <point x="419" y="8"/>
      <point x="331" y="0" type="curve" smooth="yes"/>
      <point x="254" y="-7"/>
      <point x="192" y="21"/>
      <point x="147" y="83" type="curve"/>
      <point x="116" y="48"/>
      <point x="74" y="16"/>
      <point x="29" y="1" type="curve"/>
      <point x="12" y="19" type="line"/>
      <point x="112" y="58"/>
      <point x="186" y="156"/>
      <point x="186" y="268" type="curve" smooth="yes"/>
      <point x="186" y="339"/>
      <point x="149" y="406"/>
      <point x="84" y="406" type="curve" smooth="yes"/>
      <point x="69" y="406"/>
      <point x="52" y="402"/>
      <point x="35" y="395" type="curve"/>
    </contour>
    <contour>
      <point x="328" y="514" type="curve" smooth="yes"/>
      <point x="328" y="471"/>
      <point x="297" y="450"/>
      <point x="234" y="450" type="curve" smooth="yes"/>
      <point x="170" y="450"/>
      <point x="114" y="481"/>
      <point x="114" y="530" type="curve" smooth="yes"/>
      <point x="114" y="605"/>
      <point x="196" y="642"/>
      <point x="287" y="635" type="curve" smooth="yes"/>
      <point x="352" y="630"/>
      <point x="401" y="578"/>
      <point x="401" y="522" type="curve" smooth="yes"/>
      <point x="401" y="498"/>
      <point x="392" y="476"/>
      <point x="375" y="457" type="curve"/>
      <point x="340" y="457" type="line"/>
      <point x="360" y="476"/>
      <point x="369" y="498"/>
      <point x="367" y="525" type="curve" smooth="yes"/>
      <point x="363" y="579"/>
      <point x="329" y="606"/>
      <point x="266" y="606" type="curve" smooth="yes"/>
      <point x="207" y="606"/>
      <point x="157" y="580"/>
      <point x="157" y="535" type="curve" smooth="yes"/>
      <point x="157" y="513"/>
      <point x="167" y="497"/>
      <point x="188" y="487" type="curve"/>
      <point x="192" y="486"/>
      <point x="196" y="485"/>
      <point x="201" y="483" type="curve"/>
      <point x="194" y="494"/>
      <point x="191" y="505"/>
      <point x="191" y="517" type="curve" smooth="yes"/>
      <point x="191" y="522"/>
      <point x="192" y="527"/>
      <point x="193" y="532" type="curve"/>
      <point x="216" y="597"/>
      <point x="328" y="593"/>
    </contour>
    <contour>
      <point x="260" y="479" type="curve" smooth="yes"/>
      <point x="280" y="479"/>
      <point x="297" y="495"/>
      <point x="297" y="515" type="curve" smooth="yes"/>
      <point x="297" y="534"/>
      <point x="280" y="550"/>
      <point x="261" y="550" type="curve" smooth="yes"/>
      <point x="241" y="550"/>
      <point x="225" y="533"/>
      <point x="225" y="513" type="curve" smooth="yes"/>
      <point x="225" y="494"/>
      <point x="241" y="479"/>
    </contour>
  </outline>
</glyph>
